<?xml version="1.0" encoding="UTF-8" standalone="no"?>
<!-- Created with Inkscape (http://www.inkscape.org/) -->
<svg xmlns:dc="http://purl.org/dc/elements/1.1/" xmlns:cc="http://creativecommons.org/ns#" xmlns:rdf="http://www.w3.org/1999/02/22-rdf-syntax-ns#" xmlns:svg="http://www.w3.org/2000/svg" xmlns="http://www.w3.org/2000/svg" version="1.1" width="90" height="90" id="svg6792">
  <defs id="defs6794"/>
  <rect width="60" height="60" rx="0" ry="0" x="33.6395" y="-30" transform="matrix(0.707107,0.707107,-0.707107,0.707107,0,0)" id="rect6763" style="fill:#ffffff;stroke:#231f20;stroke-width:0.7"/>
  <path d="M 13.625,40.125 8.75,45 45,81.25 81.25,45 76.375,40.125" id="rect6907" style="fill:#231f20;stroke:#231f20;stroke-width:0.7;stroke-miterlimit:4;stroke-opacity:1;stroke-dasharray:none"/>
  <path d="M 43.7271,69.6118 C 43.3367,69.4471 43.053,69.2206 42.8757,68.9324 42.6985,68.6441 42.6099,68.3281 42.6099,67.9844 42.6099,67.3971 42.8149,66.912 43.2249,66.5288 43.6348,66.1457 44.2176,65.9541 44.9731,65.9541 45.7215,65.9541 46.3025,66.1457 46.7161,66.5288 47.1296,66.912 47.3364,67.3971 47.3364,67.9844 47.3364,68.3496 47.2415,68.6746 47.0518,68.9592 46.862,69.2439 46.5952,69.4614 46.2515,69.6118 46.6883,69.7873 47.0204,70.0433 47.2478,70.3799 47.4752,70.7165 47.5889,71.105 47.5889,71.5454 47.5889,72.2723 47.357,72.8631 46.8933,73.3179 46.4296,73.7726 45.8128,74 45.043,74 44.3268,74 43.7306,73.812 43.2544,73.436 42.6922,72.992 42.4111,72.3833 42.4111,71.6099 42.4111,71.1838 42.5168,70.7926 42.728,70.4363 42.9393,70.08 43.2723,69.8052 43.7271,69.6118 z M 44.0386,68.0918 C 44.0386,68.3926 44.1236,68.6271 44.2937,68.7954 44.4638,68.9637 44.6903,69.0479 44.9731,69.0479 45.2596,69.0479 45.4888,68.9628 45.6606,68.7927 45.8325,68.6226 45.9185,68.3872 45.9185,68.0864 45.9185,67.8036 45.8334,67.5771 45.6633,67.407 45.4932,67.2369 45.2686,67.1519 44.9893,67.1519 44.6992,67.1519 44.4683,67.2378 44.2964,67.4097 44.1245,67.5815 44.0386,67.8089 44.0386,68.0918 z M 43.8989,71.4648 C 43.8989,71.8802 44.0055,72.2043 44.2185,72.437 44.4316,72.6698 44.6974,72.7861 45.0161,72.7861 45.3276,72.7861 45.5854,72.6742 45.7896,72.4504 45.9936,72.2266 46.0957,71.9035 46.0957,71.481 46.0957,71.1121 45.9919,70.8158 45.7842,70.592 45.5765,70.3682 45.3133,70.2564 44.9946,70.2563 44.6258,70.2564 44.351,70.3835 44.1702,70.6377 43.9893,70.8919 43.8989,71.1676 43.8989,71.4648 z" id="path3037" style="fill:#ffffff;stroke:none;"/>
  <g id="g3101">
    <path d="M 48.0849,19.8634 C 48.0849,19.8634 49.7244,20.3046 50.401,20.6044 50.8431,20.6169 52.2212,21.1234 52.5193,21.2281 53.7695,21.1887 54.5892,22.0855 55.7052,21.6693 56.0309,21.4751 56.3826,21.7347 56.5777,21.919 L 56.5777,22.2958 C 56.3567,22.5168 56.2394,22.8793 56.2001,23.2301 56.0837,23.4001 56.1616,23.6462 56.1365,23.8556 55.9012,24.0767 55.8484,24.5322 55.7052,24.7908 55.5888,25.0002 55.6801,25.2463 55.5119,25.4164 55.2908,25.4674 55.2255,25.5864 54.9525,25.5327 54.6536,25.377 54.795,24.8186 54.3288,24.7908 54.2456,24.4991 53.7328,24.4704 53.2101,24.3487 52.4808,24.142 49.3468,23.2041 49.0219,23.0994 48.2684,22.933 47.709,22.6716 46.9018,22.6072 46.6208,22.2985 46.2494,22.2985 46.1367,22.0157 45.6006,21.7883 45.8234,20.3269 46.1367,20.2992 46.1474,20.1068 46.3738,20.011 46.4785,19.9573 46.5546,19.9197 47.045,19.5886 47.4612,19.7336 47.4612,19.7336 47.8773,19.8374 48.0849,19.8634 z" id="path404" style="fill:none;stroke:none"/>
    <path d="M 43.4036,19.8634 C 43.4832,20.0701 44.022,20.2142 44.2242,20.8004 L 44.2242,21.6693 C 44.0792,21.9557 43.5369,22.4148 43.093,22.6072 42.5095,22.7012 36.3695,24.2127 35.8504,24.3487 35.8504,24.3487 35.2768,24.4785 35.2249,24.7246 L 35.2249,24.9089 C 35.1604,24.9206 35.0423,25.1049 35.0423,25.1049 34.6011,25.1407 34.7953,25.1407 34.3541,25.1049 34.3541,25.0253 34.1725,24.9089 34.1725,24.9089 34.1322,24.4785 33.5702,22.6126 33.4162,21.9816 33.2865,21.4626 33.6131,21.3069 33.8592,21.1127 L 34.1062,21.1127 C 34.2897,21.3722 34.9779,21.4885 34.9779,21.4232 35.6276,21.5396 36.5377,21.1127 36.5377,21.1127 37.3673,20.9561 42.0916,19.8634 42.0916,19.8634 L 43.4036,19.8634 z" id="path408" style="fill:none;stroke:none"/>
    <path d="M 47.9032,20.1748 C 47.9032,20.1748 49.9714,20.812 50.401,20.9167 51.2207,21.0867 52.8459,21.6308 52.9613,21.6049 53.365,21.749 54.2626,21.9816 54.2626,21.9816 55.0027,22.021 55.3946,22.4631 56.1365,22.4774 56.0184,22.5812 55.8877,22.8274 55.5772,22.7235 L 55.5772,22.6716 48.1511,22.5419 C 48.1637,22.3468 47.0495,22.5553 46.2772,21.6693 46.253,21.5288 46.0964,21.2281 46.0964,21.2281 L 46.0964,20.982 C 46.3067,20.2419 46.7193,20.1748 46.7193,20.1748 46.8768,20.1238 47.6688,20.1238 47.9032,20.1748 z" id="path412" style="fill:none;stroke:none"/>
    <path d="M 43.2872,20.1748 C 43.6792,20.4155 43.9101,20.8004 43.9101,20.8004 43.9101,20.8004 44.0506,21.9843 42.9749,22.1651 L 41.7292,22.6072 34.1725,22.6072 C 34.2628,22.387 33.8592,22.2958 33.8592,22.2958 33.9389,21.9816 34.4051,22.1767 34.4848,21.8546 35.3027,21.8394 35.9909,21.7749 36.6684,21.5396 L 42.2214,20.1748 43.2872,20.1748 z" id="path416" style="fill:none;stroke:none"/>
    <path d="M 60.5709,25.0387 C 60.5574,25.8969 60.7141,26.9512 59.9462,27.2223 59.6983,27.3673 59.9587,27.8881 59.6983,28.0295 59.3735,28.0045 59.1909,28.1861 59.0737,28.4063 L 59.0737,29.0972 C 58.7882,29.1625 58.8804,29.5384 58.5797,29.5894 L 58.5797,29.7209 C 58.2682,29.6046 58.1778,29.9017 58.0722,30.0315 58.0857,29.8507 57.7742,29.865 57.8915,29.5894 58.321,29.3182 58.372,28.732 58.321,28.0949 58.5671,28.0045 58.5797,27.6921 58.9448,27.7181 L 58.9448,27.6 C 59.2965,27.5481 59.0611,27.0917 59.2562,26.9109 59.3994,26.4035 60.2845,26.4554 59.9462,25.6625 59.7627,25.4414 60.0232,25.3108 60.0115,25.0387 60.1279,24.9089 60.5306,24.6879 60.5709,25.0387 z" id="path420" style="fill:none;stroke:none"/>
    <path d="M 56.8892,25.9086 C 56.9939,26.2486 56.9939,26.4947 57.0717,26.8455 L 57.2024,26.8455 C 56.942,26.8455 57.0323,27.2116 57.0198,27.4058 56.942,27.3923 56.8632,27.4684 56.8892,27.5373 L 56.8892,27.7181 C 56.7209,27.6537 56.6806,27.8595 56.7075,27.9785 56.7209,28.0546 56.6556,28.1709 56.7594,28.2246 56.916,28.2765 56.9688,28.5244 57.2024,28.5361 57.2283,28.6408 57.1496,28.7831 57.2668,28.8484 L 57.3321,29.8507 C 57.2552,29.8247 57.1755,29.9017 57.2024,29.967 L 57.2024,30.1612 C 57.112,30.1371 56.9939,30.1756 57.0198,30.2812 L 57.0198,30.4736 C 56.916,30.487 56.7728,30.4217 56.7075,30.5273 L 56.7075,30.657 56.2001,30.657 C 56.2001,30.5917 56.2135,30.5129 56.1365,30.4736 L 56.0184,30.4736 C 55.9933,30.3715 56.0712,30.2275 55.954,30.1612 L 55.8877,29.1625 C 56.0443,29.1732 56.0184,29.0032 56.0184,28.9128 L 56.0184,28.7168 C 56.3943,28.7464 56.0309,28.1709 56.3298,28.0949 56.2663,27.9785 56.1213,28.0546 56.0184,28.0295 56.0309,27.9499 55.9933,27.8344 55.8877,27.8479 L 55.7052,27.8479 C 55.6148,27.5373 55.6676,27.2223 55.3946,27.0917 L 55.3946,26.6648 C 55.6282,26.4437 55.6801,25.9873 55.8233,25.7269 55.9781,25.5712 55.7705,25.2204 56.0184,25.1703 56.2394,25.4414 56.6028,25.6625 56.8892,25.9086 z" id="path424" style="fill:none;stroke:none"/>
    <path d="M 49.8944,25.5971 C 50.128,25.8065 50.4538,25.6875 50.5817,26.0392 L 50.7124,26.0392 C 50.8547,26.3256 50.9075,26.7158 51.1411,26.9109 51.5966,26.8715 51.61,27.2116 51.9617,27.2876 52.1559,27.4058 51.9358,27.7942 52.2731,27.7834 52.3644,28.1199 52.3779,28.3669 52.4548,28.7168 52.794,28.9271 53.2871,29.0972 53.5207,29.473 L 53.6379,29.473 53.6379,29.8507 C 52.871,29.9411 52.7027,29.2269 52.0261,29.2269 50.8699,29.303 52.3,27.2116 50.7768,27.7181 50.7768,27.4434 50.4779,27.5087 50.4654,27.2876 50.1531,27.2375 50.2453,26.8455 49.958,26.7811 50.1674,26.0786 49.4121,26.2093 49.5293,25.5971 L 49.8944,25.5971 z" id="path428" style="fill:none;stroke:none"/>
    <path d="M 34.2897,26.3533 C 34.2351,26.6648 34.4051,26.8214 34.6011,26.9109 L 34.6011,28.0295 C 34.3282,28.0949 34.4051,28.4859 34.1062,28.5361 L 34.1062,28.6524 C 34.0033,28.681 33.8592,28.6023 33.7939,28.7168 L 33.7939,28.7831 C 33.4699,28.732 33.4306,28.3947 33.1057,28.341 L 33.1057,27.2876 C 33.3661,27.0917 33.3518,26.6111 33.6131,26.4187 33.6248,26.2227 33.5603,26.0025 33.7295,25.9086 34.1062,25.8173 34.0141,26.2996 34.2897,26.3533 z" id="path432" style="fill:none;stroke:none"/>
    <path d="M 53.0141,26.535 C 52.871,27.0917 53.4947,26.7301 53.5207,27.1579 L 53.6379,27.1579 C 53.7435,27.4971 53.756,27.7441 53.8339,28.0949 54.1453,28.1199 53.9502,28.511 54.2626,28.5361 54.1856,28.7571 54.4702,28.6524 54.4585,28.8484 L 54.5749,28.8484 54.5749,29.5384 C 54.5105,29.5384 54.4317,29.5133 54.3932,29.5894 L 54.3932,29.7209 C 54.1453,29.5786 54.054,29.2788 53.8339,29.0972 53.9502,28.6524 53.4562,28.7571 53.3918,28.4707 L 53.2101,28.4707 C 53.1188,28.1602 53.1699,27.8479 52.8978,27.7181 52.871,27.6134 52.9613,27.3923 52.768,27.4058 52.4951,27.3673 52.4951,26.9896 52.3376,26.7811 52.3779,26.535 52.2347,26.1574 52.4548,26.0392 52.8316,25.9632 52.7412,26.4697 53.0141,26.535 z" id="path436" style="fill:none;stroke:none"/>
    <path d="M 62.3258,26.4187 C 62.5469,26.7552 62.4037,27.3673 62.4421,27.8479 62.3392,27.8738 62.196,27.7942 62.1307,27.9141 L 62.1307,28.0295 C 61.6233,27.8344 61.9741,28.4707 61.7011,28.5361 L 61.7011,28.9665 C 61.3763,29.0569 61.5848,29.5384 61.1946,29.5894 L 61.1946,29.7209 C 60.8814,29.8113 60.5709,29.7451 60.4527,30.0315 59.88,30.0708 59.5301,30.3572 59.2034,30.657 60.3883,30.8378 61.558,30.9434 62.196,31.7757 L 62.3258,31.7757 C 62.3392,32.1014 62.7419,31.9063 62.7554,32.2178 63.5608,32.5543 64.7188,32.3475 65.6943,32.3985 65.6943,32.4782 65.6818,32.5543 65.7587,32.5945 L 65.7587,32.5283 65.8751,32.5283 65.8751,32.5945 C 64.9524,32.659 63.704,32.7386 62.8198,32.5283 62.5594,32.1784 62.0001,32.1265 61.754,31.722 61.311,31.6719 61.1418,31.3336 60.7006,31.2799 60.6478,30.9434 60.1547,31.1501 59.88,31.0991 L 59.88,31.0338 C 59.3475,30.9541 58.594,30.8897 58.1376,31.0991 58.125,31.3595 57.7089,31.3336 57.6445,31.5922 57.3321,31.6826 57.0064,31.62 56.8892,31.9063 L 56.2001,31.9063 C 56.0309,31.62 55.4716,31.722 55.3946,31.3452 55.5244,30.8781 54.9525,31.2405 54.8881,30.9694 53.8464,31.0338 52.6383,30.8136 51.7657,31.1501 51.7926,31.3595 51.7138,31.6056 51.8311,31.7757 51.9733,31.8267 52.0261,32.088 52.2731,32.088 52.2597,32.3985 52.5479,32.2688 52.7027,32.3985 L 55.1986,32.3985 C 55.4072,32.659 55.8752,32.6446 56.0837,32.9051 56.6941,33.0903 57.0851,33.7132 57.5129,34.089 57.5263,34.4148 57.9291,34.2054 57.9559,34.5311 58.3855,34.6215 58.4884,35.026 59.0737,34.8963 L 59.0737,35.1558 58.5152,35.1558 C 58.398,34.9356 58.1376,34.8059 57.8915,34.7799 57.7877,34.4291 57.2793,34.6358 57.2024,34.2197 56.839,34.1687 57.0851,33.5566 56.6431,33.5968 56.7209,33.2049 56.2135,33.5673 56.2001,33.2827 55.9405,33.2308 55.9933,32.8039 55.5772,32.9704 L 55.5772,32.9051 C 55.4072,32.7887 55.1611,32.8684 54.9525,32.8406 L 54.9525,32.71 48.3972,32.71 48.3972,32.8406 C 48.0607,32.71 48.0733,33.0608 47.7735,33.0241 47.6822,33.4268 47.8907,33.6335 48.1511,33.7776 L 53.6379,33.7776 53.6379,34.0237 C 51.2064,34.0497 48.7355,33.9727 46.3434,34.089 L 46.3434,34.2197 C 46.0042,34.089 45.9264,34.4658 45.7841,34.5311 45.6668,34.7012 45.7313,34.9473 45.7205,35.1558 46.2127,35.3124 46.4991,35.5737 47.0325,35.6498 L 52.8316,35.6498 C 52.8316,35.7142 52.819,35.7939 52.8978,35.8333 L 53.0141,35.8333 46.8392,35.9603 46.8392,36.091 C 46.6691,36.014 46.6289,36.2208 46.6548,36.3407 46.6691,36.4167 46.6029,36.5465 46.7193,36.5868 L 46.8392,36.5868 C 46.9922,36.7783 47.2016,36.9752 47.5918,36.8946 L 47.5918,37.0289 C 47.7735,37.1184 48.0849,37.1184 48.2809,37.0289 L 48.2809,36.8946 48.3972,36.8946 48.3972,37.0289 53.9502,37.0826 53.9502,37.2705 C 52.1031,37.2884 50.2184,37.2258 48.3972,37.3421 L 48.3972,37.4584 C 48.2281,37.3958 48.1896,37.5927 48.2165,37.709 48.2281,37.7985 48.1637,37.9148 48.2809,37.9685 L 48.3972,37.9685 C 48.5539,38.1565 48.7624,38.3534 49.1526,38.2728 L 49.1526,38.3891 50.5182,38.4607 50.5182,38.5234 53.0141,38.586 53.0141,38.7113 C 53.8724,38.8008 54.8478,38.8008 55.7052,38.7113 L 55.7052,38.586 C 56.6806,38.5592 57.6964,38.6397 58.6316,38.5234 59.2034,38.3802 60.0115,38.5413 60.6353,38.3891 L 60.6353,38.2728 C 61.6233,38.5771 61.7011,37.7538 62.5066,37.7717 L 62.5066,37.6553 C 63.0408,37.6553 63.3532,37.4942 63.8865,37.4584 L 63.8865,37.3421 66.6304,37.3421 C 66.7476,37.6106 66.4219,37.6016 66.4344,37.7717 65.1081,37.8343 63.6002,37.6106 62.4421,37.9685 62.4296,38.2728 62.026,38.067 62.0126,38.3891 61.6752,38.4965 61.4148,38.4965 61.0774,38.586 L 61.0774,38.7113 C 59.3475,38.7113 57.8521,38.8635 56.1365,38.8993 L 56.1365,39.0156 52.768,39.0156 52.768,38.8993 C 51.5062,38.7561 50.0877,38.9261 48.9056,38.7113 48.7874,38.4876 48.527,38.3713 48.2809,38.3265 47.539,38.2997 48.4894,36.8946 47.4612,37.1452 L 47.0325,37.1452 C 47.045,37.0826 46.968,37.002 46.9018,37.0289 46.6432,37.0647 46.6691,36.7156 46.4087,36.7156 46.3828,36.6127 46.4588,36.4704 46.3434,36.406 46.0964,36.261 46.7721,35.6498 46.0964,35.7796 46.1098,35.5737 45.9666,35.5478 45.836,35.4681 L 45.6534,35.4681 C 45.6275,35.3634 45.7062,35.222 45.5899,35.1558 L 45.4708,35.1558 45.4708,34.5848 C 45.7706,34.4936 45.6006,33.9333 46.0964,34.0237 46.1223,33.894 46.4857,34.0631 46.4087,33.7776 46.8096,33.791 47.2526,33.7776 47.5274,33.5968 47.318,32.9588 47.8648,33.0241 47.9677,32.5945 48.0733,32.5686 48.2165,32.6446 48.2809,32.5283 L 48.2809,32.3985 51.7657,32.3985 C 52.0127,32.088 51.5966,32.0361 51.6494,31.722 L 51.5196,31.722 C 51.4794,31.3202 51.5572,31.1501 51.8311,30.9694 51.8955,30.8781 51.9733,30.6436 52.2087,30.7232 L 55.1986,30.7232 C 55.187,30.7877 55.264,30.8637 55.3284,30.8378 L 55.5119,30.8378 C 55.5378,30.9541 55.4474,31.1635 55.6416,31.1501 55.8877,31.1394 55.8877,31.6056 56.2663,31.4616 56.1866,31.6459 56.3943,31.6719 56.5133,31.6567 56.6028,31.6316 56.7209,31.7103 56.7594,31.5922 L 56.7594,31.4616 C 57.461,31.722 57.4485,31.0195 57.9559,31.0338 58.0606,30.9694 57.9953,30.8244 58.0078,30.7232 58.1125,30.6937 58.2557,30.7734 58.321,30.657 L 58.321,30.5273 C 59.3735,30.8781 59.5426,30.0055 60.0115,29.5894 60.076,29.5894 60.1547,29.6153 60.1923,29.5384 L 60.1923,29.3433 C 60.5181,29.2269 60.8286,29.0972 60.9467,28.7168 L 60.9467,28.4063 C 61.1678,28.29 61.285,28.0295 61.3244,27.7834 61.5061,27.4577 61.9875,27.4058 61.8193,26.9109 L 61.754,26.2227 C 62.0529,26.1574 62.1441,26.339 62.3258,26.4187 z" id="path440" style="fill:none;stroke:none"/>
    <path d="M 55.8877,26.535 55.954,26.535 56.0184,27.0917 55.954,27.0917 55.8877,26.535 z" id="path444" style="fill:none;stroke:none"/>
    <path d="M 33.7939,27.1579 C 33.8736,27.3923 33.6767,27.4183 33.6131,27.5373 L 33.6131,27.1579 33.7939,27.1579 z" id="path448" style="fill:none;stroke:none"/>
    <path d="M 39.542,27.8479 C 39.465,27.8237 39.3854,27.8998 39.4113,27.9785 L 39.4113,28.1602 39.2825,28.1602 C 39.1921,28.7723 39.2825,29.5249 38.7231,29.7209 37.5248,29.669 38.7616,31.7363 37.6707,31.7757 37.3852,32.1014 37.2018,32.3985 37.0988,32.8406 36.8626,32.8039 36.9163,33.0608 36.6684,32.9704 L 36.6684,32.2822 C 36.9163,32.088 36.9163,31.7103 37.2922,31.5922 L 37.2922,31.4616 C 37.6304,31.4902 37.396,31.0857 37.6045,30.9694 37.787,30.4619 37.2277,30.2149 37.6045,29.8507 37.8264,29.1732 38.9701,29.2645 38.5406,28.0949 38.6068,28.1199 38.6847,28.0439 38.6587,27.9785 L 38.6587,27.7834 C 38.7357,27.7834 38.8135,27.7942 38.8538,27.7181 L 38.8538,27.6 C 38.9576,27.574 39.1786,27.6644 39.1661,27.4684 39.3209,27.6134 39.4006,27.6921 39.542,27.8479 z" id="path452" style="fill:none;stroke:none"/>
    <path d="M 31.0492,28.29 31.1673,28.6524 31.1145,28.6524 C 31.0644,29.0972 30.9096,29.7854 31.2326,30.0968 L 31.3633,30.0968 C 31.4018,30.5774 31.4922,30.8637 31.5459,31.3452 31.6756,31.5806 32.0909,31.3703 32.1034,31.722 L 32.1034,32.2178 C 31.962,32.2026 31.9871,32.3726 31.9871,32.4639 32.013,32.8406 32.3772,33.0241 32.6108,33.2174 L 32.6108,33.7132 C 32.5339,33.7132 32.4542,33.6989 32.4175,33.7776 L 32.4175,33.9074 32.0524,33.9074 C 32.209,33.1145 31.2604,33.4411 31.4259,32.659 L 31.4259,32.088 C 31.7785,31.9717 31.2845,31.9314 31.3633,31.722 L 31.1145,31.722 C 31.1288,31.6459 31.0492,31.5663 30.9847,31.5922 L 30.804,31.5922 C 30.7395,31.1761 30.9588,30.538 30.608,30.3456 30.6993,30.1219 30.4129,30.2275 30.4272,30.0315 L 30.2965,30.0315 C 30.2965,29.669 30.1006,29.5509 30.1802,29.1625 L 30.2321,29.1625 C 30.3485,28.9531 30.2831,28.6524 30.2965,28.4063 30.6214,28.3947 30.3995,27.9248 30.8559,28.0949 L 31.0492,28.29 z" id="path456" style="fill:none;stroke:none"/>
    <path d="M 29.4902,30.8378 C 29.5045,30.9434 29.4383,31.0857 29.5547,31.1501 L 29.671,31.1501 C 29.2558,32.3341 30.3869,32.4388 30.5435,33.1512 30.8433,33.4411 31.2604,33.6076 31.3633,34.0237 L 30.804,34.0237 C 30.8165,33.9593 30.7395,33.8823 30.6733,33.9074 L 30.4925,33.9074 C 30.5033,33.817 30.4666,33.6989 30.361,33.7132 L 30.1802,33.7132 C 30.0773,33.3364 29.8938,33.0903 29.6084,32.8406 29.2298,32.9704 29.2038,32.659 29.1135,32.4639 29.049,32.1122 29.2683,31.526 28.9309,31.4105 29.0723,30.853 28.4512,31.2155 28.4226,30.7877 L 28.3062,30.7877 28.3062,30.4082 C 28.5801,30.3456 28.5157,29.9805 28.7367,29.9017 28.7752,29.5643 28.8915,29.3182 29.1135,29.1625 29.3345,29.6288 28.8915,30.6436 29.4902,30.8378 z" id="path460" style="fill:none;stroke:none"/>
    <path d="M 36.9163,29.1625 C 36.9163,29.2269 36.9029,29.303 36.9807,29.3433 L 37.0988,29.3433 37.0988,29.8507 C 36.8626,29.9151 36.8125,30.2275 36.6684,30.3456 L 36.6022,31.4105 C 36.5377,31.3855 36.4599,31.4616 36.4724,31.526 L 36.4724,31.722 36.357,31.722 C 36.135,32.1122 36.5762,32.9453 35.9802,33.0241 L 35.9802,33.2827 C 35.7439,33.3472 35.7198,33.1664 35.6016,33.0903 35.9408,32.6187 35.4334,31.526 36.0446,31.2799 L 36.0446,31.1501 36.161,31.1501 36.2254,30.0968 C 36.3033,30.1219 36.382,30.0458 36.357,29.967 L 36.357,29.7854 C 36.6299,29.669 36.5377,29.1222 36.9163,29.1625 z" id="path464" style="fill:none;stroke:none"/>
    <path d="M 56.3943,29.5384 56.3298,29.1625 56.3943,29.3433 56.3943,29.5384 z" id="path468" style="fill:none;stroke:none"/>
    <path d="M 34.6011,30.5273 C 34.6512,30.759 34.4955,31.1242 34.7318,31.2155 34.6011,31.7497 34.5492,32.3225 34.0418,32.5283 33.6632,32.5426 33.3769,32.5543 33.2355,32.2178 L 33.1057,32.2178 C 32.9366,31.943 33.001,31.5403 32.9876,31.1501 33.0538,31.1761 33.1317,31.0991 33.1057,31.0338 L 33.1057,30.8378 C 33.3661,30.6436 33.3518,30.1612 33.6131,29.967 L 33.7295,29.5894 C 34.0937,29.8758 34.2351,30.2516 34.6011,30.5273 z" id="path472" style="fill:none;stroke:none"/>
    <path d="M 33.5469,31.5922 33.4162,31.5922 33.4162,31.0338 33.5469,31.0338 33.5469,31.5922 z" id="path476" style="fill:none;stroke:none"/>
    <path d="M 31.4796,34.2698 C 31.7526,34.3235 31.6882,34.7522 32.1034,34.5848 32.4032,34.8819 33.0413,35.4681 33.0413,35.4681 33.5863,35.5585 34.2503,35.5585 34.7953,35.4681 34.8338,35.1021 35.6661,34.9473 35.7332,34.8453 35.7064,34.3495 36.4858,34.8175 36.5377,34.4014 38.4887,34.1687 40.7,34.3235 42.7807,34.2698 43.0402,34.3897 43.0268,34.7916 43.2872,34.8963 L 43.2872,36.7156 C 42.9749,36.823 43.1432,37.4047 42.6626,37.3421 L 30.1802,37.3421 23.8066,37.2079 C 22.9994,36.9394 23.522,35.6749 23.3654,34.8963 23.4423,34.9213 23.496,34.5848 23.496,34.5848 23.5605,34.5848 23.6768,34.4014 23.6768,34.4014 26.1486,34.1687 28.879,34.3235 31.4796,34.2698 z" id="path480" style="fill:none;stroke:none"/>
    <path d="M 56.3423,21.4094 C 56.1427,21.3548 55.9306,21.4649 55.8913,21.669 55.8107,21.8891 55.6595,21.9705 55.4214,21.9061 L 54.837,21.7495 48.6084,19.9659 47.6938,19.7198 C 47.5962,19.693 47.4548,19.6634 47.3582,19.6581 47.2732,19.6536 47.1908,19.6625 47.1076,19.6724 46.5304,19.7386 46.0534,20.1592 45.8923,20.7615 45.6838,21.5473 46.1214,22.3473 46.9071,22.5558 L 54.1077,24.573 54.6661,24.7233 C 54.9355,24.8003 54.991,24.888 54.965,25.1207 54.9122,25.3211 55.0098,25.5126 55.2254,25.5717 55.442,25.6308 55.6228,25.5109 55.6756,25.3113 L 56.6027,21.8596 C 56.6376,21.6537 56.5428,21.4622 56.3423,21.4094 z" id="path4901" style="fill:#231f20;stroke:none"/>
    <path d="M 47.1676,20.0849 C 46.7649,20.1306 46.4212,20.4259 46.3013,20.8734 46.1474,21.4515 46.4436,22.0108 47.011,22.1612 L 47.4047,22.2668 55.8152,22.8538 55.9208,22.486 47.5891,20.1377 C 47.5139,20.1181 47.3618,20.0876 47.3269,20.0849 47.2893,20.0841 47.2544,20.0751 47.1676,20.0849 z" id="path4903" style="fill:#ffffff;stroke:none"/>
    <path d="M 59.8531,35.2936 C 56.2842,35.2936 57.0583,32.6509 53.7963,32.6509 L 53.4052,32.6509 M 65.7686,37.6195 63.1232,37.6195 C 61.1409,37.6195 60.5691,38.6755 58.4723,38.6755 L 48.9333,38.6755 C 48.9333,38.6755 47.7583,38.8008 47.7583,38.0312 47.7583,37.2615 48.4733,37.3868 48.4733,37.3868 L 53.2218,37.3868 47.5685,37.3868 C 47.5685,37.3868 46.5958,37.3958 46.5958,36.5993 46.5958,35.8046 47.3726,35.81 47.3726,35.81 L 52.3438,35.81 46.9537,35.81 C 46.9537,35.81 45.9801,35.7867 45.9801,35.0198 45.9801,34.2251 46.7577,34.2313 46.7577,34.2313 L 52.8495,34.2304 48.8107,34.2287 C 48.8107,34.2287 47.837,34.2358 47.837,33.4393 47.837,32.6455 48.6147,32.6509 48.6147,32.6509 L 53.7963,32.6482 52.6195,32.6464 C 52.6195,32.6464 51.5769,32.5874 51.5769,31.7103 51.5769,30.8092 52.6087,30.9139 52.6087,30.9139 L 54.4424,30.9139 55.0564,31.1537 55.6479,32.0307 56.2726,31.398 56.8256,32.0084 57.5675,31.177 C 57.5675,31.3354 57.8145,31.4079 57.8145,31.4079 57.8145,31.4079 58.4624,30.9139 58.6217,30.9139 L 59.2661,30.9139 C 61.4327,30.9139 61.8112,32.7825 63.6771,32.7825 L 65.6764,32.7825" id="path4922" style="fill:#ffffff;stroke:#231f20;stroke-width:0.492207;stroke-linecap:round;stroke-linejoin:bevel;stroke-miterlimit:4;stroke-opacity:1;stroke-dasharray:none"/>
    <path d="M 23.3412,34.2922 23.3412,37.3421 43.2479,37.3421 43.2479,34.2922 35.7583,34.2922 C 35.5605,34.2922 34.8723,35.2489 34.5904,35.2489 34.3103,35.2489 34.3022,35.0305 34.1367,35.0305 33.9729,35.0305 34.0006,35.2498 33.8118,35.2453 33.6239,35.2408 33.4503,34.8086 33.2131,34.8086 32.975,34.8086 33.0762,35.0932 32.8587,35.0932 32.6412,35.0932 32.2752,34.2922 31.6622,34.2922 z" id="path4931" style="fill:#231f20;stroke:none"/>
    <path d="M 56.3325,25.1658 C 56.6672,25.5005 57.0449,26.4795 57.0449,27.0299 57.0449,27.5812 56.6395,27.9427 56.2878,27.9427 55.9361,27.9427 55.5316,27.6062 55.5316,27.0299 55.5316,26.4536 56.226,26.1681 56.3325,25.1658 z" id="path4933" style="fill:#231f20;stroke:none"/>
    <path d="M 56.4148,26.2826 C 56.3638,26.3659 56.3101,26.4679 56.2636,26.535 56.0649,26.8178 55.9862,26.9341 55.9862,27.038 55.9862,27.4022 56.2215,27.4917 56.2887,27.4917 56.3334,27.4917 56.5911,27.3673 56.5911,27.038 56.5911,26.8849 56.5115,26.5699 56.4148,26.2826 z" id="path4937" style="fill:#ffffff;stroke:none"/>
    <path d="M 56.3021,28.1996 C 56.626,28.5244 56.933,29.3182 56.933,29.8534 56.933,30.3894 56.5383,30.7403 56.1974,30.7403 55.8564,30.7403 55.4618,30.4136 55.4618,29.8534 55.4618,29.2932 56.039,28.8806 56.3021,28.1996 z" id="path4940" style="fill:#231f20;stroke:none"/>
    <path d="M 56.32,29.1267 C 56.2717,29.2072 56.2189,29.3066 56.1732,29.3719 55.9808,29.6467 55.9038,29.7594 55.9038,29.8614 55.9038,30.2149 56.1329,30.3017 56.1974,30.3017 56.2421,30.3017 56.4918,30.1809 56.4918,29.8614 56.4918,29.712 56.414,29.4059 56.32,29.1267 z" id="path4942" style="fill:#ffffff;stroke:none"/>
    <path d="M 49.6886,25.624 C 50.3616,25.9462 50.9531,26.3256 50.8914,27.1624 50.8914,27.6071 51.6539,27.0183 51.8695,27.6098 51.9653,27.8595 51.7613,28.3383 51.8695,28.6443 52.0226,28.988 52.4163,28.9978 52.7367,29.1061 53.3712,29.4131 53.3453,29.7487 53.4643,30.0565" id="path4944" style="fill:none;stroke:#231f20;stroke-width:0.581699;stroke-linecap:butt;stroke-linejoin:miter;stroke-miterlimit:4;stroke-opacity:1;stroke-dasharray:none"/>
    <path d="M 54.4424,29.8471 C 54.4424,29.8471 54.2661,29.2842 54.2751,29.022 54.284,28.7598 53.7426,28.545 53.492,28.3651 53.2415,28.1852 53.5395,27.7548 53.3802,27.5114 53.2209,27.2688 52.6884,27.0013 52.6526,26.6164 52.6177,26.2325 52.6875,25.8576 52.8208,25.5399" id="path4946" style="fill:none;stroke:#231f20;stroke-width:0.581699;stroke-linecap:butt;stroke-linejoin:miter;stroke-miterlimit:4;stroke-opacity:1;stroke-dasharray:none"/>
    <path d="M 57.4073,29.7773 C 57.4565,29.4909 57.8592,29.1822 57.9666,28.7705 58.074,28.358 57.9004,28.3401 57.9666,28.0152 58.0329,27.6904 58.1886,28.0125 58.5403,27.6939 58.8911,27.3744 58.6495,27.2053 58.7774,26.9941 58.9054,26.7838 59.292,26.7704 59.3931,26.5189 59.4943,26.2674 59.1453,25.4871 59.1828,25.1908 59.2213,24.8937 59.3788,24.7013 59.3788,24.7013" id="path4948" style="fill:none;stroke:#231f20;stroke-width:0.581699;stroke-linecap:butt;stroke-linejoin:miter;stroke-miterlimit:4;stroke-opacity:1;stroke-dasharray:none"/>
    <path d="M 60.1341,26.1833 C 60.5548,26.4572 60.8089,27.1418 60.7633,27.3583 60.7176,27.574 60.7221,27.8353 60.3158,28.085 59.9095,28.3356 60.0554,28.6193 60.0223,28.9245 59.9883,29.2287 59.8048,29.3451 59.3788,29.3719 58.9528,29.3988 58.7354,30.0145 58.7354,30.0145" id="path4950" style="fill:none;stroke:#231f20;stroke-width:0.581699;stroke-linecap:butt;stroke-linejoin:miter;stroke-miterlimit:4;stroke-opacity:1;stroke-dasharray:none"/>
    <path d="M 34.1671,26.2146 C 33.7196,26.4715 33.0395,27.395 32.882,27.9749 32.7236,28.5566 33.0484,29.0533 33.418,29.1544 33.7885,29.2547 34.313,29.0166 34.4767,28.409 34.6423,27.8022 33.9926,27.3011 34.1671,26.2146 z" id="path4952" style="fill:#231f20;stroke:none"/>
    <path d="M 33.7617,27.3682 C 33.7903,27.4702 33.8181,27.5937 33.8485,27.6769 33.9756,28.0322 34.0266,28.1772 33.9962,28.2873 33.8914,28.6712 33.6185,28.6971 33.5469,28.6784 33.4995,28.6649 33.265,28.4609 33.3599,28.1137 33.4028,27.9526 33.5773,27.6429 33.7617,27.3682 z" id="path4954" style="fill:#ffffff;stroke:none"/>
    <path d="M 33.844,29.4856 C 33.4807,29.8283 33.1164,30.6848 33.0994,31.2683 33.0806,31.8535 33.4995,32.2509 33.8718,32.2625 34.244,32.2741 34.6852,31.9314 34.7049,31.3193 34.7237,30.708 34.1089,30.2373 33.844,29.4856 z" id="path4956" style="fill:#231f20;stroke:none"/>
    <path d="M 33.7939,30.4968 C 33.844,30.5863 33.8977,30.6964 33.9451,30.7689 34.1474,31.0767 34.2253,31.202 34.2226,31.313 34.21,31.6996 33.9577,31.7855 33.887,31.7837 33.8378,31.7819 33.5702,31.6414 33.5818,31.2924 33.5854,31.1304 33.6802,30.7984 33.7939,30.4968 z" id="path4958" style="fill:#ffffff;stroke:none"/>
    <path d="M 39.1786,27.6823 C 39.1786,27.6823 38.5271,28.2219 38.1898,28.434 37.8542,28.6461 38.2989,29.2207 38.0519,29.5017 37.8049,29.7836 37.2402,29.7764 37.3208,30.155 37.4004,30.5335 37.7226,30.913 37.2018,31.2226 36.6809,31.5323 36.3677,32.1032 36.6281,32.4683 36.8903,32.8335 36.8259,33.1404 36.8259,33.1404" id="path4960" style="fill:none;stroke:#231f20;stroke-width:0.581699;stroke-linecap:butt;stroke-linejoin:miter;stroke-miterlimit:4;stroke-opacity:1;stroke-dasharray:none"/>
    <path d="M 35.7976,28.9092 C 35.7976,28.9092 36.5288,29.4006 36.5091,29.7594 36.4903,30.1183 35.9372,30.1577 35.8961,30.4118 35.8576,30.666 36.1332,30.5863 36.1135,30.8664 36.0939,31.1465 35.6142,31.3416 35.5802,31.6379 35.5453,31.9341 35.7583,32.3896 35.7583,32.3896" id="path4962" style="fill:none;stroke:#231f20;stroke-width:0.581699;stroke-linecap:butt;stroke-linejoin:miter;stroke-miterlimit:4;stroke-opacity:1;stroke-dasharray:none"/>
    <path d="M 31.3293,27.2277 C 31.3293,27.2277 31.4394,27.9866 31.3481,28.375 31.2577,28.7634 30.9248,29.1348 30.9328,29.482 30.94,29.8301 31.3015,30.0198 31.3481,30.3125 31.3955,30.606 31.1807,30.6481 31.2693,31.0839 31.357,31.5197 31.6908,31.4052 31.9405,31.8356 32.192,32.2661 31.7141,32.6205 32.0801,32.6071 32.4461,32.5927 32.6735,33.5959 32.6735,33.5959" id="path4964" style="fill:none;stroke:#231f20;stroke-width:0.581699;stroke-linecap:butt;stroke-linejoin:miter;stroke-miterlimit:4;stroke-opacity:1;stroke-dasharray:none"/>
    <path d="M 31.6837,33.536 C 30.7744,33.2004 30.7852,32.7744 30.4594,32.5471 30.131,32.3198 30.0299,32.4612 29.8643,32.1721 29.7005,31.8822 29.9162,31.3819 29.8061,31.0642 29.6961,30.7465 29.2915,30.8109 29.2915,30.4512 29.2915,30.0914 29.7068,29.8623 29.9636,29.5017 30.2232,29.1419 30.182,28.2559 30.182,28.2559" id="path4966" style="fill:none;stroke:#231f20;stroke-width:0.581699;stroke-linecap:butt;stroke-linejoin:miter;stroke-miterlimit:4;stroke-opacity:1;stroke-dasharray:none"/>
    <path d="M 33.7187,21.4094 C 33.9182,21.3548 34.1303,21.4649 34.1697,21.669 34.2503,21.8891 34.4015,21.9705 34.6396,21.9061 L 35.2239,21.7495 41.4526,19.9659 42.3672,19.7198 C 42.4648,19.693 42.6061,19.6634 42.7028,19.6581 42.7878,19.6536 42.8702,19.6625 42.9534,19.6724 43.5306,19.7386 44.0076,20.1592 44.1687,20.7615 44.3772,21.5473 43.9396,22.3473 43.1538,22.5558 L 35.9533,24.573 35.3949,24.7233 C 35.1255,24.8003 35.07,24.888 35.096,25.1207 35.1488,25.3211 35.0512,25.5126 34.8355,25.5717 34.619,25.6308 34.4382,25.5109 34.3854,25.3113 L 33.4583,21.8596 C 33.4234,21.6537 33.5182,21.4622 33.7187,21.4094 z" id="path5046" style="fill:#231f20;stroke:none"/>
    <path d="M 42.8934,20.0849 C 43.2961,20.1306 43.6398,20.4259 43.7597,20.8734 43.9136,21.4515 43.6174,22.0108 43.05,22.1612 L 42.6563,22.2668 34.2458,22.8538 34.1402,22.486 42.4719,20.1377 C 42.5471,20.1181 42.6992,20.0876 42.7341,20.0849 42.7717,20.0841 42.8066,20.0751 42.8934,20.0849 z" id="path5048" style="fill:#ffffff;stroke:none"/>
  </g>
  <rect width="51.25" height="51.25" x="-25.6255" y="38.0155" transform="matrix(0.707107,-0.707107,0.707107,0.707107,0,0)" id="rect6769" style="fill:none;stroke:#231f20;stroke-width:0.7"/>
  <path d="M 18.5,40.8438 C 17.7843,40.8438 17.2364,40.9759 16.8125,41.2188 16.3886,41.4616 16.0378,41.786 15.8125,42.2188 15.5871,42.6516 15.4412,43.176 15.375,43.7812 15.3088,44.3864 15.2812,45.0345 15.2812,45.75 15.2812,46.4654 15.3088,47.145 15.375,47.75 15.4412,48.3551 15.5871,48.8484 15.8125,49.2812 16.0378,49.7142 16.3886,50.0696 16.8125,50.3125 17.2364,50.5554 17.7843,50.6875 18.5,50.6875 19.127,50.6875 19.6382,50.5782 20.0312,50.375 20.4243,50.1717 20.7523,49.8802 20.9688,49.5312 21.1852,49.1824 21.3268,48.803 21.4062,48.3438 21.4858,47.8843 21.5312,47.3874 21.5312,46.875 L 19.5938,46.875 C 19.5937,47.3874 19.593,47.8115 19.5312,48.125 19.4693,48.4385 19.356,48.6715 19.25,48.8438 19.1441,49.0159 19.0207,49.1301 18.875,49.1875 18.7293,49.2449 18.5741,49.2812 18.4062,49.2812 18.203,49.2812 18.0295,49.2401 17.875,49.1562 17.7206,49.0724 17.6016,48.8991 17.5,48.6562 17.3983,48.4134 17.33,48.0667 17.2812,47.625 17.2327,47.1833 17.1875,46.6217 17.1875,45.9062 17.1875,45.2347 17.2146,44.6513 17.25,44.1875 17.2855,43.7237 17.3492,43.3495 17.4375,43.0625 17.5258,42.7756 17.6579,42.5657 17.8125,42.4375 17.9671,42.3093 18.1364,42.25 18.375,42.25 18.8077,42.25 19.1178,42.4051 19.2812,42.7188 19.4446,43.0324 19.5312,43.5297 19.5312,44.2188 L 21.4375,44.2188 C 21.4375,43.8743 21.4235,43.5182 21.375,43.125 21.3264,42.7318 21.1944,42.3401 21,42 20.8057,41.66 20.518,41.4083 20.125,41.1875 19.7319,40.9667 19.1801,40.8438 18.5,40.8438 z M 25.625,40.8438 C 24.9093,40.8438 24.3301,40.9759 23.9062,41.2188 23.4823,41.4616 23.1628,41.786 22.9375,42.2188 22.7121,42.6516 22.5662,43.176 22.5,43.7812 22.4338,44.3864 22.4062,45.0345 22.4062,45.75 22.4062,46.4654 22.4338,47.145 22.5,47.75 22.5662,48.3551 22.7121,48.8484 22.9375,49.2812 23.1628,49.7142 23.4823,50.0696 23.9062,50.3125 24.3301,50.5554 24.9093,50.6875 25.625,50.6875 26.3404,50.6875 26.9199,50.5554 27.3438,50.3125 27.7676,50.0696 28.0872,49.7142 28.3125,49.2812 28.5379,48.8484 28.6838,48.3551 28.75,47.75 28.8162,47.145 28.8438,46.4654 28.8438,45.75 28.8438,45.0345 28.8162,44.3864 28.75,43.7812 28.6838,43.176 28.5379,42.6516 28.3125,42.2188 28.0872,41.786 27.7676,41.4616 27.3438,41.2188 26.9199,40.9759 26.3404,40.8438 25.625,40.8438 z M 47.75,40.8438 C 47.0343,40.8438 46.4552,40.9759 46.0312,41.2188 45.6074,41.4616 45.2879,41.786 45.0625,42.2188 44.8372,42.6516 44.6912,43.176 44.625,43.7812 44.5589,44.3864 44.5312,45.0345 44.5312,45.75 44.5312,46.4654 44.5589,47.145 44.625,47.75 44.6912,48.3551 44.8372,48.8484 45.0625,49.2812 45.2879,49.7142 45.6074,50.0696 46.0312,50.3125 46.4552,50.5554 47.0343,50.6875 47.75,50.6875 48.4654,50.6875 49.0448,50.5554 49.4688,50.3125 49.8927,50.0696 50.2121,49.7142 50.4375,49.2812 50.6628,48.8484 50.8088,48.3551 50.875,47.75 50.9412,47.145 50.9688,46.4654 50.9688,45.75 50.9688,45.0345 50.9412,44.3864 50.875,43.7812 50.8088,43.176 50.6628,42.6516 50.4375,42.2188 50.2121,41.786 49.8927,41.4616 49.4688,41.2188 49.0448,40.9759 48.4654,40.8438 47.75,40.8438 z M 54.7812,40.8438 C 53.8715,40.8438 53.1773,41.072 52.6562,41.5312 52.1351,41.9907 51.875,42.6888 51.875,43.625 51.875,44.0137 51.903,44.3605 52,44.6562 52.097,44.9522 52.2611,45.2121 52.4688,45.4375 52.6765,45.6628 52.9409,45.8635 53.25,46.0312 53.559,46.199 53.9198,46.3588 54.3438,46.5 54.6619,46.606 54.9398,46.7109 55.1562,46.8125 55.3725,46.9141 55.5237,47.0014 55.6562,47.125 55.7889,47.2486 55.9115,47.4079 55.9688,47.5625 56.026,47.7171 56.0312,47.8816 56.0312,48.0938 56.0312,48.4911 55.9215,48.8101 55.6875,49 55.4535,49.19 55.1979,49.2812 54.9062,49.2812 54.6501,49.2812 54.4402,49.2268 54.2812,49.1562 54.1223,49.0855 54.0035,48.9986 53.9062,48.875 53.8091,48.7514 53.723,48.5874 53.6875,48.4062 53.6521,48.2251 53.6562,48.0333 53.6562,47.8125 L 53.6562,47.5312 51.75,47.5312 51.75,47.9062 C 51.75,48.7807 51.9737,49.456 52.4375,49.9375 52.9013,50.4189 53.6725,50.6875 54.75,50.6875 55.7835,50.6875 56.5775,50.437 57.1562,49.9688 57.7348,49.5005 58.0312,48.7792 58.0312,47.7812 58.0312,47.4896 57.9906,47.2072 57.9375,46.9688 57.8844,46.7303 57.7931,46.5114 57.6562,46.3125 57.5194,46.1137 57.3279,45.9223 57.0938,45.75 56.8597,45.5778 56.5722,45.4402 56.2188,45.2812 L 54.75,44.625 C 54.3437,44.4571 54.0924,44.2925 53.9688,44.0938 53.8451,43.895 53.7812,43.6352 53.7812,43.3438 53.7812,43.2025 53.7815,43.07 53.8125,42.9375 53.8435,42.805 53.9162,42.6954 54,42.5938 54.0839,42.4922 54.2024,42.4056 54.3438,42.3438 54.4852,42.2819 54.6631,42.25 54.875,42.25 55.2459,42.25 55.4972,42.3819 55.6562,42.625 55.8153,42.868 55.9062,43.2058 55.9062,43.6562 L 57.7188,43.6562 57.7188,43.375 C 57.7188,42.9246 57.6457,42.5411 57.5,42.2188 57.3543,41.8963 57.1669,41.6451 56.9062,41.4375 56.6456,41.23 56.3265,41.0615 55.9688,40.9688 55.611,40.876 55.2052,40.8438 54.7812,40.8438 z M 29.9688,41.0312 29.9688,50.5 31.875,50.5 31.875,46.5 32.9062,46.5 C 33.3038,46.5 33.5822,46.6004 33.75,46.8125 33.9178,47.0245 34.0138,47.3166 34.0312,47.6875 L 34.0938,49.5 C 34.1026,49.6858 34.1297,49.8591 34.1562,50.0312 34.1828,50.2034 34.2154,50.3673 34.3125,50.5 L 36.4062,50.5 36.4062,50.4062 C 36.2298,50.3092 36.1112,50.14 36.0625,49.875 36.0138,49.6101 35.9773,49.2224 35.9688,48.7188 35.9598,48.2153 35.9459,47.782 35.9062,47.4375 35.8665,47.093 35.7936,46.819 35.6875,46.5938 35.5815,46.3686 35.413,46.1817 35.2188,46.0625 35.0245,45.9434 34.7644,45.8567 34.4375,45.8125 34.9763,45.6977 35.3688,45.4333 35.625,45.0312 35.8812,44.6294 36.0311,44.1046 36.0312,43.4688 36.0311,42.6474 35.8167,42.0269 35.375,41.625 34.9333,41.2231 34.295,41.0312 33.5,41.0312 L 29.9688,41.0312 z M 37.3438,41.0312 37.3438,50.5 39.25,50.5 39.25,46.5 40.2812,46.5 C 40.6789,46.5 40.9572,46.6004 41.125,46.8125 41.2928,47.0245 41.3888,47.3166 41.4062,47.6875 L 41.4688,49.5 C 41.4776,49.6858 41.5046,49.8591 41.5312,50.0312 41.5577,50.2034 41.5904,50.3673 41.6875,50.5 L 43.7812,50.5 43.7812,50.4062 C 43.6047,50.3092 43.4861,50.14 43.4375,49.875 43.3888,49.6101 43.3524,49.2224 43.3438,48.7188 43.3349,48.2153 43.321,47.782 43.2812,47.4375 43.2415,47.093 43.1686,46.819 43.0625,46.5938 42.9564,46.3686 42.788,46.1817 42.5938,46.0625 42.3995,45.9434 42.1395,45.8567 41.8125,45.8125 42.3514,45.6977 42.7438,45.4333 43,45.0312 43.2562,44.6294 43.4062,44.1046 43.4062,43.4688 43.4062,42.6474 43.1917,42.0269 42.75,41.625 42.3083,41.2231 41.67,41.0312 40.875,41.0312 L 37.3438,41.0312 z M 59.0938,41.0312 59.0938,50.5 61,50.5 61,41.0312 59.0938,41.0312 z M 61.7812,41.0312 63.9688,50.5 66.4062,50.5 68.5938,41.0312 66.5938,41.0312 65.1875,48.0312 65.1562,48.0312 63.8125,41.0312 61.7812,41.0312 z M 69.2812,41.0312 69.2812,50.5 74.7188,50.5 74.7188,48.9375 71.1875,48.9375 71.1875,46.375 74.375,46.375 74.375,44.8125 71.1875,44.8125 71.1875,42.5938 74.5625,42.5938 74.5625,41.0312 69.2812,41.0312 z M 25.625,42.25 C 25.9075,42.25 26.1402,42.3093 26.3125,42.4375 26.4847,42.5657 26.626,42.7799 26.7188,43.0625 26.8116,43.3452 26.8753,43.7146 26.9062,44.1562 26.9372,44.598 26.9375,45.1141 26.9375,45.75 26.9375,46.3859 26.9372,46.9288 26.9062,47.375 26.8753,47.8211 26.8116,48.1906 26.7188,48.4688 26.626,48.7469 26.4847,48.9345 26.3125,49.0625 26.1402,49.1906 25.9075,49.2812 25.625,49.2812 25.3422,49.2812 25.1098,49.1906 24.9375,49.0625 24.7653,48.9345 24.624,48.7469 24.5312,48.4688 24.4385,48.1906 24.406,47.8211 24.375,47.375 24.344,46.9288 24.3125,46.3859 24.3125,45.75 24.3125,45.1141 24.344,44.598 24.375,44.1562 24.406,43.7146 24.4385,43.3452 24.5312,43.0625 24.624,42.7799 24.7653,42.5657 24.9375,42.4375 25.1098,42.3093 25.3422,42.25 25.625,42.25 z M 47.75,42.25 C 48.0325,42.25 48.2653,42.3093 48.4375,42.4375 48.6098,42.5657 48.751,42.7799 48.8438,43.0625 48.9364,43.3452 49.0003,43.7146 49.0312,44.1562 49.0623,44.598 49.0625,45.1141 49.0625,45.75 49.0625,46.3859 49.0623,46.9288 49.0312,47.375 49.0003,47.8211 48.9364,48.1906 48.8438,48.4688 48.751,48.7469 48.6098,48.9345 48.4375,49.0625 48.2653,49.1906 48.0325,49.2812 47.75,49.2812 47.4672,49.2812 47.2348,49.1906 47.0625,49.0625 46.8903,48.9345 46.7803,48.7469 46.6875,48.4688 46.5948,48.1906 46.531,47.8211 46.5,47.375 46.469,46.9288 46.4375,46.3859 46.4375,45.75 46.4375,45.1141 46.469,44.598 46.5,44.1562 46.531,43.7146 46.5948,43.3452 46.6875,43.0625 46.7803,42.7799 46.8903,42.5657 47.0625,42.4375 47.2348,42.3093 47.4672,42.25 47.75,42.25 z M 31.875,42.4375 32.7812,42.4375 C 33.6647,42.4375 34.125,42.8755 34.125,43.75 34.125,44.2624 33.9973,44.6275 33.75,44.8438 33.5027,45.0602 33.1468,45.1564 32.6875,45.1562 L 31.875,45.1562 31.875,42.4375 z M 39.25,42.4375 40.1562,42.4375 C 41.0396,42.4375 41.5,42.8755 41.5,43.75 41.5,44.2624 41.3723,44.6275 41.125,44.8438 40.8776,45.0602 40.5218,45.1564 40.0625,45.1562 L 39.25,45.1562 39.25,42.4375 z" id="path3040" style="fill:#ffffff;stroke:none;"/>
</svg>