<?xml version="1.0" encoding="UTF-8" standalone="no"?>
<!-- Created with Inkscape (http://www.inkscape.org/) -->
<svg xmlns:svg="http://www.w3.org/2000/svg" xmlns="http://www.w3.org/2000/svg" version="1.0" width="800" height="800" id="svg2">
  <defs id="defs4"/>
  <g transform="translate(-3.9999869,185.92354)" id="layer1">
    <rect width="564.77502" height="564.77502" x="154.60744" y="-416.30438" transform="matrix(0.7071068,0.7071068,-0.7071068,0.7071068,0,0)" style="opacity:1;fill:#0060af;fill-opacity:1;stroke:none;stroke-width:1.00000012;stroke-linecap:round;stroke-linejoin:miter;stroke-miterlimit:4;stroke-dasharray:none;stroke-opacity:1" id="rect2221"/>
    <text x="180.23392" y="272.32211" transform="scale(0.9119241,1.0965825)" style="font-size:57.86107254px;font-style:normal;font-weight:bold;fill:#ffffff;fill-opacity:1;stroke:none;stroke-width:1px;stroke-linecap:butt;stroke-linejoin:miter;stroke-opacity:1;font-family:DejaVu Sans" id="text3194" xml:space="preserve"><tspan x="180.23392" y="272.32211" id="tspan3196">DANGEROUS</tspan></text>
    <text x="693.73077" y="212.96324" transform="scale(0.7892035,1.2671003)" style="font-size:24.64246941px;font-style:normal;font-weight:bold;fill:#ffffff;fill-opacity:1;stroke:none;stroke-width:1px;stroke-linecap:butt;stroke-linejoin:miter;stroke-opacity:1;font-family:DejaVu Sans" id="text3198" xml:space="preserve"><tspan x="693.73077" y="212.96324" id="tspan3202">WHEN</tspan></text>
    <text x="693.73077" y="232.69333" transform="scale(0.7892035,1.2671003)" style="font-size:24.64246941px;font-style:normal;font-weight:bold;fill:#ffffff;fill-opacity:1;stroke:none;stroke-width:1px;stroke-linecap:butt;stroke-linejoin:miter;stroke-opacity:1;font-family:DejaVu Sans" id="text3206" xml:space="preserve"><tspan x="693.73077" y="232.69333" id="tspan3208">WET</tspan></text>
    <text x="419.51544" y="470.63809" transform="scale(0.9085589,1.1006441)" style="font-size:89.93000793px;font-style:normal;font-weight:bold;fill:#ffffff;fill-opacity:1;stroke:none;stroke-width:1px;stroke-linecap:butt;stroke-linejoin:miter;stroke-opacity:1;font-family:Arial" id="text3210" xml:space="preserve"><tspan x="419.51544" y="470.63809" id="tspan3212">4</tspan></text>
    <rect width="180.71428" height="15.714286" x="307.85715" y="379.28571" transform="translate(3.9999869,-185.92354)" style="opacity:1;fill:#ffffff;fill-opacity:1;stroke:none;stroke-width:1;stroke-linecap:round;stroke-linejoin:miter;stroke-miterlimit:4;stroke-dasharray:none;stroke-opacity:1" id="rect3214"/>
    <path d="M 423.19642,174.96932 C 507.56733,155.44262 522.89143,84.34268 512.21427,57.64789 C 508.27892,83.94733 494.72163,87.78121 485.07142,94.79074 C 495.10102,73.10928 506.08515,49.70054 508.99999,31.9336 C 509.3003,24.98975 505.83961,17.21013 497.57142,8.36217 C 496.47982,34.17226 481.63778,48.40302 462.57142,59.07646 C 481.83926,2.90386 472.26258,-24.42423 446.85713,-35.92354 C 454.91707,-14.75456 451.81181,4.32094 444.71428,22.64789 C 441.45406,29.33472 432.27266,24.02933 434.71428,16.9336 C 446.23703,-12.3189 438.31802,-35.16176 423.99999,-58.42354 C 411.26512,-74.1138 415.4636,-90.413267 416.14285,-105.20925 C 385.03634,-74.43795 404.11116,-40.08227 410.42856,-6.63783 C 398.04761,-17.61905 385.66665,-31.31312 373.2857,-35.20925 C 364.44235,-36.30157 364.54525,-42.36403 363.99999,-48.0664 C 363.32852,-50.68235 358.17374,-51.5272 357.74999,-45.5664 C 356.91982,-35.12201 363.42708,-29.39453 368.99999,-23.0664 C 384.84344,-4.79966 367.80726,19.3423 367.57142,41.9336 C 356.92939,30.59861 346.05523,19.72789 333.99999,11.21932 C 335.49103,16.29446 337.07019,21.39163 340.42856,26.9336 C 345.03239,37.85659 343.36365,45.25126 340.42856,51.9336 C 337.9469,58.9391 339.34135,73.23189 332.57142,83.36217 C 323.47224,69.92604 312.55084,60.81302 299.71428,55.50503 C 303.6584,62.70275 309.45321,68.53276 310.33928,77.73718 C 315.60684,126.24211 335.19998,176.16829 394.71428,173.36217 C 365.95884,155.82754 355.56847,134.6199 345.42856,113.36217 C 346.85713,107.17169 359.71427,113.36217 366.85713,116.9336 C 365.03145,106.40056 361.02517,94.62146 365.42856,87.64789 C 368.2857,81.35433 372.92856,83.25392 373.99999,87.64789 C 377.22019,104.40176 382.70054,118.73403 392.57142,128.36217 C 385.30988,111.97316 384.9103,93.29683 386.14285,74.07646 C 386.21841,66.80643 397.06195,50.54636 398.2857,74.07646 C 399.54227,87.15696 413.66199,99.30921 413.2857,76.9336 C 413.14624,66.66335 411.3199,56.50153 407.21428,49.43361 C 403.3123,41.61907 411.48136,24.73106 421.85713,49.96932 C 426.36549,64.70411 431.28513,79.51507 423.2857,91.9336 C 421.23005,98.8259 420.5813,105.51722 421.85713,111.9336 L 431.14285,101.9336 C 441.04427,89.91323 442.0505,102.0507 441.14285,106.21932 C 439.77442,112.88599 436.50909,119.55265 433.2857,126.21932 C 440.7662,121.88177 448.80244,108.75342 457.57142,101.21932 C 461.47658,131.74592 442.8033,154.78802 423.19642,174.96932 z M 420.07142,-22.35211 C 419.79199,-13.08305 421.01302,-2.63042 414.35713,8.00503 C 409.90814,17.45402 413.59705,20.01511 416.49999,20.86217 C 421.96053,22.34136 427.17248,23.00375 429.35713,13.71932 C 430.13382,0.67055 428.73301,-13.07865 420.07142,-22.35211 z " style="fill:#ffffff;fill-opacity:1;stroke:none;stroke-width:1;stroke-linecap:round;stroke-linejoin:miter;stroke-miterlimit:4;stroke-opacity:1" id="path3216"/>
    <rect width="495.49295" height="495.49295" x="189.2485" y="-381.66333" transform="matrix(0.7071068,0.7071068,-0.7071068,0.7071068,0,0)" style="opacity:1;fill:none;fill-opacity:1;stroke:#ffffff;stroke-width:5;stroke-linecap:round;stroke-linejoin:miter;stroke-miterlimit:4;stroke-dasharray:none;stroke-opacity:1" id="rect3225"/>
  </g>
</svg>