<?xml version="1.0" encoding="UTF-8" standalone="no"?>
<!-- Created with Inkscape (http://www.inkscape.org/) -->
<svg xmlns:dc="http://purl.org/dc/elements/1.1/" xmlns:cc="http://creativecommons.org/ns#" xmlns:rdf="http://www.w3.org/1999/02/22-rdf-syntax-ns#" xmlns:svg="http://www.w3.org/2000/svg" xmlns="http://www.w3.org/2000/svg" version="1.1" width="243pt" height="243pt" viewBox="0 0 243 243" id="svg2">
  <metadata id="metadata71">
    <rdf:RDF>
      <cc:Work rdf:about="">
        <dc:format>image/svg+xml</dc:format>
        <dc:type rdf:resource="http://purl.org/dc/dcmitype/StillImage"/>
        <dc:title/>
      </cc:Work>
    </rdf:RDF>
  </metadata>
  <defs id="defs4">
    <clipPath id="Clip0">
      <path d="m 0,0 0,242.905 242.905,0 L 242.905,0 0,0 z" transform="translate(0,0.0947266)" id="path7"/>
    </clipPath>
    <clipPath id="Clip1">
      <path d="m 243,0 0,242.905 -243,0 L 0,0 243,0 z" transform="translate(0,0.0947266)" id="path10"/>
    </clipPath>
  </defs>
  <g clip-path="url(#Clip0)" id="Group1">
    <g clip-path="url(#Clip1)" id="Group2">
      <path d="M 238.666,119.33 119.33,0 0,119.33 119.33,238.666 238.666,119.33" transform="translate(2.12012,2.21484)" id="path15" style="fill:#dc3038;fill-rule:nonzero;stroke:#161413;stroke-width:2.99817991;stroke-linecap:butt;stroke-linejoin:miter;stroke-dasharray:none"/>
      <path d="M 209.356,104.679 104.678,0 0,104.679 104.678,209.363 209.356,104.679 z" transform="translate(16.7715,16.8662)" id="path17" style="fill:none;stroke:#ffffff;stroke-width:5.61258984;stroke-linecap:butt;stroke-linejoin:round;stroke-dasharray:none"/>
      <path d="m 150.168,117.574 -56.0455,0 0,3.122 56.0455,0 0,-3.122" id="path19" style="fill:#ffffff;fill-rule:nonzero;stroke:none"/>
      <g transform="translate(0.84852816,0)" id="g3106">
        <path d="m 42.3433,86.0516 c 5.938,-1.523 25.584,-5.024 25.28,-33.9637 -1.072,2.2832 -3.813,7.7647 -5.03,9.5918 -1.218,1.833 -5.482,0.919 -3.35,-2.5888 2.132,-3.501 6.4,-13.5499 5.024,-19.9502 -1.371,-3.502 -2.435,-4.2627 -2.74,-0.1524 -0.305,4.1104 -5.025,11.4248 -10.353,12.9473 0.609,-2.4365 3.806,-17.5147 -0.305,-25.2852 -3.197,-4.416 -3.502,-2.5888 -3.502,0.1524 0,2.7402 1.219,10.3584 -2.588,13.708 -1.833,2.2842 -3.355,2.1318 -2.594,-1.8272 0.761,-3.958 0.158,-17.0576 -5.634,-23.7568 -1.827,-1.833 -3.501,-5.791 -3.501,-8.3799 0,-3.0566 -1.529,-6.5469 -2.899,-2.4355 -0.878,2.6523 -1.37,8.5312 2.131,15.3828 3.508,6.8515 1.833,7.6123 1.225,11.5713 -1.986,-1.9795 -14.318,-11.419 -15.384,-12.4844 -1.066,-1.0664 -2.588,0 -1.218,1.5224 1.371,1.5225 9.896,7.917 7.156,14.4698 -2.74,6.5468 -2.893,8.6777 -3.197,11.2666 -1.066,-2.8936 -6.243,-7.7647 -7.7656,-9.1358 -1.5215,-1.3701 -3.3496,-0.6084 -1.3702,1.5225 2.1319,2.7412 3.6548,7.0098 1.8282,10.8164 -1.8282,3.8057 -1.3711,5.0244 -1.5235,6.5469 -0.1513,1.5224 -2.1308,2.4355 -2.8925,0.6084 C 8.3789,54.3711 7.0088,52.2403 3.502,50.4131 0,48.586 1.3701,51.6309 3.1973,53.1534 c 2.2891,2.1318 3.3486,9.75 3.3486,13.5566 0,3.8057 8.9894,19.9506 24.9754,20.2556 -1.669,-0.761 -5.633,-3.046 -6.699,-5.33 -1.065,-2.283 -2.131,-6.552 -7.612,-9.9012 -5.4818,-3.3496 -4.5794,-5.8682 -1.523,-5.6338 1.98,0.1524 3.502,0.3047 5.025,1.9795 1.522,1.6748 1.217,1.5225 1.066,-0.6094 -0.153,-2.1308 -1.371,-5.3281 -1.371,-7.1611 0,-1.8271 2.161,-4.4805 3.502,-0.457 1.37,4.1103 3.806,10.6103 5.639,12.0332 1.364,1.0664 1.827,-0.3037 1.212,-1.5225 -0.609,-1.2178 -4.263,-11.2724 -2.893,-16.2959 1.371,-5.0244 3.045,-3.8066 3.35,-1.0664 0.304,2.7412 0.457,4.2637 1.528,6.0899 1.066,1.8271 3.045,3.0517 3.35,0.457 0.304,-2.5879 -0.152,-6.0899 -1.371,-10.0488 -1.217,-3.9581 -1.37,-3.8116 -1.217,-6.0957 0.152,-2.2833 1.674,-2.7403 4.415,1.5224 2.74,4.2695 5.182,11.1201 1.224,20.8701 -1.224,2.5889 0.603,2.2842 1.675,0.7617 1.065,-1.5224 1.217,-1.5224 2.588,-3.0449 1.37,-1.5283 2.892,0.1524 2.132,2.8926 -0.762,2.7402 -1.219,1.5225 -1.676,3.3496 -0.456,1.8272 1.371,2.2832 2.436,0.6084 1.066,-1.6748 1.98,-2.7402 2.742,-5.0234 0.76,-2.2842 1.978,-2.9229 1.978,1.5224 0,3.8057 0.61,11.5703 -8.678,19.1893" transform="translate(85.9697,26.4404)" id="path21" style="fill:#ffffff;fill-rule:nonzero;stroke:none"/>
        <path d="m 0.152,8.9893 c 0.152,2.7402 1.066,4.2627 3.045,4.2627 1.985,0 2.442,-2.2842 2.442,-4.1104 0,-1.8271 -0.31,-4.872 -1.68,-7.0039 C 2.589,0 2.131,1.0723 1.675,2.8985 1.218,4.7256 0,6.8575 0.152,8.9893" transform="translate(120.39,55.2861)" id="path23" style="fill:#dc3038;fill-rule:nonzero;stroke:none"/>
      </g>
      <g transform="translate(1.2727923,0)" id="g3110">
        <path d="M 0,20.889 0,0 l 7.1905,0 0,3.062 -4.6543,0 0,5.295 4.3623,0 0,3.063 -4.3623,0 0,9.469 -2.5362,0" transform="translate(46.7529,126.598)" id="path25" style="fill:#ffffff;fill-rule:nonzero;stroke:none"/>
        <path d="M 0,20.889 0,0 l 2.5361,0 0,17.826 4.7081,0 0,3.063 -7.2442,0" transform="translate(55.7119,126.598)" id="path27" style="fill:#ffffff;fill-rule:nonzero;stroke:none"/>
        <path d="M 0,20.889 3.2393,0 l 3.4258,0 3.0742,20.889 -2.711,0 -0.6748,-5.288 -2.9677,0 -0.668,5.288 -2.7178,0" transform="translate(63.6992,126.598)" id="path29" style="fill:#ffffff;fill-rule:nonzero;stroke:none"/>
        <path d="m 0,10.219 2.167,0 L 1.4873,4.287 C 1.3584,3.315 1.2998,2.367 1.2305,1.394 1.2119,0.919 1.1709,0.446 1.1367,0 L 1.1016,0 C 1.0655,0.446 1.0313,0.919 1.0127,1.394 0.9365,2.367 0.8906,3.315 0.7617,4.287 L 0,10.219" transform="translate(67.4824,128.911)" id="path31" style="fill:#dc3038;fill-rule:nonzero;stroke:none"/>
        <path d="M 2.5362,20.889 0,20.889 0,0 4.041,0 5.3994,9.691 c 0.2168,1.588 0.3633,3.203 0.4688,4.821 l 0.041,0 C 6.0322,12.45 6.1201,11.057 6.3076,9.691 L 7.666,0 l 4.0166,0 0,20.889 -2.541,0 0,-6.571 c 0,-4.152 0.0586,-8.303 0.2227,-12.449 l -0.0352,0 -2.7178,19.02 -1.539,0 -2.6651,-19.02 -0.0878,0 c 0.164,4.146 0.2168,8.297 0.2168,12.449 l 0,6.571" transform="translate(74.8076,126.598)" id="path33" style="fill:#ffffff;fill-rule:nonzero;stroke:none"/>
        <path d="M 2.5352,20.889 0,20.889 0,0 4.04,0 5.3984,9.691 c 0.212,1.588 0.3633,3.203 0.4698,4.821 l 0.0341,0 C 6.0313,12.45 6.1191,11.057 6.3008,9.691 L 7.6592,0 l 4.0172,0 0,20.889 -2.5289,0 0,-6.571 c 0,-4.152 0.0459,-8.303 0.2099,-12.449 l -0.0351,0 -2.7168,19.02 -1.5342,0 -2.665,-19.02 -0.0879,0 c 0.164,4.146 0.2168,8.297 0.2168,12.449 l 0,6.571" transform="translate(88.8916,126.598)" id="path35" style="fill:#ffffff;fill-rule:nonzero;stroke:none"/>
        <path d="M 0,20.889 3.232,0 l 3.425,0 3.075,20.889 -2.711,0 -0.674,-5.288 -2.962,0 -0.674,5.288 -2.711,0" transform="translate(101.927,126.598)" id="path37" style="fill:#ffffff;fill-rule:nonzero;stroke:none"/>
        <path d="m 0,10.219 2.167,0 L 1.482,4.287 C 1.353,3.315 1.3,2.367 1.23,1.394 1.207,0.919 1.172,0.446 1.137,0 L 1.102,0 C 1.066,0.446 1.031,0.919 1.008,1.394 0.937,2.367 0.885,3.315 0.762,4.287 L 0,10.219" transform="translate(105.709,128.911)" id="path39" style="fill:#dc3038;fill-rule:nonzero;stroke:none"/>
        <path d="M 0,20.889 0,0 4.093,0 c 1.084,0 2.155,0.111 2.875,1.529 0.58,1.142 0.674,2.342 0.674,3.766 0,1.808 -0.258,3.589 -1.628,4.367 l 0,0.059 c 1.429,0.304 1.967,2.144 1.967,4.849 0,0.861 -0.035,1.721 -0.175,2.559 -0.551,2.646 -1.523,3.76 -3.338,3.76 l -4.468,0" transform="translate(113,126.598)" id="path41" style="fill:#ffffff;fill-rule:nonzero;stroke:none"/>
        <path d="M 0.538,6.324 C 1.065,6.324 1.61,6.406 2.061,6.101 2.752,5.627 2.845,4.263 2.845,3.203 2.845,0.948 2.553,0 0.972,0 L 0,0 l 0,6.324 0.538,0" transform="translate(115.536,138.1)" id="path43" style="fill:#dc3038;fill-rule:nonzero;stroke:none"/>
        <path d="m 0.468,5.377 c 0.615,0 1.417,0.059 1.815,-0.726 C 2.518,4.123 2.553,3.397 2.553,2.396 2.553,0.838 2.33,0.059 1.171,0 L 0,0 l 0,5.377 0.468,0" transform="translate(115.536,129.66)" id="path45" style="fill:#dc3038;fill-rule:nonzero;stroke:none"/>
        <path d="M 0,20.889 0,0 l 2.541,0 0,17.826 4.702,0 0,3.063 -7.243,0" transform="translate(123.113,126.598)" id="path47" style="fill:#ffffff;fill-rule:nonzero;stroke:none"/>
        <path d="M 0,20.889 0,0 l 7.132,0 0,3.062 -4.596,0 0,5.266 4.233,0 0,3.063 -4.233,0 0,6.435 4.596,0 0,3.063 -7.132,0" transform="translate(132.096,126.598)" id="path49" style="fill:#ffffff;fill-rule:nonzero;stroke:none"/>
        <path d="M 0,20.889 0,0 l 2.536,0 0,17.826 4.708,0 0,3.063 -7.244,0" transform="translate(145.745,126.598)" id="path51" style="fill:#ffffff;fill-rule:nonzero;stroke:none"/>
        <path d="m 0,0 2.531,0 0,20.889 L 0,20.889 0,0" transform="translate(154.816,126.598)" id="path53" style="fill:#ffffff;fill-rule:nonzero;stroke:none"/>
        <path d="M 8.234,23.37 6.828,21.251 C 6.207,21.726 5.481,21.896 4.439,21.896 0.27,21.896 0,17.825 0,12.257 L 0,9.275 C 0.106,3.958 0.381,0 4.439,0 8.49,0 8.76,3.958 8.871,9.275 l 0,2.982 c 0,2.676 -0.088,5.515 -0.743,7.132 l 1.394,2.143 -1.288,1.838" transform="translate(159.7,126.095)" id="path55" style="fill:#ffffff;fill-rule:nonzero;stroke:none"/>
        <path d="m 3.526,12.948 0.129,0.199 c 0.094,-0.645 0.14,-1.423 0.14,-2.091 L 3.819,5.265 C 3.819,3.648 3.983,0 1.992,0 0,0 0.159,3.648 0.159,5.265 l 0,5.791 c 0,1.728 0.088,4.539 1.833,4.539 0.246,0 0.468,-0.053 0.644,-0.135 L 2.15,14.734 3.526,12.948" transform="translate(162.147,129.245)" id="path57" style="fill:#dc3038;fill-rule:nonzero;stroke:none"/>
        <path d="m 6.078,0 2.542,0 0,14.564 c 0,4.625 -0.984,6.829 -4.299,6.829 C 0.977,21.393 0,19.189 0,14.564 L 0,0 l 2.53,0 0,14.23 c 0,2.008 0.094,4.012 1.814,4.012 1.646,0 1.734,-2.004 1.734,-4.012 L 6.078,0" transform="translate(170.885,126.598)" id="path59" style="fill:#ffffff;fill-rule:nonzero;stroke:none"/>
        <path d="m 0,0 2.535,0 0,20.889 L 0,20.889 0,0" transform="translate(181.958,126.598)" id="path61" style="fill:#ffffff;fill-rule:nonzero;stroke:none"/>
        <path d="M 0,20.889 0,0 5.282,0 c 0.621,0 1.85,0.416 2.623,2.366 0.586,1.446 0.75,3.76 0.75,7.214 0,4.123 0,8.89 -2.085,10.752 -0.562,0.504 -1.253,0.557 -1.886,0.557 l -4.684,0" transform="translate(187.047,126.598)" id="path63" style="fill:#ffffff;fill-rule:nonzero;stroke:none"/>
        <path d="m 1.106,14.764 c 2.267,0 2.407,-1.84 2.407,-7.883 C 3.513,1.952 3.186,0 1.668,0 L 0,0 l 0,14.764 1.106,0" transform="translate(189.577,129.66)" id="path65" style="fill:#dc3038;fill-rule:nonzero;stroke:none"/>
      </g>
      <path d="m 120.47675,211.016 0.364,0 c 0.679,0 1.932,-0.065 1.932,-1.558 0,-0.426 -0.199,-1.481 -1.452,-1.481 -1.558,0 -1.558,1.481 -1.558,1.886 l -2.108,0 c 0,-2.162 1.218,-3.707 3.818,-3.707 1.54,0 3.572,0.784 3.572,3.22 0,1.165 -0.732,1.898 -1.382,2.191 l 0,0.035 c 0.41,0.111 1.739,0.715 1.739,2.681 0,2.172 -1.61,3.719 -3.929,3.719 -1.089,0 -4.017,-0.246 -4.017,-3.853 l 2.225,0 -0.012,0.017 c 0,0.621 0.164,2.015 1.687,2.015 0.913,0 1.71,-0.614 1.71,-1.898 0,-1.581 -1.534,-1.645 -2.589,-1.645 l 0,-1.622" id="path67" style="fill:#ffffff;fill-rule:nonzero;stroke:none"/>
    </g>
  </g>
</svg>