<?xml version="1.0" encoding="UTF-8" standalone="no"?>
<!-- Created with Inkscape (http://www.inkscape.org/) -->
<svg xmlns:dc="http://purl.org/dc/elements/1.1/" xmlns:cc="http://creativecommons.org/ns#" xmlns:rdf="http://www.w3.org/1999/02/22-rdf-syntax-ns#" xmlns:svg="http://www.w3.org/2000/svg" xmlns="http://www.w3.org/2000/svg" version="1.1" width="90" height="90" id="svg6792">
  <defs id="defs6794"/>
  <rect width="60" height="60" rx="0" ry="0" x="33.6395" y="-30" transform="matrix(0.707107,0.707107,-0.707107,0.707107,0,0)" id="rect6763" style="fill:#008066;stroke:#ffffff;stroke-width:0.7"/>
  <rect width="51.25" height="51.25" x="-25.6255" y="38.0155" transform="matrix(0.707107,-0.707107,0.707107,0.707107,0,0)" id="rect6769" style="fill:none;stroke:#ffffff;stroke-width:0.7"/>
  <path d="M 47.6453,72.5981 47.6453,74 42.3547,74 C 42.412,73.4701 42.5839,72.9679 42.8704,72.4934 43.1568,72.019 43.7226,71.3897 44.5676,70.6055 45.248,69.9717 45.6651,69.542 45.8191,69.3164 46.0268,69.0049 46.1306,68.6969 46.1306,68.3926 46.1306,68.056 46.0402,67.7973 45.8594,67.6165 45.6785,67.4356 45.4288,67.3452 45.1101,67.3452 44.795,67.3452 44.5443,67.4401 44.3582,67.6299 44.172,67.8197 44.0645,68.1348 44.0359,68.5752 L 42.532,68.4248 C 42.6215,67.5941 42.9026,66.9979 43.3752,66.6362 43.8479,66.2746 44.4387,66.0938 45.1477,66.0938 45.9247,66.0938 46.5352,66.3032 46.9792,66.7222 47.4233,67.1411 47.6453,67.6621 47.6453,68.2852 47.6453,68.6397 47.5817,68.9771 47.4546,69.2976 47.3275,69.6181 47.1261,69.9538 46.8503,70.3047 46.6677,70.5374 46.3383,70.8722 45.8621,71.3091 45.3858,71.7459 45.0841,72.036 44.957,72.1792 44.8299,72.3224 44.727,72.4621 44.6482,72.5981 z" id="path3113" style="fill:#ffffff;stroke:none;"/>
  <path d="M 27.6838,31.198 C 27.6838,31.198 27.0472,29.684 29.5928,29.154 32.1404,28.623 50.398,24.828 50.398,24.828 50.398,24.828 52.2036,24.191 53.3726,24.723 54.5384,25.252 54.3265,25.359 55.602,25.042 56.8742,24.723 57.4034,24.615 57.4034,24.615 57.4034,24.615 58.6841,24.309 58.8917,25.145 59.2111,26.445 57.9357,26.445 57.9357,26.445 L 55.9192,26.949 C 55.9192,26.949 54.5384,27.162 54.2201,27.8 53.9007,28.436 52.2036,29.074 51.4595,29.181 50.7174,29.287 30.5477,33.746 30.5477,33.746 30.5477,33.746 28.6378,34.487 28.2119,33.11 27.7892,31.729 27.6838,31.198 27.6838,31.198" id="path530" style="fill:#ffffff;stroke:none"/>
  <path d="M 20.875,42.0312 C 20.3943,42.0312 20.0347,42.1033 19.75,42.25 19.4652,42.3966 19.2452,42.6137 19.0938,42.875 18.9424,43.1363 18.8256,43.4471 18.7812,43.8125 18.7368,44.1778 18.7188,44.568 18.7188,45 18.7188,45.432 18.7368,45.8222 18.7812,46.1875 18.8256,46.5528 18.9424,46.8636 19.0938,47.125 19.2452,47.3863 19.4652,47.6034 19.75,47.75 20.0347,47.8967 20.3943,47.9688 20.875,47.9688 21.3556,47.9688 21.7465,47.8967 22.0312,47.75 22.316,47.6034 22.5362,47.3863 22.6875,47.125 22.8389,46.8636 22.9555,46.5528 23,46.1875 23.0444,45.8222 23.0625,45.432 23.0625,45 23.0625,44.568 23.0444,44.1778 23,43.8125 22.9555,43.4471 22.8389,43.1363 22.6875,42.875 22.5362,42.6137 22.316,42.3966 22.0312,42.25 21.7465,42.1033 21.3556,42.0312 20.875,42.0312 z M 13.75,42.1562 13.75,47.8438 14.9375,47.8438 14.9375,43.8438 16.5,47.8438 17.9688,47.8438 17.9688,42.1562 16.7812,42.1562 16.7812,46.0625 15.2188,42.1562 13.75,42.1562 z M 23.8125,42.1562 23.8125,47.8438 25,47.8438 25,43.8438 26.5625,47.8438 28.0312,47.8438 28.0312,42.1562 26.8438,42.1562 26.8438,46.0625 25.2812,42.1562 23.8125,42.1562 z M 32.2188,42.1562 32.2188,47.8438 33.5,47.8438 33.5,45.375 35.625,45.375 35.625,44.4375 33.5,44.4375 33.5,43.0938 35.75,43.0938 35.75,42.1562 32.2188,42.1562 z M 36.3438,42.1562 36.3438,47.8438 39.875,47.8438 39.875,46.9062 37.625,46.9062 37.625,42.1562 36.3438,42.1562 z M 41.6875,42.1562 40,47.8438 41.3438,47.8438 41.625,46.6562 43.3125,46.6562 43.625,47.8438 44.9688,47.8438 43.2812,42.1562 41.6875,42.1562 z M 45.4375,42.1562 45.4375,47.8438 46.5938,47.8438 46.5938,43.2812 46.625,43.2812 47.75,47.8438 48.75,47.8438 49.875,43.2812 49.9062,43.2812 49.9062,47.8438 51.0625,47.8438 51.0625,42.1562 49.1875,42.1562 48.25,46.1875 47.3438,42.1562 45.4375,42.1562 z M 52.0312,42.1562 52.0312,47.8438 53.1875,47.8438 53.1875,43.2812 53.2188,43.2812 54.3438,47.8438 55.3438,47.8438 56.4688,43.2812 56.5,43.2812 56.5,47.8438 57.6562,47.8438 57.6562,42.1562 55.7812,42.1562 54.8438,46.1875 53.9375,42.1562 52.0312,42.1562 z M 59.8125,42.1562 58.125,47.8438 59.4688,47.8438 59.75,46.6562 61.4688,46.6562 61.75,47.8438 63.0938,47.8438 61.4062,42.1562 59.8125,42.1562 z M 63.5312,42.1562 63.5312,47.8438 65.6875,47.8438 C 66.0612,47.8438 66.3727,47.8094 66.625,47.7188 66.8772,47.6281 67.0928,47.4959 67.25,47.3438 67.4072,47.1917 67.5284,47.0151 67.5938,46.8125 67.6589,46.6098 67.6875,46.4116 67.6875,46.1875 67.6875,45.8035 67.5825,45.4793 67.375,45.25 67.1673,45.0207 66.8875,44.8865 66.5312,44.8438 66.8518,44.7639 67.0898,44.5963 67.25,44.375 67.4101,44.1536 67.5,43.9029 67.5,43.5938 67.5,43.3216 67.4327,43.0927 67.3438,42.9062 67.2548,42.7196 67.129,42.5807 66.9688,42.4688 66.8087,42.3566 66.6288,42.2668 66.4062,42.2188 66.1837,42.171 65.9486,42.1562 65.6875,42.1562 L 63.5312,42.1562 z M 68.5,42.1562 68.5,47.8438 72.0312,47.8438 72.0312,46.9062 69.7812,46.9062 69.7812,42.1562 68.5,42.1562 z M 72.625,42.1562 72.625,47.8438 76.25,47.8438 76.25,46.9062 73.9062,46.9062 73.9062,45.375 76.0312,45.375 76.0312,44.4375 73.9062,44.4375 73.9062,43.0938 76.1562,43.0938 76.1562,42.1562 72.625,42.1562 z M 20.875,42.875 C 21.0648,42.875 21.2281,42.9226 21.3438,43 21.4595,43.0774 21.5627,43.2044 21.625,43.375 21.6872,43.5457 21.7291,43.7645 21.75,44.0312 21.7707,44.2979 21.7812,44.6161 21.7812,45 21.7812,45.3839 21.7707,45.6994 21.75,45.9688 21.7291,46.2381 21.6872,46.4571 21.625,46.625 21.5627,46.793 21.4595,46.9227 21.3438,47 21.2281,47.0773 21.0648,47.125 20.875,47.125 20.6851,47.125 20.5532,47.0773 20.4375,47 20.3218,46.9227 20.2186,46.793 20.1562,46.625 20.0938,46.4571 20.0521,46.2381 20.0312,45.9688 20.0105,45.6994 20,45.3839 20,45 20,44.6161 20.0105,44.2979 20.0312,44.0312 20.0521,43.7645 20.0938,43.5457 20.1562,43.375 20.2186,43.2044 20.3218,43.0774 20.4375,43 20.5532,42.9226 20.6851,42.875 20.875,42.875 z M 64.8125,43 65.2812,43 C 65.6017,43 65.8203,43.0444 65.9688,43.1562 66.1171,43.2683 66.2188,43.478 66.2188,43.75 66.2188,44.0221 66.1319,44.1979 65.9688,44.3125 65.8055,44.4272 65.5437,44.5 65.1875,44.5 L 64.8125,44.5 64.8125,43 z M 42.4688,43.125 42.5,43.125 43.0938,45.7188 41.8438,45.7188 42.4688,43.125 z M 60.5938,43.125 60.625,43.125 61.2188,45.7188 60,45.7188 60.5938,43.125 z M 28.875,45.0625 28.875,46.0312 31.375,46.0312 31.375,45.0625 28.875,45.0625 z M 64.8125,45.2812 65.375,45.2812 C 65.5173,45.2812 65.6312,45.2858 65.75,45.3125 65.8687,45.3391 65.9765,45.4021 66.0625,45.4688 66.1485,45.5354 66.2309,45.6093 66.2812,45.7188 66.3316,45.828 66.3438,45.9909 66.3438,46.1562 66.3438,46.4869 66.2524,46.6898 66.0625,46.8125 65.8727,46.9352 65.6211,47 65.3125,47 L 64.8125,47 64.8125,45.2812 z" id="path3123" style="fill:#ffffff;stroke:none;"/>
  <path d="M 40.1562,49.875 C 39.7454,49.875 39.3989,49.9398 39.125,50.0625 38.8511,50.1851 38.6356,50.3511 38.4688,50.5938 38.3021,50.8364 38.1623,51.1373 38.0938,51.5 38.0251,51.8627 38,52.3013 38,52.7812 38,53.2773 38.0149,53.6865 38.0625,54.0625 38.1102,54.4385 38.2039,54.7752 38.3438,55.0312 38.4838,55.2873 38.6903,55.4631 38.9375,55.5938 39.1846,55.7244 39.5132,55.8125 39.9062,55.8125 40.2099,55.8125 40.4702,55.7574 40.6875,55.6562 40.9049,55.5549 41.0639,55.3803 41.2188,55.1562 L 41.25,55.1562 41.25,55.6875 42.1875,55.6875 42.1875,52.625 40.125,52.625 40.125,53.4688 40.9688,53.4688 40.9688,54.0312 C 40.9687,54.1859 40.9286,54.3229 40.875,54.4375 40.8214,54.5522 40.7679,54.6439 40.6875,54.7188 40.6071,54.7934 40.5297,54.8689 40.4375,54.9062 40.3452,54.9436 40.2337,54.9688 40.1562,54.9688 39.9716,54.9688 39.835,54.9165 39.7188,54.8125 39.6027,54.7085 39.5,54.5384 39.4375,54.3438 39.375,54.1491 39.3363,53.9309 39.3125,53.6562 39.2888,53.3815 39.2812,53.0654 39.2812,52.7188 39.2812,52.004 39.3631,51.4969 39.5,51.1875 39.637,50.8783 39.8466,50.7188 40.1562,50.7188 40.2873,50.7188 40.4078,50.7512 40.5,50.8125 40.5924,50.8738 40.6591,50.938 40.7188,51.0312 40.7781,51.1245 40.8169,51.2291 40.8438,51.3438 40.8706,51.4584 40.9062,51.5863 40.9062,51.6875 L 42.125,51.6875 C 42.125,51.1064 41.9659,50.6557 41.6562,50.3438 41.3466,50.0318 40.859,49.875 40.1562,49.875 z M 49.8125,49.875 C 49.1992,49.875 48.7263,50.0038 48.375,50.2812 48.0237,50.5585 47.8438,50.9659 47.8438,51.5312 47.8438,51.7659 47.872,51.9777 47.9375,52.1562 48.0029,52.3349 48.1099,52.4889 48.25,52.625 48.39,52.7611 48.5728,52.8987 48.7812,53 48.9896,53.1014 49.2454,53.196 49.5312,53.2812 49.7458,53.3453 49.9166,53.4075 50.0625,53.4688 50.2084,53.5302 50.3169,53.5816 50.4062,53.6562 50.4956,53.7309 50.5551,53.813 50.5938,53.9062 50.6323,53.9997 50.6562,54.122 50.6562,54.25 50.6562,54.4899 50.5951,54.6666 50.4375,54.7812 50.2797,54.8959 50.1028,54.9688 49.9062,54.9688 49.7336,54.9688 49.5758,54.9176 49.4688,54.875 49.3616,54.8324 49.2843,54.7933 49.2188,54.7188 49.1532,54.6441 49.1178,54.5469 49.0938,54.4375 49.0699,54.3282 49.0312,54.1958 49.0312,54.0625 L 49.0312,53.9062 47.75,53.9062 47.75,54.125 C 47.75,54.6529 47.9061,55.0843 48.2188,55.375 48.5314,55.6657 49.0549,55.8125 49.7812,55.8125 50.478,55.8125 51.0161,55.6577 51.4062,55.375 51.7963,55.0922 52,54.6651 52,54.0625 52,53.8864 51.9733,53.7064 51.9375,53.5625 51.9017,53.4185 51.8422,53.3075 51.75,53.1875 51.6578,53.0674 51.5327,52.9477 51.375,52.8438 51.2171,52.7398 51.0196,52.6273 50.7812,52.5312 L 49.7812,52.1562 C 49.5073,52.0549 49.3334,51.9325 49.25,51.8125 49.1666,51.6924 49.125,51.551 49.125,51.375 49.125,51.2897 49.1353,51.205 49.1562,51.125 49.1773,51.045 49.2246,50.9676 49.2812,50.9062 49.3377,50.8448 49.4047,50.8186 49.5,50.7812 49.5953,50.744 49.7322,50.7188 49.875,50.7188 50.1252,50.7188 50.2989,50.7908 50.4062,50.9375 50.5134,51.0842 50.5625,51.2905 50.5625,51.5625 L 51.7812,51.5625 51.7812,51.4062 C 51.7812,51.1344 51.7544,50.8822 51.6562,50.6875 51.5581,50.4928 51.4257,50.344 51.25,50.2188 51.0742,50.0934 50.8661,49.9936 50.625,49.9375 50.3837,49.8816 50.0984,49.875 49.8125,49.875 z M 44.2812,49.9688 42.5938,55.6875 43.9375,55.6875 44.2188,54.4688 45.9062,54.4688 46.2188,55.6875 47.5625,55.6875 45.875,49.9688 44.2812,49.9688 z M 45.0625,50.9688 45.0938,50.9688 45.6875,53.5312 44.4375,53.5312 45.0625,50.9688 z" id="path3116" style="fill:#ffffff;stroke:none;"/>
</svg>