<?xml version="1.0" encoding="UTF-8"?>
<svg version="1.1" xmlns="http://www.w3.org/2000/svg" width="3000" height="2000">
<path d="M0 0 C761.64 0 1523.28 0 2308 0 C2308 49.83 2308 99.66 2308 151 C1546.36 151 784.72 151 0 151 C0 101.17 0 51.34 0 0 Z " fill="#E2001D" transform="translate(346,1166)"/>
<path d="M0 0 C118.5920913 -0.0806627 118.5920913 -0.0806627 168.31640625 -0.09765625 C178.97146068 -0.10131644 189.62651506 -0.1050703 200.28156938 -0.10905199 C201.72648363 -0.10959169 203.17139788 -0.11012843 204.61631213 -0.11066218 C227.56617244 -0.11916425 250.51602276 -0.13414781 273.46587706 -0.15259444 C297.09391487 -0.17155126 320.72194719 -0.18379196 344.34999248 -0.18782998 C359.54869177 -0.19044133 374.74736675 -0.19872188 389.9460575 -0.21583293 C399.9424664 -0.22650543 409.93886073 -0.22957775 419.9352749 -0.22700275 C425.67985576 -0.2257372 431.42438693 -0.22750473 437.16895866 -0.23841095 C458.41098718 -0.27663019 479.60976165 -0.17037109 500.82885742 0.90090942 C501.62285466 0.940601 502.41685189 0.98029258 503.23490965 1.02118693 C547.95985508 3.32414718 593.53920264 9.28517216 635 27 C635.73428223 27.30873047 636.46856445 27.61746094 637.22509766 27.93554688 C654.54524268 35.31112967 670.06511032 45.38224373 684 58 C684.87914062 58.75925781 685.75828125 59.51851562 686.6640625 60.30078125 C721.18927781 90.39009428 742.8011666 138.57467845 746 184 C747.26216314 212.79341096 743.22566445 242.2373652 732 269 C731.01 269.495 731.01 269.495 730 270 C729.86335938 270.69609375 729.72671875 271.3921875 729.5859375 272.109375 C728.83924245 275.79307056 727.30468643 278.92013847 725.625 282.25 C725.28065918 282.93803711 724.93631836 283.62607422 724.58154297 284.33496094 C720.64767088 291.9886638 715.93252691 299.12295948 711.10986328 306.23925781 C709.94625542 308.01270994 709.94625542 308.01270994 708.99609375 310.07470703 C707.52260195 312.92273554 705.29947706 314.77913754 703 317 C701.01745261 319.10278458 699.07432216 321.24142599 697.125 323.375 C684.79796599 336.78295634 684.79796599 336.78295634 678 342 C677.34 342 676.68 342 676 342 C676 342.66 676 343.32 676 344 C674.05078125 345.4453125 674.05078125 345.4453125 671.3125 347.125 C670.29542969 347.75019531 669.27835938 348.37539062 668.23046875 349.01953125 C666.63138672 349.99986328 666.63138672 349.99986328 665 351 C664.04738281 351.62261719 663.09476563 352.24523438 662.11328125 352.88671875 C633.83345048 371.11149858 600.74959364 380.53342909 567.875 386.2734375 C564.22142237 386.77482168 564.22142237 386.77482168 562 388 C560.22284211 388.19845416 558.44011489 388.34815612 556.65625 388.47265625 C552.41367425 388.79614635 548.19411047 389.18289678 543.96875 389.68359375 C509.59444772 393.7472392 475.3103487 394.29655399 440.73374462 394.23213124 C434.79567196 394.22334596 428.85760249 394.22642734 422.91952515 394.22793579 C412.67583914 394.22897529 402.43217896 394.22279775 392.18849945 394.21146011 C381.46698526 394.19960146 370.74548428 394.19191302 360.02396393 394.18975449 C359.35267402 394.18961701 358.68138411 394.18947953 357.98975209 394.18933788 C354.57941278 394.18866104 351.16907346 394.18805834 347.75873414 394.18748413 C323.72000849 394.18330406 299.68129624 394.16988793 275.64257812 394.15087891 C252.31640695 394.13245488 228.99023949 394.11834873 205.6640625 394.10986328 C204.19248819 394.109322 202.72091389 394.10878059 201.24933958 394.10823905 C189.85267074 394.10406682 178.45600181 394.10016574 167.05933285 394.09632993 C111.37287597 394.07752454 55.6864535 394.0372734 0 394 C0 263.98 0 133.96 0 0 Z M256 106 C256 167.05 256 228.1 256 291 C275.84125 291.04125 295.6825 291.0825 316.125 291.125 C322.34617676 291.14320801 328.56735352 291.16141602 334.97705078 291.18017578 C340.64622388 291.1868724 340.64622388 291.1868724 346.31539917 291.19088745 C348.80360636 291.1939207 351.29181097 291.20087402 353.77999878 291.21115112 C402.01179997 291.45928205 402.01179997 291.45928205 444 270 C444.77005371 269.35538818 444.77005371 269.35538818 445.55566406 268.69775391 C462.94548452 253.98370459 473.63714348 234.54262673 477 212 C478.69862895 185.14760503 474.06999152 161.30198609 457 140 C454.1603269 136.81921172 451.30453222 133.70370818 448 131 C447.34 131 446.68 131 446 131 C445.79246094 130.43152344 445.58492187 129.86304688 445.37109375 129.27734375 C438.85256904 118.4502785 420.93911136 112.9020648 409.59375 109.84375 C389.26819923 105.07166417 368.0413762 105.85848872 347.30859375 105.90234375 C344.96293156 105.90381757 342.61726903 105.90483556 340.27160645 105.90539551 C331.66023255 105.9105974 323.04886574 105.9245585 314.4375 105.9375 C295.153125 105.958125 275.86875 105.97875 256 106 Z " fill="#004892" transform="translate(346,683)"/>
<path d="M0 0 C1.91493178 -0.02909935 1.91493178 -0.02909935 3.86854905 -0.05878657 C5.29865984 -0.07035569 6.72877256 -0.08168781 8.15888691 -0.09280872 C9.66785912 -0.11156729 11.17682149 -0.13113247 12.68577367 -0.15143901 C16.84800658 -0.20464847 21.0102797 -0.24486733 25.1726774 -0.28267896 C28.73932085 -0.31660655 32.3058661 -0.35782879 35.87243327 -0.39890423 C69.70670923 -0.78656808 103.54339157 -0.98405824 137.37941742 -1.14363861 C141.786973 -1.16479519 146.1945265 -1.18633838 150.60207844 -1.20824146 C152.2452993 -1.2163816 152.2452993 -1.2163816 153.92171655 -1.22468618 C171.65027844 -1.31520629 189.3766218 -1.49986261 207.10398086 -1.72116246 C225.3074165 -1.94651722 243.50970138 -2.07676763 261.71449739 -2.11762458 C271.93539811 -2.14315538 282.15219187 -2.21141879 292.3716917 -2.38845348 C301.08076419 -2.53929334 309.7852431 -2.60495368 318.49560054 -2.56063237 C322.93870176 -2.54069619 327.37185152 -2.56054208 331.81329441 -2.69112492 C357.69897148 -3.41401934 357.69897148 -3.41401934 364.91966939 2.77794719 C369.80693355 8.72982031 372.98997707 15.25172518 375.83129561 22.37048948 C377.44550104 26.27624893 379.52457683 29.76464987 381.77517414 33.32764721 C383.07592015 35.55216735 384.37543063 37.77741047 385.67361164 40.00342846 C387.11300631 42.46608319 388.55346023 44.92811778 389.99392414 47.39014721 C390.34243427 47.98608685 390.6909444 48.58202648 391.05001545 49.19602489 C394.19940695 54.57930446 397.370864 59.94935465 400.54861164 65.31592846 C404.08167489 71.28255856 407.60287981 77.25586346 411.10329914 83.24170971 C411.63043758 84.14302876 411.63043758 84.14302876 412.16822529 85.06255627 C412.52344761 85.6699313 412.87866993 86.27730633 413.24465656 86.90308666 C419.95737712 98.38042726 426.72968789 109.81734321 433.59060383 121.20704174 C438.437253 129.2654656 443.1918056 137.37477215 447.91824055 145.50416088 C453.37928661 154.89626512 458.90387935 164.24999865 464.43972492 173.59815502 C467.14561533 178.16901573 469.84690494 182.74259408 472.54861164 187.31592846 C475.75005393 192.73489449 478.95206154 198.15351926 482.15798664 203.56983471 C486.82694523 211.46065203 491.49034832 219.35445807 496.11892414 227.26905346 C497.55375641 229.72221565 498.98860698 232.17536711 500.42361164 234.62842846 C500.78318958 235.24310986 501.14276752 235.85779125 501.51324177 236.49109936 C507.13913929 246.10364137 512.84349543 255.66635757 518.59060383 265.20704174 C523.437253 273.2654656 528.1918056 281.37477215 532.91824055 289.50416088 C538.37928661 298.89626512 543.90387935 308.24999865 549.43972492 317.59815502 C552.14561533 322.16901573 554.84690494 326.74259408 557.54861164 331.31592846 C560.75005393 336.73489449 563.95206154 342.15351926 567.15798664 347.56983471 C569.83666388 352.09584675 572.50968314 356.62517469 575.18142414 361.15528393 C576.53855636 363.45254252 577.89782953 365.74844365 579.25954914 368.04297924 C581.22296029 371.35138916 583.18132312 374.66274529 585.13686848 377.97581005 C585.90664867 379.27791303 586.6781939 380.57897429 587.45156574 381.87894726 C588.5354883 383.70156322 589.61302751 385.52781279 590.68923664 387.35499096 C591.31346516 388.40896069 591.93769367 389.46293041 592.5808382 390.54883862 C594.04861164 393.31592846 594.04861164 393.31592846 595.04861164 397.31592846 C426.74861164 397.31592846 258.44861164 397.31592846 85.04861164 397.31592846 C90.66915372 386.07484429 90.66915372 386.07484429 93.79861164 380.98780346 C94.48229816 379.87050854 95.16598469 378.75321362 95.87038898 377.60206127 C96.22526386 377.02605175 96.58013874 376.45004223 96.9457674 375.85657787 C98.85616183 372.75473761 100.75228665 369.64418101 102.65017414 366.53467846 C103.03001453 365.91304821 103.40985493 365.29141796 103.80120564 364.65095043 C107.0568531 359.31750202 110.25494805 353.95152601 113.42361164 348.56592846 C113.92682941 347.71128002 114.43004719 346.85663158 114.94851398 345.97608471 C116.03084466 344.13762349 117.11303226 342.29907804 118.19509602 340.46045971 C121.60036422 334.68334506 125.01891431 328.91411371 128.4400301 323.1463728 C129.24159123 321.79453405 130.04268384 320.44241735 130.84322834 319.08997631 C131.22086323 318.45201122 131.59849812 317.81404613 131.98757648 317.15674877 C132.34134263 316.55576933 132.69510878 315.95478989 133.05959511 315.33559895 C133.82737912 314.05006563 134.60900459 312.77260911 135.40952682 311.5072031 C137.61948937 307.97178479 139.38135402 304.58915603 140.79121113 300.66050243 C142.9400232 295.31206774 145.32092942 290.78277677 150.04861164 287.31592846 C159.44627954 284.20026266 170.06052557 285.16309348 179.83787608 285.49083757 C183.78775977 285.60404182 187.73793541 285.61398517 191.68919086 285.63529491 C199.15680899 285.69105382 206.61963442 285.83846821 214.08514959 286.01958573 C222.59000375 286.22139919 231.09509786 286.31989577 239.60175359 286.41010356 C257.08680368 286.59781713 274.56719971 286.91401591 292.04861164 287.31592846 C289.96810521 283.77259404 287.88370348 280.2315662 285.79861164 276.69092846 C284.91882648 275.1923933 284.91882648 275.1923933 284.02126789 273.66358471 C280.46468627 267.60797977 280.46468627 267.60797977 276.62673664 261.72999096 C275.04861164 259.31592846 275.04861164 259.31592846 275.04861164 257.31592846 C274.38861164 256.98592846 273.72861164 256.65592846 273.04861164 256.31592846 C271.89051315 254.43135874 270.79930195 252.5056247 269.73611164 250.56592846 C265.51407036 242.95890437 260.91925267 235.60013368 256.26614094 228.25049877 C255.71998127 227.38005932 255.1738216 226.50961987 254.61111164 225.61280346 C254.1174007 224.83259838 253.62368977 224.0523933 253.11501789 223.24854565 C252.04861164 221.31592846 252.04861164 221.31592846 252.04861164 219.31592846 C251.38861164 219.31592846 250.72861164 219.31592846 250.04861164 219.31592846 C249.68122883 218.51155346 249.68122883 218.51155346 249.30642414 217.69092846 C246.12929523 211.02991337 242.35329592 204.86310161 238.3518343 198.67530346 C235.04861164 193.52002818 235.04861164 193.52002818 235.04861164 191.31592846 C234.38861164 191.31592846 233.72861164 191.31592846 233.04861164 191.31592846 C232.75655842 190.7064436 232.4645052 190.09695873 232.16360188 189.46900463 C229.1436174 183.28381562 225.78697894 177.44328001 222.11111164 171.62842846 C220.95017008 169.77214854 219.7900415 167.91535997 218.63064289 166.05811596 C218.03719074 165.10904369 217.44373859 164.15997143 216.83230305 163.1821394 C213.95523435 158.5589822 211.12567189 153.90727951 208.29861164 149.25342846 C207.45121418 147.86027416 207.45121418 147.86027416 206.58669758 146.43897533 C203.6058255 141.5353333 200.63144338 136.62780635 197.66283894 131.71673107 C196.11052242 129.14917427 194.55670876 126.5825249 193.00283527 124.01591015 C191.88204065 122.16302801 190.76364012 120.30871525 189.64529133 118.45435619 C188.95302711 117.31048558 188.26064982 116.1666834 187.56814289 115.02295971 C186.96075275 114.01724926 186.35336262 113.01153881 185.72756672 111.97535229 C184.26461014 109.65806481 182.73152896 107.47646946 181.04861164 105.31592846 C180.36798664 106.76999096 180.36798664 106.76999096 179.67361164 108.25342846 C178.04861164 111.31592846 178.04861164 111.31592846 176.04861164 112.31592846 C174.87374667 114.94209722 173.95846302 117.58637431 173.04861164 120.31592846 C172.38861164 120.31592846 171.72861164 120.31592846 171.04861164 120.31592846 C170.78991291 121.01524487 170.53121418 121.71456127 170.26467609 122.43506908 C168.92942532 125.59828111 167.32909668 128.4480081 165.59158039 131.40967846 C165.25271305 131.9887344 164.91384571 132.56779034 164.56470966 133.16439342 C163.4590293 135.05053187 162.34787073 136.93336757 161.23611164 138.81592846 C160.45860178 140.13778521 159.6810953 141.45964396 158.90359211 142.78150463 C154.09379018 150.94127104 149.17910385 159.02752476 144.15383625 167.05665112 C137.85842765 177.15223614 131.83080205 187.40770587 125.77493 197.64795971 C122.26776531 203.57799875 118.75192716 209.50262662 115.21267414 215.41358471 C114.85159565 216.01790325 114.49051716 216.62222179 114.11849689 217.24485302 C111.33190137 221.89072077 108.41929359 226.44805297 105.48220539 230.99952221 C104.27581625 232.94881038 103.21857086 234.87336502 102.23611164 236.94092846 C101.04861164 239.31592846 101.04861164 239.31592846 99.04861164 240.31592846 C97.87374667 242.94209722 96.95846302 245.58637431 96.04861164 248.31592846 C95.38861164 248.31592846 94.72861164 248.31592846 94.04861164 248.31592846 C93.78991291 249.01524487 93.53121418 249.71456127 93.26467609 250.43506908 C91.92942532 253.59828111 90.32909668 256.4480081 88.59158039 259.40967846 C88.25271305 259.9887344 87.91384571 260.56779034 87.56470966 261.16439342 C86.4590293 263.05053187 85.34787073 264.93336757 84.23611164 266.81592846 C83.45860178 268.13778521 82.6810953 269.45964396 81.90359211 270.78150463 C77.08894049 278.94949847 72.16938902 287.04396858 67.13845539 295.08082104 C61.78849107 303.65895776 56.65871556 312.36440562 51.51638508 321.06782055 C45.19886055 331.75524062 38.77098259 342.3657159 32.21145344 352.90650463 C29.5923767 357.12541491 26.99978656 361.33622412 24.61892414 365.69483471 C21.57331498 371.26428782 18.2260658 376.64977299 14.89040852 382.04835033 C13.78430661 383.83908776 12.68189744 385.63206146 11.57986164 387.42530346 C6.18676916 396.17777094 6.18676916 396.17777094 5.04861164 397.31592846 C1.86309216 397.41401554 -1.30076618 397.44582919 -4.48668194 397.43618298 C-5.50025735 397.4370374 -6.51383276 397.43789183 -7.55812258 397.43877214 C-10.98227882 397.44043 -14.40638696 397.4349006 -17.83053875 397.42945385 C-20.27400492 397.42917202 -22.71747118 397.42932963 -25.16093731 397.42989635 C-30.43586702 397.43012468 -35.71078153 397.42727329 -40.98570728 397.42165852 C-48.61244628 397.41354567 -56.2391793 397.41092852 -63.86592215 397.40967052 C-76.23857117 397.40747966 -88.61121361 397.40081866 -100.98385906 397.39136791 C-113.00566862 397.38219467 -125.0274764 397.37511341 -137.04928875 397.3708601 C-138.16005702 397.37046601 -138.16005702 397.37046601 -139.29326505 397.37006397 C-143.00804408 397.36875897 -146.72282312 397.36749525 -150.43760216 397.36625206 C-181.27553568 397.35587839 -212.11346102 397.33818504 -242.95138836 397.31592846 C-241.45650026 393.47454059 -239.72493836 390.02661635 -237.63498211 386.46827221 C-237.30677975 385.90790264 -236.97857738 385.34753307 -236.6404295 384.77018261 C-235.56032409 382.92903617 -234.47483227 381.09113639 -233.38888836 379.25342846 C-232.62612569 377.95716275 -231.86343149 376.66085676 -231.10080242 375.36451244 C-225.17036692 365.30243662 -219.12403674 355.3124982 -213.04440594 345.34009838 C-207.19985367 335.7505306 -201.47458025 326.09477709 -195.7785368 316.4165144 C-192.09661251 310.1684601 -188.40095645 303.92854876 -184.70138836 297.69092846 C-184.29583721 297.00712109 -183.89028606 296.32331371 -183.47244549 295.6187849 C-177.17804002 285.01154028 -170.80341272 274.45606478 -164.38400555 263.92408276 C-158.05301425 253.52631015 -151.83381783 243.06323861 -145.63302898 232.58741283 C-144.88500338 231.32372837 -144.13695674 230.06005636 -143.38888836 228.79639721 C-142.83787457 227.86551533 -142.83787457 227.86551533 -142.27572918 226.91582775 C-139.31116363 221.91224681 -136.32005932 216.92490043 -133.32394695 211.94016552 C-130.70554608 207.58077492 -128.1042289 203.21157716 -125.51388836 198.83545971 C-125.14557903 198.21330074 -124.77726971 197.59114178 -124.39779949 196.95012951 C-123.64050352 195.67078405 -122.88322016 194.39143112 -122.12594891 193.11207104 C-115.63004128 182.14153488 -109.0870861 171.20248537 -102.45138836 160.31592846 C-95.03549254 148.14882863 -87.74789661 135.90838044 -80.48547649 123.64918041 C-80.0965321 122.99264477 -79.7075877 122.33610912 -79.30685711 121.65967846 C-78.73322933 120.69131054 -78.73322933 120.69131054 -78.14801311 119.70337963 C-74.6480802 113.79796344 -71.11604081 107.91215617 -67.57590008 102.03077221 C-64.5648579 97.02165237 -61.5745798 92.00059425 -58.59591961 86.97217846 C-58.20697521 86.31564281 -57.81803082 85.65910717 -57.41730022 84.98267651 C-57.02120556 84.3140559 -56.62511089 83.6454353 -56.21701336 82.95655346 C-48.68506651 70.24262718 -41.09641142 57.56801648 -33.39963055 44.95313549 C-29.47057646 38.50169148 -25.58224837 32.02838228 -21.73654461 25.52686596 C-21.29994518 24.78905895 -20.86334576 24.05125195 -20.41351604 23.29108715 C-18.27691311 19.67841307 -16.14464239 16.06325999 -14.01779461 12.44483471 C-13.24702883 11.13880526 -12.47619882 9.8328137 -11.70529461 8.52686596 C-11.35403011 7.92619305 -11.00276562 7.32552013 -10.64085674 6.70664501 C-7.47923994 1.36129445 -6.26114184 0.07222222 0 0 Z " fill="#004892" transform="translate(1332.9513883590698,682.6840715408325)"/>
<path d="M0 0 C221.43 0 442.86 0 671 0 C671 38.28 671 76.56 671 116 C535.7 116 400.4 116 261 116 C261 138.77 261 161.54 261 185 C394.65 185 528.3 185 666 185 C666 221.3 666 257.6 666 295 C532.35 295 398.7 295 261 295 C261 328.66 261 362.32 261 397 C174.87 397 88.74 397 0 397 C0 265.99 0 134.98 0 0 Z " fill="#004892" transform="translate(1981,683)"/>
</svg>
