<?xml version="1.0" encoding="UTF-8"?>
<svg version="1.1" xmlns="http://www.w3.org/2000/svg" width="2400" height="2400">
<path d="M0 0 C3.74679439 0.0000808 7.4934653 -0.00679992 11.24023438 -0.02050781 C41.49417303 -0.12933299 71.63241731 0.5001049 101.7175293 3.99780273 C102.82547852 4.12377335 102.82547852 4.12377335 103.95581055 4.25228882 C129.81513827 7.22761207 154.05118363 13.6495388 176.9675293 26.18530273 C178.01166992 26.74991211 179.05581055 27.31452148 180.1315918 27.89624023 C191.19722565 34.11518485 201.46030685 41.45014237 210.7409668 50.11108398 C212.76705426 51.99854441 214.84649835 53.78150985 216.9675293 55.56030273 C259.27428751 92.70563645 271.42797121 146.58571052 275.5378418 200.16186523 C276.18313574 210.4110411 276.21066508 220.66875851 276.2175293 230.93530273 C276.21853638 231.98622101 276.21954346 233.03713928 276.22058105 234.11990356 C276.18483478 289.65226774 269.50443174 345.91892314 232.9675293 390.18530273 C232.51152344 390.74813965 232.05551758 391.31097656 231.58569336 391.89086914 C201.468608 428.96361628 156.7691192 454.26047457 109.03224182 459.50796509 C105.9274675 459.77394303 102.82230443 460.00494864 99.71362305 460.22045898 C98.57329117 460.3040416 97.43295929 460.38762421 96.2580719 460.47373962 C92.64076728 460.73730466 89.02292604 460.99251004 85.4050293 461.24780273 C83.0059036 461.42242316 80.60681466 461.59754943 78.20776367 461.77319336 C72.4550052 462.19163298 66.70126787 462.5930107 60.94647217 462.98239136 C59.13932959 463.10548529 57.33234903 463.23103565 55.5256958 463.3611145 C39.86340859 464.4868757 24.16274544 464.47072443 8.4675293 464.49780273 C7.73159546 464.49954247 6.99566162 464.5012822 6.23742676 464.50307465 C-24.65603017 464.56730678 -55.25392073 462.93381708 -86.0324707 460.18530273 C-86.97406036 460.10399109 -87.91565002 460.02267944 -88.88577271 459.93890381 C-98.90595095 459.06737232 -108.69404589 458.03560097 -118.4699707 455.56030273 C-119.51362793 455.30087891 -120.55728516 455.04145508 -121.63256836 454.77416992 C-152.28417042 446.85417194 -178.78766936 431.50712506 -202.0324707 410.18530273 C-202.54616211 409.71688965 -203.05985352 409.24847656 -203.58911133 408.76586914 C-216.23697357 397.0881093 -226.56820418 383.13767439 -235.0324707 368.18530273 C-235.38760742 367.57315918 -235.74274414 366.96101563 -236.10864258 366.33032227 C-263.03370814 319.6547645 -265.20136746 260.06249033 -262.2824707 207.43530273 C-262.23990143 206.66605469 -262.19733215 205.89680664 -262.1534729 205.10424805 C-260.80098441 181.33312739 -259.18254104 157.01314636 -252.0324707 134.18530273 C-251.81896973 133.48308594 -251.60546875 132.78086914 -251.38549805 132.05737305 C-242.65431267 103.82284528 -227.08375804 79.68857984 -207.0324707 58.18530273 C-206.34668945 57.44538086 -205.6609082 56.70545898 -204.9543457 55.94311523 C-165.55231233 14.93581384 -111.51975632 4.45415026 -57.0324707 1.18530273 C-55.72979248 1.09772705 -54.42711426 1.01015137 -53.08496094 0.91992188 C-35.41290085 -0.16195528 -17.69743753 -0.00201439 0 0 Z M-63.0324707 132.18530273 C-81.69214962 153.20323491 -82.1900666 177.99066377 -82.20043945 204.54467773 C-82.20366197 206.50319441 -82.20702675 208.46171085 -82.21052551 210.42022705 C-82.21648026 214.50826576 -82.21836918 218.59628344 -82.21777344 222.68432617 C-82.21767198 227.87594031 -82.23132362 233.06741718 -82.24854565 238.25899887 C-82.25976229 242.30007525 -82.26168971 246.34111944 -82.26116371 250.38220978 C-82.26232934 252.2940137 -82.26666952 254.20581886 -82.27449608 256.11760712 C-82.3776757 283.9196699 -79.12708566 310.30650769 -59.0324707 331.18530273 C-44.95245101 344.74941331 -28.39689549 349.68014488 -9.19262695 349.58374023 C-7.2666996 349.5880455 -7.2666996 349.5880455 -5.30186462 349.59243774 C-2.60331193 349.59682186 0.09493978 349.59055957 2.79345703 349.57641602 C6.21337646 349.55934335 9.63258817 349.56917759 13.05248165 349.58713341 C16.36666529 349.60072388 19.68066947 349.59114337 22.99487305 349.58374023 C24.80640114 349.59284927 24.80640114 349.59284927 26.65452576 349.60214233 C45.59502144 349.44794028 60.42680229 343.19370839 74.0847168 330.16577148 C98.52741397 304.53422717 96.14754277 267.84225387 96.09790039 234.94873047 C96.09221894 231.14692554 96.09557747 227.34519086 96.10134125 223.54338837 C97.50060383 172.86260106 97.50060383 172.86260106 74.34643555 129.47045898 C60.70472961 116.36635722 43.7256595 112.16537558 25.4230957 110.67724609 C23.20642716 110.49689947 20.99135915 110.30232445 18.77612305 110.10522461 C-10.24136462 107.59337018 -41.26115662 110.94418808 -63.0324707 132.18530273 Z " fill="#213C7C" transform="translate(1976.032470703125,967.814697265625)"/>
<path d="M0 0 C1.12773433 -0.00226556 2.25546866 -0.00453111 3.41737676 -0.00686532 C7.15637469 -0.01314216 10.89533579 -0.01238008 14.63433838 -0.0115509 C17.33097974 -0.01454618 20.02761832 -0.01792172 22.72425842 -0.02172852 C29.26340861 -0.02999145 35.80254978 -0.03278129 42.34170476 -0.03334089 C47.65787089 -0.03381774 52.97403408 -0.03588084 58.29019928 -0.03904152 C73.38562419 -0.04783296 88.48104202 -0.05246278 103.57646951 -0.05171105 C104.79403306 -0.05165111 104.79403306 -0.05165111 106.03619385 -0.05158997 C106.8489006 -0.05154909 107.66160734 -0.0515082 108.49894157 -0.05146609 C121.68699448 -0.05105912 134.87501892 -0.06064537 148.06306359 -0.07472833 C161.62705948 -0.08909789 175.19104148 -0.09599833 188.75504518 -0.09513456 C196.3614054 -0.09480299 203.9677357 -0.09753298 211.57408905 -0.10831261 C218.04475323 -0.1174248 224.51537387 -0.11958662 230.98604169 -0.11280318 C234.28441613 -0.1095428 237.58268989 -0.11055543 240.88105965 -0.11815643 C244.46155241 -0.12587302 248.0418264 -0.12123366 251.62231445 -0.11352539 C253.17470593 -0.12124074 253.17470593 -0.12124074 254.75845885 -0.12911195 C264.09516478 -0.08474741 272.56379653 0.59454108 279.46343994 7.55168152 C284.25268175 12.96742299 285.35724713 17.57423905 285.33184814 24.64274597 C285.33951454 25.75110306 285.33951454 25.75110306 285.34733582 26.8818512 C285.36119584 29.3161487 285.36027741 31.75016183 285.35797119 34.18449402 C285.36186084 35.88454289 285.36619607 37.58459079 285.37095642 39.28463745 C285.37841147 42.84625906 285.3781331 46.40778153 285.37286377 49.96940613 C285.36707808 54.51878353 285.38398168 59.06775262 285.40720844 63.61706257 C285.42199059 67.12852322 285.42281127 70.63988665 285.41969872 74.15137291 C285.42020994 75.82779434 285.42541016 77.50422149 285.43551064 79.18061256 C285.44794149 81.53283774 285.44104375 83.88428192 285.42950439 86.23649597 C285.43714813 86.91988541 285.44479187 87.60327484 285.45266724 88.30737305 C285.37540742 95.48515974 283.17604447 102.01485824 278.05718994 107.13371277 C271.95461847 111.35418276 267.18752732 112.25734465 259.87243652 112.27174377 C259.14779103 112.27456505 258.42314554 112.27738633 257.67654109 112.28029311 C255.24774914 112.2886277 252.81900284 112.28997638 250.39019775 112.29142761 C248.64891431 112.2960967 246.90763208 112.30124042 245.16635132 112.30682373 C241.41554123 112.31810039 237.66473906 112.32653669 233.91391754 112.33294296 C227.98009792 112.34362812 222.0463352 112.36387465 216.11254883 112.38606262 C199.23865365 112.44796862 182.36476179 112.50198669 165.49078369 112.53507996 C156.17216152 112.55343585 146.85363467 112.58238378 137.53508258 112.62308466 C132.60524535 112.64413785 127.67552816 112.65960956 122.74564362 112.66189194 C118.10643198 112.66404228 113.46747028 112.67995112 108.82833481 112.70628166 C107.12884526 112.7134613 105.42932538 112.71558211 103.72982407 112.71217918 C101.40288204 112.7082653 99.07673081 112.72279983 96.74987793 112.74171448 C95.44981434 112.74502462 94.14975075 112.74833477 92.81029129 112.75174522 C85.79485412 113.46573322 79.87829796 115.86412959 75.05718994 121.13371277 C72.22248435 127.77221303 71.5967757 134.3790933 71.54547119 141.51652527 C71.52751999 142.45680573 71.50956879 143.39708618 71.49107361 144.36585999 C71.43746471 147.33010039 71.40323516 150.2941845 71.36968994 153.25871277 C71.33647313 155.28477597 71.30197953 157.31081866 71.26617432 159.33683777 C71.18176738 164.26901566 71.11472272 169.20115118 71.05718994 174.13371277 C71.81556152 174.10865662 72.57393311 174.08360046 73.35528564 174.05778503 C97.01553008 173.30359871 120.68021389 172.92394871 144.34957504 172.60461044 C146.76608992 172.5717713 149.18259101 172.53805023 151.59909058 172.50410461 C160.11644493 172.38546086 168.63368495 172.28266549 177.15153217 172.20657253 C181.85139524 172.16258496 186.55015741 172.09306739 191.24943161 172.00703716 C194.36464583 171.95380241 197.47991311 171.9175847 200.59540558 171.88507271 C202.05736491 171.86623305 203.51925409 171.840375 204.9809494 171.80680656 C214.45369275 171.59391972 221.58938866 172.15797251 229.36187744 177.80949402 C229.88008057 178.34961121 230.39828369 178.88972839 230.93218994 179.44621277 C231.46586182 179.97859558 231.99953369 180.51097839 232.54937744 181.05949402 C236.27421541 186.18355868 237.43271476 190.87275894 237.46124268 197.13542175 C237.47153755 198.12717407 237.47153755 198.12717407 237.48204041 199.13896179 C237.50019187 201.30280141 237.49648803 203.46590786 237.49078369 205.62980652 C237.49535115 207.14763623 237.5006584 208.66546388 237.50666809 210.18328857 C237.51557631 213.35638355 237.51320244 216.52922654 237.50323486 219.70231628 C237.49174844 223.7518393 237.51196244 227.80048986 237.541152 231.84989834 C237.55957187 234.98222298 237.55921011 238.11434075 237.55351448 241.24670601 C237.55336197 242.73891994 237.55934791 244.23114853 237.57180595 245.72331047 C237.63826093 254.98686582 237.42780854 262.05530169 231.12750244 269.37590027 C230.48554932 269.91472839 229.84359619 270.45355652 229.18218994 271.00871277 C228.54539307 271.56300964 227.90859619 272.11730652 227.25250244 272.68840027 C222.65650604 275.7142342 218.13372355 276.38341826 212.7170105 276.3742218 C211.46346771 276.37697113 210.20992493 276.37972046 208.918396 276.3825531 C207.54229639 276.37547624 206.16619777 276.36820664 204.7901001 276.36076355 C203.33110563 276.36019899 201.87211059 276.36051687 200.41311646 276.36164856 C196.46313442 276.36222132 192.51327438 276.35047944 188.56332064 276.33650064 C184.43134972 276.32398051 180.29937587 276.32282177 176.16738892 276.32044983 C168.34771625 276.31423883 160.52809964 276.29783316 152.70845163 276.27775085 C143.80401579 276.25538001 134.89957724 276.24439544 125.99512029 276.23435998 C107.68244508 276.2134666 89.36982202 276.17829801 71.05718994 276.13371277 C71.15124885 281.54171774 71.25745546 286.94930245 71.37457275 292.3568573 C71.41268567 294.19370619 71.44756833 296.03062523 71.47906494 297.86759949 C71.5251022 300.51905771 71.58302978 303.17004033 71.64312744 305.82121277 C71.65467865 306.63299988 71.66622986 307.44478699 71.6781311 308.28117371 C71.87804072 316.13084324 73.02758626 322.81078242 78.05718994 329.13371277 C83.58527718 334.37084805 88.98008709 335.38253678 96.44448853 335.39199829 C97.52789471 335.39751185 97.52789471 335.39751185 98.63318789 335.40313679 C101.04201011 335.41307933 103.45059978 335.4089735 105.85943604 335.404953 C107.59116358 335.40934222 109.32288901 335.41464509 111.05461121 335.42079163 C114.77866277 335.43227758 118.50265754 335.43775002 122.22672653 335.43867302 C128.11872262 335.4406163 134.01060151 335.45868374 139.90255737 335.47943115 C154.53738182 335.52858425 169.17223806 335.55949587 183.80712891 335.58073425 C195.18136557 335.59726581 206.55550163 335.62010299 217.92967093 335.663755 C223.78319616 335.68550617 229.63653014 335.69359155 235.49009299 335.69136226 C239.13646276 335.69303218 242.78270825 335.7071002 246.42903328 335.72457504 C248.11562888 335.73016148 249.80225039 335.73067185 251.48884773 335.72563744 C269.06659096 335.6786827 269.06659096 335.6786827 277.30718994 341.38371277 C283.66558017 347.74210299 285.19733488 353.91039855 285.25006104 362.68107605 C285.25823853 363.4361293 285.26641602 364.19118256 285.27484131 364.96911621 C285.29961925 367.46407801 285.31619475 369.95898306 285.33062744 372.45402527 C285.33595112 373.3094479 285.3412748 374.16487053 285.3467598 375.04621506 C285.37346264 379.57699943 285.3928438 384.10775658 285.4072876 388.63859558 C285.42060497 392.37484843 285.44842064 396.11055231 285.48931885 399.84660339 C285.53883346 404.37058654 285.56343175 408.89407339 285.57051468 413.41831589 C285.57719636 415.13499752 285.59233735 416.85166943 285.61640549 418.56819534 C285.85588704 436.68628317 285.85588704 436.68628317 280.05718994 444.13371277 C275.10218838 448.72045997 271.01847865 451.25256958 264.14961243 451.27072716 C263.13123826 451.2758017 262.11286409 451.28087624 261.0636301 451.28610456 C259.3802701 451.2868512 259.3802701 451.2868512 257.66290283 451.28761292 C256.47318091 451.29199517 255.283459 451.29637742 254.0576849 451.30089247 C250.74907006 451.31196281 247.44050253 451.3185068 244.13187599 451.32307363 C240.56506011 451.32902995 236.99826165 451.34064041 233.43145752 451.35136414 C224.80962942 451.37589816 216.18779553 451.39052228 207.56594324 451.4034242 C205.12828567 451.40713718 202.69062866 451.41111038 200.25297165 451.41517687 C185.10088926 451.4404283 169.94880594 451.46247195 154.79670715 451.47490501 C151.28587847 451.47783454 147.77504981 451.48079621 144.26422119 451.48381042 C143.39166085 451.48455648 142.51910051 451.48530253 141.62009895 451.48607118 C127.51663615 451.49869763 113.41330022 451.53188212 99.30989659 451.57361226 C84.81277996 451.61615329 70.315728 451.63961456 55.81854916 451.64482558 C47.68626848 451.64822732 39.55418551 451.65983434 31.42196655 451.69292831 C24.48833518 451.72109855 17.55494202 451.73185486 10.6212579 451.72073285 C7.0906782 451.7155879 3.56059593 451.71815596 0.03009033 451.74319839 C-26.47139774 451.9009828 -49.56352711 448.22815748 -69.94281006 430.13371277 C-70.62472412 429.59359558 -71.30663818 429.05347839 -72.00921631 428.49699402 C-88.25975319 415.36299846 -98.30276536 393.58552914 -100.94281006 373.13371277 C-101.09211477 369.20419219 -101.08630233 365.27700545 -101.08325195 361.34501648 C-101.08622308 360.14920346 -101.0891942 358.95339044 -101.09225535 357.72134066 C-101.09942006 354.40984671 -101.10211346 351.09840467 -101.10285282 347.78690672 C-101.10470801 344.212063 -101.11225779 340.63723043 -101.11898804 337.06239319 C-101.1325543 329.24800965 -101.13859372 321.43363125 -101.1429987 313.6192379 C-101.1457646 308.73551704 -101.15000265 303.85179814 -101.15450287 298.96807861 C-101.16669444 285.43464533 -101.17699324 271.90121362 -101.18037796 258.36777496 C-101.18059753 257.50202985 -101.18081709 256.63628474 -101.18104331 255.74430493 C-101.18126159 254.87653525 -101.18147987 254.00876557 -101.18170476 253.11469984 C-101.18214822 251.35638904 -101.18259478 249.59807825 -101.18304443 247.83976746 C-101.18326586 246.96759207 -101.18348729 246.09541668 -101.18371543 245.19681174 C-101.18766003 231.0772669 -101.2051042 216.95777378 -101.22840396 202.83824891 C-101.2521569 188.32637005 -101.26458164 173.8145171 -101.26574588 159.3026185 C-101.26666055 151.16109811 -101.27235999 143.01964508 -101.29056549 134.87814331 C-101.30601994 127.94264889 -101.31105567 121.00724263 -101.30282739 114.07173425 C-101.29893939 110.5378267 -101.29975891 107.00409639 -101.31388474 103.47021103 C-101.42843789 73.02539084 -95.74168148 47.52803897 -73.86468506 24.99308777 C-53.16553269 5.52055184 -27.72716367 -0.04185004 0 0 Z " fill="#213C7C" transform="translate(986.9428100585938,974.8662872314453)"/>
<path d="M0 0 C1.38542775 -0.0029957 2.77085468 -0.00639918 4.15628052 -0.01017761 C7.90428914 -0.0189793 11.65227491 -0.02135409 15.40029287 -0.0219934 C17.74570673 -0.022706 20.09111483 -0.02484428 22.43652725 -0.02749062 C30.62956356 -0.03673087 38.82258365 -0.0408271 47.015625 -0.04003906 C54.63584103 -0.0394384 62.25598623 -0.0499913 69.87618434 -0.06578273 C76.43352778 -0.07888422 82.99084813 -0.08422188 89.54820454 -0.08358365 C93.45801292 -0.08332946 97.36775829 -0.08613697 101.27755356 -0.0967617 C104.95643106 -0.10648691 108.63518586 -0.10649176 112.31406784 -0.09924507 C114.29587147 -0.09771144 116.2776752 -0.10601469 118.25946045 -0.11468506 C135.41156597 -0.05458451 135.41156597 -0.05458451 141.62548828 4.89526367 C142.24037109 5.36448242 142.85525391 5.83370117 143.48876953 6.31713867 C148.61615338 11.45550193 150.30221649 16.6994669 151.9375 23.60522461 C152.16773487 24.53542671 152.39796974 25.46562881 152.63518143 26.42401886 C153.39085068 29.48986614 154.12938122 32.55956519 154.86767578 35.62963867 C155.3983004 37.79879398 155.92988133 39.96771555 156.46237183 42.13641357 C157.83131916 47.72612686 159.18531406 53.31933581 160.53373718 58.91403198 C161.26953298 61.96507254 162.00818035 65.01540367 162.74816895 68.06542969 C165.76014438 80.48333303 168.7389579 92.90903036 171.70732117 105.33742142 C173.76928703 113.96674963 175.83733494 122.59462458 177.90394592 131.22284126 C178.71380046 134.60439793 179.52335603 137.98602608 180.33288574 141.36766052 C184.28323752 157.8660093 188.25116815 174.3600817 192.22705078 190.85229492 C192.80580217 193.25346742 193.3845477 195.65464133 193.96328735 198.05581665 C196.45837783 208.40705766 198.95427408 218.75810281 201.45272255 229.10853386 C202.48251719 233.3761779 203.51099276 237.64413935 204.53935623 241.91212845 C205.28987833 245.02438144 206.04241184 248.1361436 206.79501343 251.24789429 C209.46801747 262.32315747 212.07168284 273.41146845 214.60400391 284.51977539 C215.4166232 288.06043756 216.23016669 291.60088633 217.04389191 295.14129448 C217.81278401 298.50951546 218.56571072 301.8810501 219.31829834 305.25294495 C219.78743115 307.29852834 220.25730059 309.34394297 220.72802734 311.38916016 C220.93093636 312.3222016 221.13384537 313.25524303 221.34290314 314.21655846 C222.80670086 320.57942469 222.80670086 320.57942469 227.31298828 325.14526367 C231.86369477 325.7807738 231.86369477 325.7807738 235.91539001 324.00283813 C237.83177205 321.45573829 238.35015032 319.08095955 239.11206055 315.98657227 C239.2693139 315.3604539 239.42656725 314.73433554 239.58858585 314.08924389 C240.11231112 311.99310126 240.62078117 309.89355743 241.12939453 307.79370117 C241.50041653 306.29566617 241.87237707 304.79786335 242.24520874 303.30027771 C243.25569884 299.23005578 244.25303851 295.15671139 245.24814987 291.08270645 C246.3051351 286.7653171 247.37428233 282.45094123 248.44213867 278.13623047 C250.43337095 270.0831597 252.4142701 262.02758735 254.39111805 253.97097492 C256.35835223 245.95548618 258.33630207 237.94266807 260.31718063 229.93054199 C263.45857766 217.22398077 266.59184705 204.51543505 269.71923828 191.80541992 C272.67334247 179.80005108 275.63159172 167.79571516 278.59543037 155.79274559 C279.22086961 153.25975063 279.84615232 150.72671706 280.47142029 148.19367981 C282.35357122 140.56990842 284.23712552 132.94649239 286.12624645 125.32444477 C287.16977566 121.11387728 288.21233578 116.9030703 289.25439453 112.69213867 C289.46108324 111.85700933 289.66777195 111.02188 289.88072395 110.16144371 C292.7188056 98.68634304 295.51270991 87.20125758 298.27253723 75.70709229 C299.77966717 69.43040731 301.29816799 63.15648878 302.81913662 56.88314438 C304.05033349 51.80005954 305.26586741 46.71356662 306.46960163 41.62391281 C307.21539537 38.48735512 307.97617097 35.35457173 308.741045 32.2226181 C309.08993582 30.78067972 309.4326534 29.33723028 309.76846123 27.89218903 C311.98061617 18.39016179 314.53042532 10.20004531 322.18798828 3.70776367 C328.46095463 0.5712805 334.58011178 -0.15281289 341.51391602 -0.11352539 C342.29066681 -0.11703003 343.0674176 -0.12053467 343.8677063 -0.12414551 C346.41075842 -0.13287842 348.95352755 -0.12714318 351.49658203 -0.12036133 C353.27962802 -0.12171054 355.06267365 -0.12365321 356.84571838 -0.12615967 C360.57353231 -0.12909962 364.30125004 -0.12485021 368.02905273 -0.11547852 C372.78779238 -0.104093 377.54630615 -0.11064494 382.3050375 -0.12262344 C385.98466161 -0.12987968 389.66423294 -0.12753675 393.34385872 -0.12236786 C395.09759613 -0.12104132 396.85133846 -0.12264385 398.60507011 -0.12732697 C421.58793413 -0.17523518 421.58793413 -0.17523518 429.31298828 6.14526367 C435.1525162 12.25022468 436.68688079 17.3891167 436.61709595 25.62887573 C435.9463499 33.38469243 433.68639591 40.88603896 431.73095703 48.39916992 C431.24440006 50.30797569 430.759 52.21707667 430.27467346 54.12644958 C428.9703493 59.25491701 427.64994193 64.37911757 426.32652283 69.50268555 C424.93181019 74.91427878 423.55247489 80.32979002 422.17138672 85.74487305 C419.14706028 97.59139927 416.10213738 109.43257054 413.05257416 121.27262115 C411.95436678 125.53819371 410.85833296 129.80432343 409.76269531 134.07055664 C409.47123674 135.20534344 409.47123674 135.20534344 409.17389011 136.36305523 C408.79332858 137.84478625 408.41277704 139.32651984 408.0322361 140.80825615 C407.10563718 144.41601588 406.17875355 148.02370241 405.25170898 151.63134766 C405.07116439 152.33397641 404.89061979 153.03660517 404.70460415 153.7605257 C403.60101106 158.05450705 402.49564127 162.34802739 401.38925457 166.64128971 C394.54780028 193.19430213 387.84077603 219.7807957 381.14492798 246.37084961 C363.35425821 317.0197305 363.35425821 317.0197305 355.58325195 347.41699219 C354.78913582 350.52363337 353.99749718 353.6308874 353.20825195 356.73876953 C352.30200761 360.30671244 351.39038047 363.87323588 350.47445488 367.43870544 C349.99997249 369.29055717 349.53060169 371.1437164 349.0615387 372.99694824 C341.83134951 401.01069155 329.74903346 424.81044924 304.31298828 440.14526367 C284.58452074 451.40864123 264.51663601 451.75937158 242.44226527 451.68256569 C238.55806214 451.67229797 234.6738931 451.68186875 230.78968811 451.68811035 C224.27321479 451.69534646 217.756924 451.68590527 211.24047852 451.66674805 C203.74958647 451.64497785 196.25913006 451.65204795 188.7682485 451.67405367 C182.28869096 451.69231287 175.80926314 451.69471534 169.32968813 451.68429899 C165.48067991 451.67812253 161.63187522 451.67706434 157.78288078 451.69044495 C127.1778366 451.7822376 102.10791662 447.30225231 79.19970703 425.12182617 C68.36960095 414.20113707 60.89920269 401.51965344 56.76220703 386.69604492 C56.51284897 385.81213577 56.26349091 384.92822662 56.00657654 384.01753235 C51.63533394 368.3178788 47.67093677 352.50426917 43.61751938 336.72044373 C41.30036451 327.70302932 38.97401 318.68797978 36.64892578 309.67260742 C36.25293088 308.13665609 36.25293088 308.13665609 35.84893608 306.56967545 C32.12587619 292.13102652 28.37912108 277.69878415 24.60205078 263.27416992 C24.37094416 262.39157249 24.13983753 261.50897507 23.90172768 260.59963226 C22.5026987 255.2577128 21.10274501 249.91603589 19.70265579 244.57439423 C13.31706822 220.21009014 6.96212512 195.83830937 0.68408203 171.44604492 C0.40529016 170.36292274 0.1264983 169.27980057 -0.16074181 168.16385651 C-2.9597333 157.28751174 -5.7546474 146.41012944 -8.54222393 135.53085327 C-9.88620114 130.28614006 -11.23146585 125.04175799 -12.57763672 119.79760742 C-12.83873041 118.78044395 -13.0998241 117.76328049 -13.36882973 116.71529388 C-16.67033006 103.86387724 -20.02706675 91.02901919 -23.4703331 78.21484947 C-24.09838391 75.87578578 -24.72418573 73.53613295 -25.34915161 71.19624329 C-25.74772523 69.70455492 -26.146315 68.21287088 -26.54492188 66.72119141 C-26.73651445 66.00399461 -26.92810703 65.28679781 -27.12550545 64.54786777 C-28.04304792 61.1193449 -28.96801055 57.69318036 -29.91082764 54.27151489 C-38.5680298 22.785794 -38.5680298 22.785794 -34.2890625 12.9230957 C-31.16374639 7.50403952 -26.52304756 3.42601331 -20.68701172 1.14526367 C-13.8344876 -0.19143608 -6.95907968 -0.00244762 0 0 Z " fill="#213C7C" transform="translate(410.68701171875,974.854736328125)"/>
<path d="M0 0 C3.303442 0.00008053 6.60674315 -0.00675869 9.91015625 -0.02050781 C105.44965321 -0.41147534 105.44965321 -0.41147534 122.74804688 9.81030273 C129.36250178 16.79222735 131.11529586 24.01626064 131.14331055 33.41894531 C131.14834846 34.48341133 131.14834846 34.48341133 131.15348816 35.56938171 C131.16295606 37.90621715 131.16493926 40.24298059 131.16601562 42.57983398 C131.16923141 44.21262135 131.17259573 45.84540842 131.17610168 47.47819519 C131.18208277 50.89855619 131.18394266 54.31889196 131.18334961 57.73925781 C131.18324812 62.10694135 131.19689144 66.47446186 131.21412182 70.84210682 C131.22527975 74.21458163 131.22726764 77.58701752 131.22673988 80.9595089 C131.22791462 82.56894174 131.2323078 84.17837576 131.24007225 85.7877903 C131.24994781 88.04646609 131.2469645 90.30479433 131.2409668 92.56347656 C131.24239182 93.8452327 131.24381683 95.12698883 131.24528503 96.44758606 C130.69827298 104.71724836 128.41679302 111.33069495 122.06054688 116.93530273 C113.87661468 122.94798761 104.66892116 121.42401043 95.00756836 120.95483398 C79.92661481 120.22398427 64.87118453 119.99905403 49.7734375 120 C45.89767404 119.99781661 42.02219784 119.97957655 38.14648438 119.96069336 C24.93282321 119.93074035 11.79061613 120.22956187 -1.39257812 121.08764648 C-2.63178009 121.16747269 -3.87098206 121.24729889 -5.1477356 121.32954407 C-24.59074912 122.72636389 -41.33258343 128.9734842 -55.06445312 143.18530273 C-80.63134788 173.39608456 -76.30549805 227.26365339 -73.25231934 264.39685059 C-71.52849087 283.91636927 -69.21826912 303.17872164 -57.00195312 319.18530273 C-56.45152344 319.92393555 -55.90109375 320.66256836 -55.33398438 321.42358398 C-42.29456797 337.52128568 -22.75016425 342.96732265 -3.00195312 345.18530273 C4.98634547 346.01474789 12.98664094 346.62991931 20.99804688 347.18530273 C21.80145508 347.24459961 22.60486328 347.30389648 23.43261719 347.36499023 C43.48571419 348.82024738 63.67409353 348.53374952 83.74804688 347.68530273 C99.26506494 347.0339595 99.26506494 347.0339595 106.18554688 346.93530273 C106.88583008 346.9140332 107.58611328 346.89276367 108.30761719 346.87084961 C114.48721241 346.8282527 118.93426681 348.45748686 123.68554688 352.43530273 C129.5601613 359.4213307 131.11141077 365.44118267 131.15917969 374.49487305 C131.16414459 375.21266434 131.1691095 375.93045563 131.17422485 376.66999817 C131.18877729 379.03448461 131.19563737 381.39890394 131.20117188 383.76342773 C131.20399925 384.57505119 131.20682663 385.38667465 131.20973969 386.22289276 C131.22470556 390.51912255 131.23395104 394.815319 131.23828125 399.11157227 C131.24375774 403.53079157 131.26777572 407.94970151 131.2962532 412.36882401 C131.31495696 415.7833747 131.32008931 419.19785207 131.32161713 422.61244965 C131.32462744 424.24060505 131.33260064 425.86875966 131.34580231 427.49686432 C131.50117635 448.13361682 131.50117635 448.13361682 124.68554688 455.56030273 C124.13253906 456.18678711 123.57953125 456.81327148 123.00976562 457.45874023 C117.59699917 462.10426018 112.63869383 462.6666112 105.81054688 462.81030273 C104.81595459 462.84115967 103.8213623 462.8720166 102.79663086 462.90380859 C100.49090998 462.97191865 98.18496973 463.03282674 95.87890625 463.08813477 C92.48645578 463.17307408 89.09555292 463.27731702 85.70394897 463.389328 C30.01386718 465.20180747 -25.48109611 465.20074541 -81.00195312 460.18530273 C-81.94060211 460.10332642 -82.8792511 460.0213501 -83.84634399 459.93688965 C-93.76253097 459.06590207 -103.50607103 458.09752716 -113.18945312 455.68530273 C-114.22207275 455.43103516 -115.25469238 455.17676758 -116.31860352 454.91479492 C-164.68849882 442.35346469 -204.48429637 410.96320228 -230.08349609 368.38647461 C-242.99334136 346.28996162 -249.4736488 322.0033917 -254.25195312 297.06030273 C-254.4983252 295.78767578 -254.74469727 294.51504883 -254.99853516 293.20385742 C-258.47943511 274.29104785 -259.35141081 255.59490114 -259.31762695 236.37939453 C-259.31447804 232.65228674 -259.33798425 228.92598447 -259.36328125 225.19897461 C-259.42425124 202.68972699 -257.38745203 180.54574784 -252.81445312 158.49780273 C-252.66611023 157.76891846 -252.51776733 157.04003418 -252.3649292 156.2890625 C-245.46481702 122.64248941 -232.15959144 91.84249566 -209.00195312 66.18530273 C-207.77147366 64.74892631 -206.54213094 63.31157447 -205.31445312 61.87280273 C-183.81166674 37.57414578 -154.92881959 20.48246175 -124.00195312 11.18530273 C-122.77734375 10.79987305 -121.55273438 10.41444336 -120.29101562 10.01733398 C-98.50952306 3.8514234 -74.50228105 2.56103332 -52.00195312 1.18530273 C-50.71981934 1.09772705 -49.43768555 1.01015137 -48.11669922 0.91992188 C-32.09513144 -0.08832454 -16.04610666 -0.00206354 0 0 Z " fill="#213C7C" transform="translate(1559.001953125,967.814697265625)"/>
<path d="M0 0 C1.15639481 -0.00426498 2.31278961 -0.00852997 3.50422668 -0.01292419 C5.38626297 -0.01224442 5.38626297 -0.01224442 7.30632019 -0.0115509 C8.65219211 -0.01454585 9.99806316 -0.01794915 11.34393311 -0.02172852 C14.98869858 -0.03053901 18.63344055 -0.0329054 22.27821565 -0.0335443 C24.55879792 -0.03425653 26.83937427 -0.03639412 29.11995506 -0.03904152 C37.08605196 -0.04828547 45.05213217 -0.05237763 53.01823425 -0.05158997 C60.42768846 -0.05098956 67.83706978 -0.06153652 75.24650556 -0.07733363 C81.6212402 -0.09043731 87.99595111 -0.09577267 94.37069911 -0.09513456 C98.17209386 -0.09488038 101.97342381 -0.09768684 105.77480507 -0.10831261 C109.35271499 -0.11804121 112.93049877 -0.11804038 116.50841331 -0.11079597 C118.43535859 -0.10926299 120.36230398 -0.11756367 122.28923035 -0.12623596 C131.47783338 -0.093149 139.73285475 0.10603099 147.10002136 6.13371277 C152.62351279 11.70323329 154.34855822 16.43074707 154.35729027 24.21784496 C154.36079634 24.92298167 154.36430242 25.62811838 154.36791474 26.35462287 C154.37723721 28.72338123 154.37230327 31.0918942 154.3674469 33.46066284 C154.37118275 35.17377018 154.375784 36.88687582 154.38117754 38.59997874 C154.3934313 43.31245006 154.39314428 48.02485051 154.39078879 52.73733413 C154.39038122 57.81793242 154.40141415 62.8985078 154.41090393 67.97909546 C154.42752846 77.93535563 154.43301415 87.89159212 154.43412869 97.84786501 C154.43507857 105.94072297 154.4391859 114.03357311 154.44552994 122.1264286 C154.46314713 145.06664702 154.47236818 168.00684671 154.47086899 190.94707193 C154.47078908 192.18420784 154.47070917 193.42134375 154.47062683 194.69596863 C154.47054507 195.93461376 154.47046331 197.17325889 154.47037907 198.44943873 C154.46956627 218.5209621 154.48870122 238.59241042 154.51690356 258.66391208 C154.54562702 279.26877013 154.55944412 299.87359157 154.55771601 320.47847015 C154.55705187 332.04825719 154.56255448 343.61796558 154.58407211 355.1877346 C154.60227691 365.03949071 154.60663705 374.8911325 154.59305327 384.74289813 C154.58651982 389.76893811 154.58642008 394.79475873 154.60375977 399.82077789 C154.61947895 404.42447144 154.61663856 409.02777151 154.5991915 413.6314554 C154.59611905 415.29432791 154.59976325 416.9572297 154.61091165 418.62006768 C154.73243076 438.03566296 154.73243076 438.03566296 148.34999979 445.05964297 C143.38721399 449.68889993 138.69104765 451.38012385 131.89596558 451.40113831 C130.64694458 451.40966827 129.39792358 451.41819824 128.11105347 451.42698669 C126.73457324 451.42628773 125.35809311 451.4253647 123.98161316 451.42424011 C122.52589066 451.43022728 121.07017134 451.43703326 119.61445618 451.44459534 C115.6659769 451.46224445 111.71758434 451.46695028 107.76906943 451.46822691 C105.30004525 451.4696498 102.83104303 451.47392205 100.36202431 451.47922134 C91.74220508 451.49771876 83.12244767 451.50589241 74.50260925 451.50431824 C66.47788972 451.50311725 58.45343933 451.52421181 50.42878789 451.55580556 C43.53094176 451.58199155 36.6331834 451.59268455 29.73528796 451.59140742 C25.61917169 451.59089842 21.50329461 451.59654685 17.38722801 451.61776352 C13.51374582 451.63718498 9.64073001 451.63724407 5.76723099 451.62273026 C4.34991713 451.6206458 2.93257378 451.62532142 1.51531029 451.63745117 C-7.55592434 451.71002633 -14.0898076 451.34889749 -21.14216614 445.16886902 C-21.68099426 444.51789246 -22.21982239 443.86691589 -22.77497864 443.19621277 C-23.32927551 442.54781433 -23.88357239 441.89941589 -24.45466614 441.23136902 C-27.65651982 436.58435436 -28.15099919 432.61884229 -28.15724754 427.02837658 C-28.16075362 426.3209523 -28.16425969 425.61352803 -28.16787201 424.88466665 C-28.17719474 422.50814652 -28.17226049 420.13187096 -28.16740417 417.75534058 C-28.17114 416.03668306 -28.17574124 414.31802723 -28.18113482 412.59937412 C-28.19338865 407.87164006 -28.19310155 403.14397664 -28.19074607 398.41623032 C-28.1903385 393.31931025 -28.20137127 388.22241301 -28.21086121 383.12550354 C-28.2274852 373.1378299 -28.23297138 363.15017986 -28.23408596 353.16249355 C-28.23503576 345.0453049 -28.23914266 336.92812406 -28.24548721 328.81093788 C-28.26310337 305.80525063 -28.27232549 282.79958204 -28.27082627 259.793888 C-28.27074635 258.55323964 -28.27066644 257.31259129 -28.27058411 256.03434753 C-28.27050235 254.79218717 -28.27042058 253.5500268 -28.27033634 252.2702252 C-28.26952332 232.13591881 -28.28866424 212.00168721 -28.31686084 191.86740246 C-28.34557388 171.20153341 -28.35940201 150.53570086 -28.35767329 129.86981136 C-28.35700884 118.2643177 -28.36252493 106.65890245 -28.38402939 95.05342674 C-28.40222038 85.17270129 -28.40660563 75.29208979 -28.39301054 65.41135486 C-28.38647042 60.36936081 -28.38640139 55.32758549 -28.40371704 50.28561211 C-28.41940658 45.66968721 -28.41662632 41.05415522 -28.39914878 36.43824015 C-28.39606979 34.76867381 -28.39974501 33.09907844 -28.41086893 31.42954632 C-28.51899511 14.04992319 -28.51899511 14.04992319 -22.52349222 7.6686613 C-15.78678569 1.6110817 -8.81491061 0.01476593 0 0 Z " fill="#213C7C" transform="translate(175.8999786376953,974.8662872314453)"/>
</svg>
