<?xml version="1.0" encoding="UTF-8"?>
<svg version="1.1" xmlns="http://www.w3.org/2000/svg" width="1280" height="710">
<path d="M0 0 C3.02000909 0.00461218 6.03961344 -0.00224475 9.05957031 -0.02050781 C37.41119609 -0.19000502 65.53255975 1.5115422 93.61376953 5.56567383 C94.33422455 5.66794281 95.05467957 5.77021179 95.79696655 5.87557983 C132.81962345 11.1660987 169.16897024 20.25602775 204.55126953 32.31567383 C205.58880371 32.66710449 206.62633789 33.01853516 207.6953125 33.38061523 C274.91607769 56.32909398 338.10004482 91.56695404 392.81005859 136.87866211 C395.33284673 138.96070515 397.88218723 141.00974177 400.42626953 143.06567383 C404.80458557 146.64972264 409.02600841 150.37967635 413.20751953 154.19067383 C415.35819664 156.14062107 417.53951924 158.04593512 419.73876953 159.94067383 C422.90098416 162.69097674 425.85001545 165.59277553 428.78564453 168.58129883 C430.56351038 170.32769802 432.40612348 171.94786622 434.30126953 173.56567383 C441.56738072 179.84415826 448.32349023 186.72875965 454.55126953 194.03442383 C456.72037513 196.5085599 458.95997894 198.90489576 461.21240234 201.30297852 C466.46891703 206.90094202 471.52951152 212.56852543 476.32861328 218.56958008 C478.29906434 221.00407409 480.3253939 223.37757702 482.37866211 225.7421875 C489.97614922 234.53159774 496.7692085 243.89100084 503.55126953 253.31567383 C504.08429688 254.05398438 504.61732422 254.79229492 505.16650391 255.55297852 C521.51542959 278.25070282 535.95685577 302.03725341 549.14599609 326.69750977 C550.45287543 329.13235584 551.77681969 331.55699183 553.10595703 333.97973633 C592.95276328 407.24057411 614.60615134 492.85769789 619.67626953 646.19067383 C619.63715454 647.06762909 619.59803955 647.94458435 619.55773926 648.84811401 C619.44050226 651.41844183 619.31374542 653.98813312 619.18408203 656.55786133 C619.1506369 657.30220932 619.11719177 658.04655731 619.08273315 658.8134613 C618.66088165 666.7437687 617.54537417 674.36283673 616.55126953 682.31567383 C593.45126953 682.31567383 570.35126953 682.31567383 546.55126953 682.31567383 C547.55126953 667.31567383 547.55126953 667.31567383 548.08642578 661.19458008 C555.95842896 569.92581998 541.18821971 473.87512794 493.06542969 372.36303711 C491.81416783 369.84477678 490.58534801 367.31880448 489.37548828 364.78051758 C475.88130779 336.64672445 458.12097621 309.54789808 438.875 285.00415039 C437.50728421 283.25956861 436.15550835 281.50342263 434.80517578 279.74536133 C416.60415976 256.17328959 396.31831585 232.42160995 373.59814453 213.08129883 C371.09412104 210.92133963 368.67129255 208.6807939 366.23876953 206.44067383 C360.8363583 201.51995907 355.24961091 196.88768505 349.55126953 192.31567383 C348.37249442 191.35651714 347.19412981 190.3968558 346.01611328 189.43676758 C337.75579157 182.72904037 329.33194275 176.32937506 320.55126953 170.31567383 C319.60735352 169.66824219 318.6634375 169.02081055 317.69091797 168.35375977 C294.83654477 152.74538139 271.30842146 138.73041336 246.55126953 126.31567383 C245.62523926 125.85064453 244.69920898 125.38561523 243.74511719 124.90649414 C170.17964017 88.23282707 87.86530404 70.03413858 5.80126953 70.12817383 C4.8184903 70.12877808 3.83571106 70.12938232 2.82315063 70.13000488 C-14.00486591 70.15792305 -30.69113923 70.6524972 -47.44873047 72.31567383 C-49.32165771 72.50105713 -49.32165771 72.50105713 -51.23242188 72.69018555 C-130.9306212 80.93896418 -207.87870675 106.96703247 -276.44873047 148.31567383 C-277.37347168 148.86900391 -278.29821289 149.42233398 -279.25097656 149.99243164 C-291.78451214 157.50853368 -303.73872427 165.57730237 -315.44873047 174.31567383 C-316.87815383 175.37202093 -318.30783915 176.42801366 -319.73779297 177.48364258 C-327.48231529 183.22276593 -335.07836567 189.09920253 -342.44873047 195.31567383 C-343.25624756 195.99581543 -343.25624756 195.99581543 -344.08007812 196.68969727 C-351.82056729 203.22339463 -359.40161284 209.89952418 -366.81689453 216.80151367 C-368.63294794 218.48660691 -370.45869483 220.16086828 -372.28466797 221.83520508 C-380.94661391 229.78588482 -380.94661391 229.78588482 -388.85498047 238.47192383 C-390.73596342 240.64796293 -392.76196702 242.62289705 -394.82373047 244.62817383 C-398.97497995 248.72303962 -402.63059245 253.09166469 -406.27294922 257.63989258 C-408.22545331 260.04108701 -410.24022248 262.34098278 -412.32373047 264.62817383 C-436.84619564 291.99872058 -457.11751588 324.02585309 -474.44873047 356.31567383 C-474.91102051 357.16790527 -475.37331055 358.02013672 -475.84960938 358.89819336 C-516.89286419 434.7494172 -538.17081861 520.46747316 -536.88232422 669.19067383 C-536.42472223 673.54407649 -536.44873047 677.93828713 -536.44873047 682.31567383 C-559.54873047 682.31567383 -582.64873047 682.31567383 -606.44873047 682.31567383 C-611.27891307 637.23396954 -611.96590092 590.39051762 -606.44873047 545.31567383 C-606.3638739 544.60586365 -606.27901733 543.89605347 -606.19158936 543.16473389 C-597.90774486 474.11089852 -578.24103963 408.07097699 -548.44873047 345.31567383 C-547.97838379 344.32374023 -547.50803711 343.33180664 -547.0234375 342.30981445 C-527.13600287 300.71262063 -501.26515613 261.52794474 -471.87695312 226.0480957 C-469.83610557 223.57256506 -467.83445911 221.06569168 -465.82373047 218.56567383 C-461.80138797 213.64865588 -457.55033975 208.98181593 -453.22216797 204.33520508 C-451.17966401 202.136328 -449.20952513 199.88606464 -447.25170898 197.61157227 C-443.59895051 193.43135008 -439.75790323 189.47999101 -435.82763672 185.56176758 C-434.77224953 184.5049453 -434.77224953 184.5049453 -433.69554138 183.42677307 C-432.21858399 181.94914016 -430.74038305 180.47274926 -429.26098633 178.99755859 C-427.01707962 176.75900901 -424.77856343 174.5151691 -422.54052734 172.27075195 C-421.09488429 170.82576979 -419.64893101 169.38109791 -418.20263672 167.93676758 C-417.54405167 167.27615829 -416.88546661 166.61554901 -416.20692444 165.93492126 C-411.78132084 161.53120081 -407.18854969 157.37788076 -402.44873047 153.31567383 C-401.29617866 152.31851843 -400.14380129 151.32116132 -398.99169922 150.32348633 C-379.36449232 133.43180878 -359.04043305 117.63263354 -337.44873047 103.31567383 C-336.76456055 102.85918457 -336.08039063 102.40269531 -335.37548828 101.93237305 C-313.22023871 87.18908106 -290.24236836 74.18526893 -266.44873047 62.31567383 C-265.43037109 61.80520508 -264.41201172 61.29473633 -263.36279297 60.76879883 C-204.45228634 31.39251402 -140.66418096 13.57288916 -75.63623047 4.56567383 C-74.9202771 4.46453278 -74.20432373 4.36339172 -73.4666748 4.25918579 C-49.04734942 0.84640938 -24.62016817 -0.04058568 0 0 Z " fill="#9F9D9E" transform="translate(634.44873046875,13.684326171875)"/>
<path d="M0 0 C95 0 95 0 117.62109375 13.34375 C122.08897843 18.37085608 125.97626449 22.88708683 129.80041504 28.27728271 C132.64123687 32.13434813 135.81320472 35.704064 138.95507812 39.31640625 C144.96542494 46.31511879 150.59127972 53.52891374 156 61 C160.10851107 59.46036539 161.83819093 56.85715544 164.36254883 53.35693359 C181.09653611 31.04738477 196.39762515 18.86876764 219 0 C250.35 0 281.7 0 314 0 C314 63.36 314 126.72 314 192 C280.34 192 246.68 192 212 192 C211.67 169.56 211.34 147.12 211 124 C193.51 141.49 176.02 158.98 158 177 C154.02824765 175.01412382 151.96392976 173.20632546 148.86425781 170.09130859 C148.36624161 169.59358444 147.8682254 169.09586029 147.3551178 168.58305359 C145.71633267 166.9428793 144.08473866 165.29574339 142.453125 163.6484375 C141.31584653 162.50742744 140.1781246 161.36685923 139.03997803 160.22671509 C136.05010021 157.22921238 133.06627809 154.22575149 130.0836792 151.2210083 C126.50137987 147.61462268 122.91160035 144.0156846 119.32307434 140.41549683 C113.87629895 134.94934741 108.43910883 129.47382654 103 124 C102.67 146.44 102.34 168.88 102 192 C68.34 192 34.68 192 0 192 C0 128.64 0 65.28 0 0 Z " fill="#B2B1B1" transform="translate(139,504)"/>
<path d="M0 0 C16.21125 -0.20625 32.4225 -0.4125 49.125 -0.625 C54.21824707 -0.71604004 59.31149414 -0.80708008 64.55908203 -0.90087891 C70.84350586 -0.94604492 70.84350586 -0.94604492 73.79806519 -0.95443726 C75.83433981 -0.96965919 77.87053185 -1.00455117 79.90621948 -1.05575562 C94.47600824 -1.40348494 103.17738313 -0.01298371 114 10 C115.38542728 11.05551316 116.78120117 12.09806747 118.19921875 13.109375 C119.36309156 13.98811193 120.52586422 14.86830798 121.6875 15.75 C127.59554124 20.20735389 133.53624407 24.6174838 139.5 29 C145.35543551 33.30444742 151.19304319 37.63036538 157 42 C165.13221214 48.11724994 173.32504974 54.15075351 181.52392578 60.17822266 C184.0788066 62.05798214 186.63149934 63.94067825 189.18359375 65.82421875 C190.03203857 66.45021973 190.8804834 67.0762207 191.75463867 67.72119141 C193.36833707 68.91192747 194.98179738 70.10298627 196.5949707 71.29443359 C197.33191162 71.83793457 198.06885254 72.38143555 198.828125 72.94140625 C199.4665332 73.41263916 200.10494141 73.88387207 200.76269531 74.36938477 C203.82572338 76.60181214 206.91575982 78.7969713 210 81 C210 54.27 210 27.54 210 0 C243.66 0 277.32 0 312 0 C312 63.36 312 126.72 312 192 C295.726875 192.28875 279.45375 192.5775 262.6875 192.875 C257.58756592 193.00245605 252.48763184 193.12991211 247.2331543 193.26123047 C240.90783691 193.32446289 240.90783691 193.32446289 237.92781067 193.33621216 C235.88737476 193.35743131 233.84709211 193.40608514 231.80781555 193.47805786 C215.52719666 194.02291425 206.36862097 190.66816021 194.16077614 179.85446548 C190.44918701 176.66902956 186.46499123 173.85835843 182.5 171 C180.91936692 169.83757561 179.33979602 168.67370423 177.76171875 167.5078125 C174.55736102 165.14656803 171.35147783 162.78741454 168.14453125 160.4296875 C160.08777512 154.50407331 152.05257465 148.55276097 144.06005859 142.54077148 C130.79551099 132.57503337 117.37869191 122.81104073 104 113 C103.67 139.07 103.34 165.14 103 192 C69.01 192 35.02 192 0 192 C0 128.64 0 65.28 0 0 Z " fill="#B2B0B1" transform="translate(826,504)"/>
<path d="M0 0 C1.52781853 -0.03767487 1.52781853 -0.03767487 3.08650208 -0.07611084 C6.45317765 -0.14768835 9.8174319 -0.16624122 13.18481445 -0.17822266 C15.53026785 -0.20326248 17.87571176 -0.22920536 20.22114563 -0.25601196 C25.13983326 -0.30244548 30.05766737 -0.31940328 34.9765625 -0.31933594 C41.26571597 -0.32420771 47.54869284 -0.43002111 53.83629131 -0.56194115 C58.68286688 -0.64751114 63.52796441 -0.66465247 68.37522316 -0.66301346 C70.69217165 -0.6730901 73.00915192 -0.70751414 75.32535362 -0.76719284 C92.96264629 -1.18122472 92.96264629 -1.18122472 97.80332756 2.51689911 C101.48725394 6.54422712 103.65859711 11.08288633 105.8605957 16.03271484 C106.7789039 17.51238137 107.71969753 18.97944458 108.71606445 20.40771484 C109.49438207 21.61542111 110.27173288 22.82375103 111.0480957 24.03271484 C115.42258582 30.81755699 119.82300886 37.58508911 124.2355957 44.34521484 C131.6531748 55.71108702 139.05127839 67.08951798 146.44458008 78.47119141 C155.23437648 92.00185585 164.04366766 105.51971656 172.8605957 119.03271484 C183.3743351 135.14627976 193.87503972 151.26817993 204.34887695 167.40771484 C204.92621582 168.29692627 205.50355469 169.1861377 206.09838867 170.10229492 C207.19032809 171.78412003 208.28183624 173.46622526 209.37280273 175.14868164 C209.87279785 175.91865479 210.37279297 176.68862793 210.88793945 177.48193359 C211.37246582 178.22878418 211.85699219 178.97563477 212.35620117 179.74511719 C213.41407918 181.35373727 214.48747939 182.95220388 215.57202148 184.54296875 C216.12229004 185.35040527 216.67255859 186.1578418 217.23950195 186.98974609 C217.74167236 187.71782471 218.24384277 188.44590332 218.76123047 189.19604492 C219.8605957 191.03271484 219.8605957 191.03271484 219.8605957 193.03271484 C206.16117202 193.26450669 192.46221536 193.44214415 178.76122952 193.55083656 C172.39903399 193.603007 166.03818074 193.67375507 159.67675781 193.78710938 C153.53638103 193.89583896 147.39729431 193.95557212 141.25602913 193.98148727 C138.91430409 193.99995221 136.57264902 194.03601246 134.23147392 194.09001541 C115.94511265 194.49500849 115.94511265 194.49500849 111.04324341 191.05633545 C109.17418473 188.43681971 108.10942988 185.99566352 106.8605957 183.03271484 C105.25580008 179.57928814 103.61570507 176.69124866 100.8605957 174.03271484 C97.05575906 172.73256404 93.43050601 172.83356729 89.43920898 172.91918945 C88.29716507 172.90812164 87.15512115 172.89705383 85.97846985 172.88565063 C82.21141942 172.85967795 78.44781131 172.8970628 74.6809082 172.93505859 C72.06630334 172.92940566 69.45170428 172.91979508 66.83712769 172.90638733 C60.66394756 172.88139426 54.49180269 172.90200921 48.31871784 172.93916088 C41.28838167 172.97924001 34.25841243 172.96824819 27.22801232 172.95304477 C12.77195744 172.92292328 -1.68352283 172.95668208 -16.1394043 173.03271484 C-16.39513214 173.69847031 -16.65085999 174.36422577 -16.91433716 175.05015564 C-17.31860931 176.03440018 -17.72288147 177.01864471 -18.1394043 178.03271484 C-18.49068201 178.92136073 -18.49068201 178.92136073 -18.84905624 179.82795906 C-21.02443254 184.95422535 -23.59722951 189.6645816 -28.1394043 193.03271484 C-35.82760672 195.75014287 -44.51044151 194.77402805 -52.5222168 194.49755859 C-54.90682279 194.46955342 -57.29151557 194.44821481 -59.67623901 194.4332428 C-65.92901269 194.37618366 -72.17649226 194.22905515 -78.42718506 194.06268311 C-84.81490452 193.90875359 -91.20348662 193.8406284 -97.5925293 193.76513672 C-110.11047049 193.60464881 -122.62449589 193.34892654 -135.1394043 193.03271484 C-134.42038689 191.90470459 -134.42038689 191.90470459 -133.68684387 190.75390625 C-133.05735336 189.76567871 -132.42786285 188.77745117 -131.77929688 187.75927734 C-131.15557693 186.78039551 -130.53185699 185.80151367 -129.88923645 184.79296875 C-128.54516156 182.67277227 -127.21331347 180.54765312 -125.90112305 178.40771484 C-120.13826153 169.03085543 -114.06319225 159.87702512 -107.93539429 150.73681641 C-103.57328484 144.22744424 -99.23379665 137.71534808 -95.1394043 131.03271484 C-90.29123247 123.11980582 -85.09919116 115.43875618 -79.93237305 107.73242188 C-75.57127678 101.2245156 -71.23286503 94.71382753 -67.1394043 88.03271484 C-62.6685135 80.73558237 -57.90393176 73.63958184 -53.1394043 66.53271484 C-46.02909678 55.93700994 -46.02909678 55.93700994 -39.2019043 45.15771484 C-34.39358977 37.33096259 -29.35925433 29.65391098 -24.3269043 21.97021484 C-23.70140182 21.0134787 -23.70140182 21.0134787 -23.06326294 20.03741455 C-21.85470539 18.18964925 -20.64393937 16.34335214 -19.43237305 14.49755859 C-18.7262085 13.42111084 -18.02004395 12.34466309 -17.29248047 11.2355957 C-16.58196533 10.17864502 -15.8714502 9.12169434 -15.1394043 8.03271484 C-14.82671349 7.43616561 -14.51402267 6.83961637 -14.19185638 6.22498989 C-10.62983381 0.04344852 -6.75764141 -0.01130112 0 0 Z M41.8605957 83.03271484 C40.68041036 84.73512646 39.54978806 86.47190936 38.4387207 88.22021484 C37.74262695 89.31205078 37.0465332 90.40388672 36.3293457 91.52880859 C35.5897083 92.6967431 34.85012535 93.8647121 34.1105957 95.03271484 C33.38695388 96.16963511 32.66299921 97.30635632 31.9387207 98.44287109 C29.90708302 101.63597812 27.88289653 104.83368903 25.8605957 108.03271484 C25.32241211 108.87833984 24.78422852 109.72396484 24.22973633 110.59521484 C21.92640179 113.61100217 21.92640179 113.61100217 20.8605957 117.03271484 C35.3805957 117.03271484 49.9005957 117.03271484 64.8605957 117.03271484 C61.70713331 111.35648254 58.61053819 105.93689567 54.9855957 100.59521484 C54.55577393 99.95704834 54.12595215 99.31888184 53.68310547 98.66137695 C52.413867 96.78175038 51.1384171 94.90651417 49.8605957 93.03271484 C49.14516602 91.98083984 48.42973633 90.92896484 47.69262695 89.84521484 C45.33586391 86.39585222 45.33586391 86.39585222 42.8605957 83.03271484 C42.5305957 83.03271484 42.2005957 83.03271484 41.8605957 83.03271484 Z " fill="#C7C6C6" transform="translate(597.139404296875,502.96728515625)"/>
<path d="M0 0 C95 0 95 0 117.62109375 13.34375 C122.08897843 18.37085608 125.97626449 22.88708683 129.80041504 28.27728271 C132.64123687 32.13434813 135.81320472 35.704064 138.95507812 39.31640625 C144.96542494 46.31511879 150.59127972 53.52891374 156 61 C160.10851107 59.46036539 161.83819093 56.85715544 164.36254883 53.35693359 C181.09653611 31.04738477 196.39762515 18.86876764 219 0 C250.35 0 281.7 0 314 0 C314 63.36 314 126.72 314 192 C280.34 192 246.68 192 212 192 C211.67 169.56 211.34 147.12 211 124 C193.51 141.49 176.02 158.98 158 177 C154.02824765 175.01412382 151.96392976 173.20632546 148.86425781 170.09130859 C148.36624161 169.59358444 147.8682254 169.09586029 147.3551178 168.58305359 C145.71633267 166.9428793 144.08473866 165.29574339 142.453125 163.6484375 C141.31584653 162.50742744 140.1781246 161.36685923 139.03997803 160.22671509 C136.05010021 157.22921238 133.06627809 154.22575149 130.0836792 151.2210083 C126.50137987 147.61462268 122.91160035 144.0156846 119.32307434 140.41549683 C113.87629895 134.94934741 108.43910883 129.47382654 103 124 C102.67 146.44 102.34 168.88 102 192 C68.34 192 34.68 192 0 192 C0 128.64 0 65.28 0 0 Z M7 6 C7.97405792 6.82432022 8.94811584 7.64864044 9.95169067 8.49794006 C14.87372427 14.30738423 13.83300238 21.84149488 13.77294922 29.03295898 C13.7811257 30.66945348 13.79193139 32.30593662 13.80516052 33.94239807 C13.83354966 38.37183026 13.82526028 42.80051753 13.81029272 47.22998691 C13.80090268 51.86385748 13.8253726 56.4975475 13.84622192 61.13136292 C13.88054637 69.90019233 13.88450197 78.66876089 13.87749684 87.43764406 C13.87100215 97.42318527 13.89843875 107.40854353 13.92869925 117.39403045 C13.99017176 137.92937396 14.00911869 158.46457446 14 179 C15.40821518 178.99547569 15.40821518 178.99547569 16.84487915 178.99085999 C25.70239891 178.96696164 34.55920843 178.97982447 43.41663551 179.02846622 C47.97020751 179.05229706 52.5230481 179.06327892 57.07666016 179.04467773 C61.47323219 179.02719442 65.86849168 179.04374859 70.26490402 179.08367729 C71.94015618 179.09295495 73.61552225 179.09007025 75.29072952 179.07469368 C88.49052437 178.96532066 88.49052437 178.96532066 92.36102295 181.61837769 C94.01318359 183.55639648 94.01318359 183.55639648 96 187 C96.33 187 96.66 187 97 187 C97.16339147 176.99352961 97.28717021 166.98738511 97.3626852 156.97984409 C97.39895975 152.33104844 97.44802605 147.68317638 97.52807617 143.03491211 C97.60507254 138.53494865 97.64618313 134.03586386 97.6641407 129.53529167 C97.67690954 127.83268363 97.70183571 126.13011454 97.7401104 124.42788887 C97.79219779 122.01156017 97.79787358 119.59869835 97.79467773 117.18188477 C97.81984467 116.50429611 97.8450116 115.82670746 97.87094116 115.12858582 C97.74356044 106.01996462 93.71295252 100.0171704 90 91 C111.78 112.78 133.56 134.56 156 157 C160.26183755 154.86908122 163.03529551 152.23230596 166.32910156 148.89794922 C166.95391418 148.27342865 167.57872681 147.64890808 168.22247314 147.00546265 C170.28330069 144.9432435 172.33695653 142.8740341 174.390625 140.8046875 C175.81936725 139.37221453 177.24855215 137.94018293 178.67816162 136.50857544 C182.43742017 132.74168516 186.19063357 128.96882707 189.94262695 125.19470215 C193.77322817 121.34363269 197.60950595 117.49822729 201.4453125 113.65234375 C208.96911378 106.10710066 216.48654202 98.55554189 224 91 C224.0154612 92.63158302 224.0154612 92.63158302 224.03123474 94.29612732 C224.1287936 104.52359431 224.23151059 114.75099806 224.33933926 124.97836208 C224.39461375 130.23693637 224.44804084 135.49551618 224.49731445 140.75415039 C224.54489142 145.82458064 224.59723154 150.89494097 224.65294075 155.96528816 C224.67339462 157.90424939 224.69210257 159.84322982 224.70907402 161.78222466 C224.73305117 164.48826954 224.76311445 167.19418099 224.79467773 169.90014648 C224.8004332 170.71006546 224.80618866 171.51998444 224.81211853 172.35444641 C224.52349669 175.97664226 224.52349669 175.97664226 226 179 C228.29416209 179.09257246 230.59118235 179.11458526 232.88720703 179.11010742 C234.38103232 179.11065036 235.8748576 179.11123739 237.36868286 179.11186218 C238.16490177 179.11043402 238.96112068 179.10900585 239.78146744 179.10753441 C243.98979381 179.10402401 248.19798497 179.12981609 252.40625 179.15039062 C257.76541244 179.17470137 263.12418869 179.1904682 268.48339844 179.17504883 C272.80968557 179.16336439 277.13501031 179.18084995 281.46114731 179.21749306 C283.10766406 179.22609341 284.75427325 179.22405104 286.40076065 179.210989 C288.71370932 179.19402086 291.02365131 179.21436853 293.33642578 179.24291992 C294.65023224 179.24434494 295.9640387 179.24576996 297.31765747 179.24723816 C301 180 301 180 308 186 C308 126.6 308 67.2 308 6 C279.62 6 251.24 6 222 6 C222.99 8.97 223.98 11.94 225 15 C223.68 15.66 222.36 16.32 221 17 C218.85717885 18.96342185 216.80248919 20.94493915 214.76269531 23.01025391 C214.14763626 23.6250209 213.53257721 24.2397879 212.89888 24.8731842 C210.87051742 26.90293824 208.84932774 28.93968075 206.828125 30.9765625 C205.42180303 32.38661525 204.01503836 33.79622658 202.60784912 35.20541382 C198.90777382 38.91312042 195.21374433 42.62679424 191.52093506 46.34173584 C187.75065747 50.13248259 183.97470239 53.91756457 180.19921875 57.703125 C172.7939064 65.12987841 165.39496768 72.56294714 158 80 C158.020625 79.28714844 158.04125 78.57429687 158.0625 77.83984375 C158.03560171 72.10532644 158.03560171 72.10532644 155.50418091 67.16563416 C154.1391503 66.07935443 152.75565106 65.01607905 151.35943604 63.97018433 C148.52846621 61.60625825 146.53178126 59.01234274 144.31591797 56.06469727 C118.93723112 21.55540077 118.93723112 21.55540077 81.94238281 3.37841797 C57.27635791 0.12350766 31.55462705 2.79613958 7 6 Z " fill="#262223" transform="translate(139,504)"/>
<path d="M0 0 C16.21125 -0.20625 32.4225 -0.4125 49.125 -0.625 C54.21824707 -0.71604004 59.31149414 -0.80708008 64.55908203 -0.90087891 C70.84350586 -0.94604492 70.84350586 -0.94604492 73.79806519 -0.95443726 C75.83433981 -0.96965919 77.87053185 -1.00455117 79.90621948 -1.05575562 C94.47600824 -1.40348494 103.17738313 -0.01298371 114 10 C115.38542728 11.05551316 116.78120117 12.09806747 118.19921875 13.109375 C119.36309156 13.98811193 120.52586422 14.86830798 121.6875 15.75 C127.59554124 20.20735389 133.53624407 24.6174838 139.5 29 C145.35543551 33.30444742 151.19304319 37.63036538 157 42 C165.13221214 48.11724994 173.32504974 54.15075351 181.52392578 60.17822266 C184.0788066 62.05798214 186.63149934 63.94067825 189.18359375 65.82421875 C190.03203857 66.45021973 190.8804834 67.0762207 191.75463867 67.72119141 C193.36833707 68.91192747 194.98179738 70.10298627 196.5949707 71.29443359 C197.33191162 71.83793457 198.06885254 72.38143555 198.828125 72.94140625 C199.4665332 73.41263916 200.10494141 73.88387207 200.76269531 74.36938477 C203.82572338 76.60181214 206.91575982 78.7969713 210 81 C210 54.27 210 27.54 210 0 C243.66 0 277.32 0 312 0 C312 63.36 312 126.72 312 192 C295.726875 192.28875 279.45375 192.5775 262.6875 192.875 C257.58756592 193.00245605 252.48763184 193.12991211 247.2331543 193.26123047 C240.90783691 193.32446289 240.90783691 193.32446289 237.92781067 193.33621216 C235.88737476 193.35743131 233.84709211 193.40608514 231.80781555 193.47805786 C215.52719666 194.02291425 206.36862097 190.66816021 194.16077614 179.85446548 C190.44918701 176.66902956 186.46499123 173.85835843 182.5 171 C180.91936692 169.83757561 179.33979602 168.67370423 177.76171875 167.5078125 C174.55736102 165.14656803 171.35147783 162.78741454 168.14453125 160.4296875 C160.08777512 154.50407331 152.05257465 148.55276097 144.06005859 142.54077148 C130.79551099 132.57503337 117.37869191 122.81104073 104 113 C103.67 139.07 103.34 165.14 103 192 C69.01 192 35.02 192 0 192 C0 128.64 0 65.28 0 0 Z M7 6 C7.97405792 6.82432022 8.94811584 7.64864044 9.95169067 8.49794006 C14.87372427 14.30738423 13.83300238 21.84149488 13.77294922 29.03295898 C13.7811257 30.66945348 13.79193139 32.30593662 13.80516052 33.94239807 C13.83354966 38.37183026 13.82526028 42.80051753 13.81029272 47.22998691 C13.80090268 51.86385748 13.8253726 56.4975475 13.84622192 61.13136292 C13.88054637 69.90019233 13.88450197 78.66876089 13.87749684 87.43764406 C13.87100215 97.42318527 13.89843875 107.40854353 13.92869925 117.39403045 C13.99017176 137.92937396 14.00911869 158.46457446 14 179 C14.93658951 178.99920441 15.87317902 178.99840881 16.83815002 178.99758911 C25.68062984 178.993981 34.52252948 179.02186068 43.36482334 179.0802784 C47.91042789 179.10930539 52.45551778 179.12737918 57.0012207 179.12011719 C61.39123144 179.11351198 65.78022626 179.13607573 70.17002678 179.17855453 C71.84164754 179.18966471 73.51337158 179.1904047 75.18499947 179.18042374 C89.93399315 179.10367389 89.93399315 179.10367389 94.58178711 183.05029297 C95.37979736 184.02369629 96.17780762 184.99709961 97 186 C97.13961506 174.88129113 97.24593141 163.7627941 97.31087303 152.64338398 C97.34205725 147.47897985 97.38429163 142.31517968 97.45263672 137.15112305 C97.51829298 132.15843541 97.55380288 127.16632512 97.56926346 122.17323875 C97.58026739 120.27757885 97.6017538 118.38194708 97.63438034 116.48653603 C97.82696559 104.82438318 97.20014974 96.2226384 91 86 C100.02620405 92.63176939 109.05033118 99.26511928 118 106 C126.1497447 112.13047479 134.36022879 118.17710456 142.57666016 124.21777344 C147.34600926 127.72535438 152.11090562 131.2389817 156.87646484 134.75170898 C160.82071 137.65865573 164.76627545 140.56377129 168.71484375 143.46484375 C177.72595594 150.08920878 186.7063116 156.75089196 195.62475586 163.49975586 C197.14748403 164.64765863 198.68048384 165.78207245 200.22383118 166.90209961 C202.16764886 168.37100735 204.05279545 169.91932425 205.88800049 171.52186584 C215.63052671 179.72901156 223.65986749 180.32657046 236.05859375 179.94921875 C237.86024139 179.93519226 239.6619392 179.92665498 241.46363831 179.92329407 C246.16539743 179.90460406 250.86449307 179.83249055 255.56536865 179.7421875 C263.11080119 179.5985169 270.65533619 179.50301466 278.20207405 179.47306252 C280.82420128 179.44963767 283.44261804 179.3819474 286.06382751 179.31095886 C297.58065195 179.14178154 297.58065195 179.14178154 301.63967896 181.59609985 C303.34945223 183.31246674 304.67643769 184.98189489 306 187 C306.33 187 306.66 187 307 187 C307 127.27 307 67.54 307 6 C277.3 6 247.6 6 217 6 C218.98 8.31 220.96 10.62 223 13 C223.55581019 16.36818435 223.76665085 18.98483199 223.68115234 22.33178711 C223.68246658 23.69394348 223.68246658 23.69394348 223.68380737 25.08361816 C223.67964887 28.06575507 223.6330796 31.04560305 223.5859375 34.02734375 C223.57473917 36.10240958 223.566202 38.17749134 223.56021118 40.25257874 C223.53736316 45.69947535 223.47847397 51.14540351 223.4119873 56.59191895 C223.35047823 62.15554709 223.32317771 67.71933257 223.29296875 73.28320312 C223.22872738 84.18922629 223.12639617 95.09453244 223 106 C222.49065918 105.04810791 221.98131836 104.09621582 221.45654297 103.11547852 C220.76071002 101.84878093 220.0642231 100.58244244 219.3671875 99.31640625 C219.03485107 98.69109009 218.70251465 98.06577393 218.36010742 97.42150879 C215.20502997 91.74497074 211.1669606 88.16043599 205.7578125 84.55859375 C202.23079837 82.16709224 198.77553563 79.68769006 195.32592773 77.18603516 C193.7706109 76.05860595 192.21280872 74.93459771 190.65258789 73.81396484 C185.15926554 69.86721599 179.79149861 65.7936796 174.44921875 61.64453125 C167.07497942 55.95370855 159.50990996 50.50944711 152 45 C148.85294726 42.68915493 145.7071483 40.37661599 142.5625 38.0625 C141.39690552 37.20495117 141.39690552 37.20495117 140.20776367 36.33007812 C133.5625246 31.43250615 126.95792755 26.48156523 120.37524414 21.50024414 C118.85046416 20.35079462 117.31425197 19.21634412 115.7666626 18.09779358 C113 16 113 16 110.19755554 13.47909546 C99.95648007 4.63556077 90.58165591 4.66850222 77.5078125 5.0234375 C75.46519462 5.04212947 73.42253137 5.0563448 71.37985229 5.0663147 C66.04893361 5.10417834 60.72081622 5.20212022 55.39099121 5.31335449 C49.93422325 5.41635086 44.47699471 5.46147136 39.01953125 5.51171875 C28.34513511 5.61840189 17.67280205 5.78867352 7 6 Z " fill="#252122" transform="translate(826,504)"/>
<path d="M0 0 C1.52781853 -0.03767487 1.52781853 -0.03767487 3.08650208 -0.07611084 C6.45317765 -0.14768835 9.8174319 -0.16624122 13.18481445 -0.17822266 C15.53026785 -0.20326248 17.87571176 -0.22920536 20.22114563 -0.25601196 C25.13983326 -0.30244548 30.05766737 -0.31940328 34.9765625 -0.31933594 C41.26571597 -0.32420771 47.54869284 -0.43002111 53.83629131 -0.56194115 C58.68286688 -0.64751114 63.52796441 -0.66465247 68.37522316 -0.66301346 C70.69217165 -0.6730901 73.00915192 -0.70751414 75.32535362 -0.76719284 C92.96264629 -1.18122472 92.96264629 -1.18122472 97.80332756 2.51689911 C101.48725394 6.54422712 103.65859711 11.08288633 105.8605957 16.03271484 C106.7789039 17.51238137 107.71969753 18.97944458 108.71606445 20.40771484 C109.49438207 21.61542111 110.27173288 22.82375103 111.0480957 24.03271484 C115.42258582 30.81755699 119.82300886 37.58508911 124.2355957 44.34521484 C131.6531748 55.71108702 139.05127839 67.08951798 146.44458008 78.47119141 C155.23437648 92.00185585 164.04366766 105.51971656 172.8605957 119.03271484 C183.3743351 135.14627976 193.87503972 151.26817993 204.34887695 167.40771484 C204.92621582 168.29692627 205.50355469 169.1861377 206.09838867 170.10229492 C207.19032809 171.78412003 208.28183624 173.46622526 209.37280273 175.14868164 C209.87279785 175.91865479 210.37279297 176.68862793 210.88793945 177.48193359 C211.37246582 178.22878418 211.85699219 178.97563477 212.35620117 179.74511719 C213.41407918 181.35373727 214.48747939 182.95220388 215.57202148 184.54296875 C216.12229004 185.35040527 216.67255859 186.1578418 217.23950195 186.98974609 C217.74167236 187.71782471 218.24384277 188.44590332 218.76123047 189.19604492 C219.8605957 191.03271484 219.8605957 191.03271484 219.8605957 193.03271484 C206.16117202 193.26450669 192.46221536 193.44214415 178.76122952 193.55083656 C172.39903399 193.603007 166.03818074 193.67375507 159.67675781 193.78710938 C153.53638103 193.89583896 147.39729431 193.95557212 141.25602913 193.98148727 C138.91430409 193.99995221 136.57264902 194.03601246 134.23147392 194.09001541 C115.94511265 194.49500849 115.94511265 194.49500849 111.04324341 191.05633545 C109.17418473 188.43681971 108.10942988 185.99566352 106.8605957 183.03271484 C105.25580008 179.57928814 103.61570507 176.69124866 100.8605957 174.03271484 C97.05575906 172.73256404 93.43050601 172.83356729 89.43920898 172.91918945 C88.29716507 172.90812164 87.15512115 172.89705383 85.97846985 172.88565063 C82.21141942 172.85967795 78.44781131 172.8970628 74.6809082 172.93505859 C72.06630334 172.92940566 69.45170428 172.91979508 66.83712769 172.90638733 C60.66394756 172.88139426 54.49180269 172.90200921 48.31871784 172.93916088 C41.28838167 172.97924001 34.25841243 172.96824819 27.22801232 172.95304477 C12.77195744 172.92292328 -1.68352283 172.95668208 -16.1394043 173.03271484 C-16.39513214 173.69847031 -16.65085999 174.36422577 -16.91433716 175.05015564 C-17.31860931 176.03440018 -17.72288147 177.01864471 -18.1394043 178.03271484 C-18.49068201 178.92136073 -18.49068201 178.92136073 -18.84905624 179.82795906 C-21.02443254 184.95422535 -23.59722951 189.6645816 -28.1394043 193.03271484 C-35.82760672 195.75014287 -44.51044151 194.77402805 -52.5222168 194.49755859 C-54.90682279 194.46955342 -57.29151557 194.44821481 -59.67623901 194.4332428 C-65.92901269 194.37618366 -72.17649226 194.22905515 -78.42718506 194.06268311 C-84.81490452 193.90875359 -91.20348662 193.8406284 -97.5925293 193.76513672 C-110.11047049 193.60464881 -122.62449589 193.34892654 -135.1394043 193.03271484 C-134.42038689 191.90470459 -134.42038689 191.90470459 -133.68684387 190.75390625 C-133.05735336 189.76567871 -132.42786285 188.77745117 -131.77929688 187.75927734 C-131.15557693 186.78039551 -130.53185699 185.80151367 -129.88923645 184.79296875 C-128.54516156 182.67277227 -127.21331347 180.54765312 -125.90112305 178.40771484 C-120.13826153 169.03085543 -114.06319225 159.87702512 -107.93539429 150.73681641 C-103.57328484 144.22744424 -99.23379665 137.71534808 -95.1394043 131.03271484 C-90.29123247 123.11980582 -85.09919116 115.43875618 -79.93237305 107.73242188 C-75.57127678 101.2245156 -71.23286503 94.71382753 -67.1394043 88.03271484 C-62.6685135 80.73558237 -57.90393176 73.63958184 -53.1394043 66.53271484 C-46.02909678 55.93700994 -46.02909678 55.93700994 -39.2019043 45.15771484 C-34.39358977 37.33096259 -29.35925433 29.65391098 -24.3269043 21.97021484 C-23.70140182 21.0134787 -23.70140182 21.0134787 -23.06326294 20.03741455 C-21.85470539 18.18964925 -20.64393937 16.34335214 -19.43237305 14.49755859 C-18.7262085 13.42111084 -18.02004395 12.34466309 -17.29248047 11.2355957 C-16.58196533 10.17864502 -15.8714502 9.12169434 -15.1394043 8.03271484 C-14.82671349 7.43616561 -14.51402267 6.83961637 -14.19185638 6.22498989 C-10.62983381 0.04344852 -6.75764141 -0.01130112 0 0 Z M-6.1394043 7.03271484 C-5.80779297 7.9731665 -5.47618164 8.91361816 -5.13452148 9.88256836 C-4.02735295 13.38742498 -3.9245984 14.6096389 -5.1394043 18.03271484 C-6.5786526 20.65310214 -8.21960409 23.11706511 -9.8894043 25.59521484 C-10.89737713 27.12115061 -11.9051828 28.64719681 -12.9128418 30.17333984 C-13.44232422 30.96933594 -13.97180664 31.76533203 -14.51733398 32.58544922 C-17.21303415 36.65253207 -19.86051089 40.75078553 -22.5144043 44.84521484 C-23.61566367 46.53942233 -24.71722854 48.23343129 -25.8190918 49.92724609 C-29.09343533 54.96181364 -32.36653449 59.99718918 -35.6394043 65.03271484 C-36.72273191 66.69938523 -37.80606524 68.36605189 -38.8894043 70.03271484 C-39.4256543 70.85771484 -39.9619043 71.68271484 -40.5144043 72.53271484 C-42.1394043 75.03271484 -43.7644043 77.53271484 -45.3894043 80.03271484 C-45.92549316 80.85747314 -46.46158203 81.68223145 -47.01391602 82.53198242 C-48.09885408 84.20110537 -49.18381507 85.8702134 -50.26879883 87.53930664 C-52.95276667 91.66827127 -55.63635461 95.79748174 -58.3190918 99.92724609 C-64.71880147 109.7777796 -71.129887 119.62081276 -77.54858398 129.45898438 C-82.15228406 136.51633089 -86.75229658 143.57606181 -91.33740234 150.64550781 C-94.15673874 154.99123652 -96.98904963 159.32783383 -99.83862305 163.65380859 C-100.44303223 164.57460205 -101.04744141 165.49539551 -101.67016602 166.4440918 C-102.83607436 168.21979353 -104.00553477 169.99316936 -105.17895508 171.76391602 C-105.69828613 172.55644775 -106.21761719 173.34897949 -106.75268555 174.16552734 C-107.21457275 174.86564941 -107.67645996 175.56577148 -108.15234375 176.28710938 C-109.30347553 177.98864804 -109.30347553 177.98864804 -109.1394043 180.03271484 C-99.81258527 180.42826825 -90.48868661 180.72943535 -81.15528393 180.91352177 C-76.81989262 181.00192841 -72.49027116 181.1215386 -68.15820312 181.31518555 C-50.20668764 182.98272076 -50.20668764 182.98272076 -33.48809814 178.35760498 C-29.64498852 174.47321941 -27.39498331 170.11037354 -25.78608704 164.91697693 C-25.1394043 163.03271484 -25.1394043 163.03271484 -23.1394043 160.03271484 C-20.86533546 159.61049843 -20.86533546 159.61049843 -17.96841431 159.5440979 C-16.87233856 159.51251587 -15.77626282 159.48093384 -14.64697266 159.44839478 C-13.43871826 159.42933075 -12.23046387 159.41026672 -10.9855957 159.390625 C-9.71710785 159.35966736 -8.44862 159.32870972 -7.14169312 159.29681396 C-2.92509507 159.1973897 1.29171163 159.13168656 5.5090332 159.07177734 C6.22746415 159.06123683 6.94589509 159.05069633 7.68609667 159.03983641 C14.46891453 158.94178827 21.25178966 158.85696426 28.03510094 158.80188942 C36.69699822 158.73064786 45.35270816 158.59636616 54.0120939 158.37453997 C60.10818969 158.22372012 66.20262526 158.14671531 72.30052435 158.12302244 C75.93908736 158.106913 79.57058729 158.05937014 83.20710373 157.93214798 C105.32490295 157.19276809 105.32490295 157.19276809 111.28095245 161.97679901 C115.24342705 166.55346882 117.90930542 171.59334284 120.1212101 177.20616722 C120.71680799 179.01896689 120.71680799 179.01896689 121.8605957 180.03271484 C124.13358434 180.12528612 126.40945766 180.14730011 128.68432617 180.14282227 C130.16511029 180.14336531 131.64589438 180.14395234 133.12667847 180.14457703 C134.31127466 180.14243478 134.31127466 180.14243478 135.51980209 180.14024925 C139.70377798 180.13673309 143.88761891 180.1625496 148.0715332 180.18310547 C153.39521387 180.20736455 158.71850837 180.22323784 164.04223633 180.20776367 C168.3426064 180.19603103 172.64201386 180.21369698 176.94223404 180.2502079 C178.57428038 180.25877099 180.20642006 180.25682364 181.83843613 180.24370384 C190.94230982 180.17606235 198.02723917 180.60252213 205.87234497 185.84492493 C206.52846771 186.2368956 207.18459045 186.62886627 207.8605957 187.03271484 C208.5205957 186.70271484 209.1805957 186.37271484 209.8605957 186.03271484 C198.76246246 168.8628574 187.61900295 151.72279537 176.44750977 134.60058594 C171.88223536 127.60245451 167.32637562 120.59826275 162.7746582 113.59130859 C158.6437758 107.23377982 154.50352977 100.88239542 150.3605957 94.53271484 C145.1570917 86.5575485 139.96211259 78.57692187 134.7746582 70.59130859 C130.0128138 63.26271392 125.23833716 55.94239016 120.46191406 48.62329102 C116.83022046 43.0570755 113.20575982 37.48625697 109.58813477 31.91088867 C101.99221975 18.84184582 101.99221975 18.84184582 92.8605957 7.03271484 C89.78604809 6.93739157 86.73400413 6.90720105 83.65917969 6.91918945 C82.69343018 6.91904343 81.72768066 6.9188974 80.73266602 6.91874695 C77.52398472 6.9194465 74.31536067 6.92724088 71.10668945 6.93505859 C68.88851452 6.93692262 66.67033918 6.9383466 64.4521637 6.93934631 C58.60119499 6.94317269 52.75025093 6.95300399 46.89929199 6.96405029 C40.93392266 6.97426185 34.96854937 6.97884338 29.00317383 6.98388672 C17.28897026 6.99462615 5.57478503 7.011704 -6.1394043 7.03271484 Z " fill="#242022" transform="translate(597.139404296875,502.96728515625)"/>
<path d="M0 0 C12.76935683 -0.25514099 25.53810519 -0.4504557 38.30949402 -0.56993389 C44.24028701 -0.62728628 50.16933342 -0.70503831 56.09912109 -0.82983398 C61.82457561 -0.94957191 67.54835327 -1.01516942 73.27496338 -1.04364967 C75.45683189 -1.06393772 77.63861096 -1.10355977 79.81976318 -1.16303062 C96.928424 -1.61085549 96.928424 -1.61085549 102.08268738 2.39709473 C104.15035146 5.198389 105.61056548 7.81821158 107 11 C107.7453513 12.1985853 108.50936391 13.3860071 109.30078125 14.5546875 C109.96464844 15.65039062 110.62851562 16.74609375 111.3125 17.875 C116.15934014 25.76709464 121.22697454 33.51078488 126.3125 41.25 C126.93525314 42.19806519 126.93525314 42.19806519 127.57058716 43.1652832 C129.22887482 45.68979129 130.88727113 48.21422779 132.54615784 50.73834229 C135.96373013 55.94000626 139.36209551 61.15396189 142.75 66.375 C147.32426585 73.42260718 151.90854496 80.46357767 156.5 87.5 C161.70354363 95.47514043 166.89848317 103.45579305 172.0859375 111.44140625 C176.21681995 117.79893509 180.35709751 124.15029876 184.5 130.5 C195.03314232 146.64523942 205.53538719 162.81025833 216 179 C215.34 179.33 214.68 179.66 214 180 C202.36082766 175.63531037 196.99570092 168.64496408 191.16357422 158.05078125 C189.37615974 154.90049135 187.35339622 151.92733212 185.3125 148.9375 C181.13026082 142.72445799 177.02397124 136.46389118 172.9375 130.1875 C172.30207275 129.21176025 171.66664551 128.23602051 171.01196289 127.23071289 C169.68549197 125.19372065 168.35907708 123.15669192 167.03271484 121.11962891 C163.61068168 115.86779852 160.18066415 110.62119505 156.75 105.375 C156.04528564 104.29734375 155.34057129 103.2196875 154.61450195 102.109375 C145.26941615 87.82196414 135.91130198 73.54307893 126.55175781 59.26513672 C121.03213431 50.84497608 115.51423863 42.42368827 110 34 C109.43617615 33.13879547 109.43617615 33.13879547 108.86096191 32.26019287 C106.36375284 28.44552783 103.86881795 24.62938327 101.375 20.8125 C100.74110352 19.84393066 100.10720703 18.87536133 99.45410156 17.87744141 C98.87885742 16.99620605 98.30361328 16.1149707 97.7109375 15.20703125 C97.20868652 14.4385083 96.70643555 13.66998535 96.18896484 12.87817383 C95 11 95 11 94 9 C92.88135559 9.00079559 91.76271118 9.00159119 90.61016846 9.00241089 C80.07443741 9.00601123 69.5391946 8.97826367 59.00362015 8.9197216 C53.58693185 8.89063347 48.17067748 8.87264087 42.75390625 8.87988281 C37.52755535 8.886464 32.30206285 8.86405987 27.07588959 8.82144547 C25.08080856 8.81029266 23.08564071 8.80963361 21.09055328 8.81957626 C18.29802013 8.83171079 15.50812244 8.80673933 12.71582031 8.77294922 C11.88863495 8.78517014 11.06144958 8.79739105 10.209198 8.8099823 C7.89776611 8.75949097 7.89776611 8.75949097 4 8 C0 3.40493608 0 3.40493608 0 0 Z " fill="#FBFBFB" transform="translate(591,510)"/>
<path d="M0 0 C28.38 0 56.76 0 86 0 C86 59.4 86 118.8 86 180 C77.02708092 172.3089265 77.02708092 172.3089265 76.75390434 169.19265556 C76.75574793 167.98510675 76.75759151 166.77755795 76.75949097 165.53341675 C76.75778212 164.86200531 76.75607327 164.19059387 76.75431263 163.49883664 C76.75100611 161.23853801 76.76204026 158.9785332 76.77294922 156.71826172 C76.77351308 155.10222379 76.77319726 153.48618534 76.77206421 151.87014771 C76.77148873 147.47366757 76.78327458 143.07729584 76.79721212 138.68084097 C76.80968698 134.08973326 76.81088741 129.49862326 76.81326294 124.90750122 C76.81948727 116.2093822 76.83591095 107.51131326 76.85596192 98.81321633 C76.87829131 88.91251891 76.88930689 79.01181914 76.89935279 69.11110282 C76.92027638 48.74070723 76.95547083 28.37035676 77 8 C76.40473133 8.16251975 75.80946266 8.3250395 75.19615555 8.49248409 C72.14501717 9.19758044 69.25065492 9.11915585 66.12011719 9.11352539 C65.09511612 9.11374443 65.09511612 9.11374443 64.04940796 9.1139679 C61.79853096 9.11327315 59.54773748 9.10550132 57.296875 9.09765625 C55.7331751 9.09579051 54.16947462 9.09436734 52.60577393 9.09336853 C48.49583311 9.08955562 44.38592779 9.0797358 40.27600098 9.06866455 C36.07983887 9.05842407 31.88367101 9.05386526 27.6875 9.04882812 C19.45831707 9.03811242 11.22916295 9.02105073 3 9 C2.01 6.03 1.02 3.06 0 0 Z " fill="#FCFCFC" transform="translate(361,510)"/>
<path d="M0 0 C29.7 0 59.4 0 90 0 C90 59.73 90 119.46 90 181 C81.11635012 173.38544296 81.11635012 173.38544296 80.75390434 169.06960773 C80.75666972 167.25966721 80.75666972 167.25966721 80.75949097 165.41316223 C80.75778212 164.74089637 80.75607327 164.06863051 80.75431263 163.37599295 C80.75101307 161.11879967 80.7620289 158.86190232 80.77294922 156.60473633 C80.77351323 154.98855089 80.77319696 153.37236495 80.77206421 151.75617981 C80.77148931 147.36389085 80.78326576 142.97171066 80.79721212 138.57944703 C80.80969668 133.99101449 80.81088818 129.40257959 80.81326294 124.81413269 C80.81948441 116.12313012 80.83590424 107.43217774 80.85596192 98.74119729 C80.87830019 88.8477317 80.88930913 78.95426374 80.89935279 69.06077921 C80.92026989 48.70715811 80.95545881 28.35358221 81 8 C80.08846664 8.01554428 79.17693329 8.03108856 78.23777771 8.04710388 C69.63117749 8.18758821 61.0249644 8.29405109 52.41747952 8.3626852 C47.99258296 8.39915826 43.56863674 8.44859684 39.14428711 8.52807617 C34.87130007 8.60435264 30.5992247 8.64603486 26.32560921 8.6641407 C24.69846308 8.67703651 23.07136472 8.70222069 21.44460869 8.7401104 C8.69694494 9.02511011 8.69694494 9.02511011 4.40139771 6.4302063 C2.6341036 4.70394472 1.24454059 3.129065 0 1 C0 0.67 0 0.34 0 0 Z " fill="#FBFBFB" transform="translate(1043,510)"/>
<path d="M0 0 C11.68370542 -0.30314668 23.36645411 -0.53315855 35.0533123 -0.67355824 C40.48211855 -0.7409961 45.90820704 -0.83222572 51.33544922 -0.98071289 C56.58771959 -1.12348964 61.83740182 -1.20000175 67.091465 -1.23340416 C69.08100208 -1.25715921 71.0704205 -1.3035431 73.05883408 -1.37449074 C88.14455147 -1.89063106 96.77867108 1.5475281 108.19126511 11.44457626 C110.65857833 13.56634523 113.24253832 15.48467178 115.859375 17.41796875 C117.49103336 18.67259564 119.12127881 19.92906251 120.75 21.1875 C126.95909729 25.95293691 133.20300056 30.63080905 139.60766602 35.12915039 C146.02246895 39.66672585 152.22964251 44.47832734 158.46826172 49.25341797 C163.62462833 53.19762221 168.80374949 57.09567946 174.07421875 60.88671875 C179.05529661 64.48453333 184.0027081 68.12866145 188.93505859 71.79296875 C192.46735365 74.41563276 195.99385881 77.02433677 199.64453125 79.48046875 C206.76759247 84.39941291 211.90650851 89.74670803 215 98 C214.56323242 100.16870117 214.56323242 100.16870117 214 102 C203.98658057 94.68096839 194.03321358 87.29349992 184.1875 79.75 C177.93965133 74.96713678 171.66245245 70.25370789 165.23388672 65.71679688 C157.89098063 60.53053348 150.68408053 55.15832401 143.45556641 49.81445312 C139.47350805 46.87205328 135.4866229 43.93621079 131.5 41 C126.68887906 37.45653337 121.87899909 33.91143637 117.07421875 30.359375 C116.25566406 29.75480469 115.43710937 29.15023437 114.59375 28.52734375 C113.06835253 27.40062971 111.5435407 26.27312203 110.01953125 25.14453125 C108.53009236 24.04492745 107.02443815 22.96706211 105.50610352 21.90771484 C103 20 103 20 100.42944336 17.39306641 C89.1969229 6.68687711 73.84334034 8.6402429 59.3616333 8.84979248 C55.76122716 8.89153661 52.16111589 8.87690212 48.56054688 8.8671875 C38.83278211 8.85480834 29.10394521 8.86912432 19.37963867 9.15112305 C18.58564163 9.16841461 17.79164459 9.18570618 16.97358704 9.20352173 C15.00913034 9.24915695 13.045239 9.31770789 11.08154297 9.38891602 C6.40798918 8.79907517 4.03219696 6.42069076 1.15234375 2.84765625 C0 1 0 1 0 0 Z " fill="#FBFBFB" transform="translate(833,510)"/>
<path d="M0 0 C13.00023202 -1.90462392 26.00471473 -3.16202494 39.125 -3.875 C40.09366501 -3.92792583 41.06233002 -3.98085167 42.06034851 -4.03538132 C66.73769167 -5.22415261 86.49721591 -3.15413587 105.4453125 13.76953125 C119.9411959 27.04449296 132.89382626 42.30335865 144.7724781 57.94091988 C146.98232135 60.92861278 146.98232135 60.92861278 150 63 C150 67.29 150 71.58 150 76 C145.27624556 72.38852014 141.51355782 68.35850157 137.79589844 63.73510742 C108.53698794 25.20484436 108.53698794 25.20484436 66.71936035 5.41395569 C50.4875499 3.91566863 33.77287982 4.94453751 17.66976929 7.38841248 C8.13743968 8.66484526 8.13743968 8.66484526 4.52386475 6.55267334 C2.72196041 4.79256011 1.29627336 3.15555248 0 1 C0 0.67 0 0.34 0 0 Z " fill="#FDFDFD" transform="translate(146,510)"/>
<path d="M0 0 C2.10242402 1.99563663 3.75538207 3.97203605 5.3125 6.4140625 C5.74240234 7.08373047 6.17230469 7.75339844 6.61523438 8.44335938 C7.07220703 9.16330078 7.52917969 9.88324219 8 10.625 C8.98948384 12.16933459 9.97906999 13.71360362 10.96875 15.2578125 C11.47277344 16.04704102 11.97679687 16.83626953 12.49609375 17.64941406 C14.8161942 21.27570093 17.1584953 24.88751308 19.5 28.5 C20.41678833 29.91658794 21.33345462 31.33325486 22.25 32.75 C22.930625 33.801875 22.930625 33.801875 23.625 34.875 C31.41666667 46.91666667 39.20833333 58.95833333 47 71 C46.01 71.495 46.01 71.495 45 72 C43.242832 70.9228676 41.52368395 69.78352149 39.82324219 68.61889648 C32.52511979 64.24967047 26.14558813 64.00451637 17.828125 64.09765625 C16.41035691 64.0882469 14.9926062 64.07577427 13.57489014 64.06040955 C9.88554268 64.0284845 6.19745124 64.03751385 2.50805664 64.05578613 C-1.27340899 64.06702954 -5.05456762 64.03855881 -8.8359375 64.01367188 C-16.22421352 63.97077764 -23.61161789 63.97125087 -31 64 C-29.76973225 60.85999585 -28.5188567 58.01074378 -26.70703125 55.1640625 C-26.24852783 54.44017334 -25.79002441 53.71628418 -25.31762695 52.97045898 C-24.57258911 51.80945679 -24.57258911 51.80945679 -23.8125 50.625 C-23.29582764 49.81297119 -22.77915527 49.00094238 -22.24682617 48.16430664 C-17.16390899 40.20024397 -11.99656511 32.29040882 -6.8137207 24.39111328 C-6.20101318 23.45638184 -5.58830566 22.52165039 -4.95703125 21.55859375 C-4.41022705 20.72642334 -3.86342285 19.89425293 -3.30004883 19.03686523 C-0.84209047 15.18583302 -0.68915866 11.84709811 -0.4375 7.375 C-0.39431641 6.66859375 -0.35113281 5.9621875 -0.30664062 5.234375 C-0.20055249 3.48981463 -0.09977111 1.74493303 0 0 Z M-1 25 C-2.18018535 26.70241161 -3.31080764 28.43919451 -4.421875 30.1875 C-5.11796875 31.27933594 -5.8140625 32.37117187 -6.53125 33.49609375 C-7.27088741 34.66402826 -8.01047035 35.83199726 -8.75 37 C-9.47364182 38.13692027 -10.1975965 39.27364147 -10.921875 40.41015625 C-12.95351269 43.60326328 -14.97769918 46.80097418 -17 50 C-17.53818359 50.845625 -18.07636719 51.69125 -18.63085938 52.5625 C-20.93419392 55.57828733 -20.93419392 55.57828733 -22 59 C-7.48 59 7.04 59 22 59 C18.84653761 53.3237677 15.74994249 47.90418083 12.125 42.5625 C11.69517822 41.9243335 11.26535645 41.28616699 10.82250977 40.62866211 C9.55327129 38.74903553 8.2778214 36.87379933 7 35 C6.28457031 33.948125 5.56914063 32.89625 4.83203125 31.8125 C2.4752682 28.36313738 2.4752682 28.36313738 0 25 C-0.33 25 -0.66 25 -1 25 Z " fill="#242021" transform="translate(640,561)"/>
<path d="M0 0 C9.35588662 11.4831216 9.69213032 20.67457937 9.48828125 35.0078125 C9.47894202 36.94407229 9.47183116 38.88034399 9.46684265 40.81661987 C9.44786018 45.88359885 9.39883582 50.94984768 9.34332275 56.01654053 C9.29194039 61.19842658 9.26928824 66.38043198 9.24414062 71.5625 C9.19070779 81.70865205 9.10550232 91.85426502 9 102 C7.87411986 101.04270084 6.7493285 100.08412105 5.625 99.125 C4.99851562 98.59132813 4.37203125 98.05765625 3.7265625 97.5078125 C2.44163349 96.38567993 1.20628025 95.20628025 0 94 C-0.18834927 91.01697871 -0.25165839 88.12745746 -0.22705078 85.14404297 C-0.22734283 84.22691528 -0.22763489 83.3097876 -0.22793579 82.36486816 C-0.22653893 79.32387941 -0.21096101 76.28313362 -0.1953125 73.2421875 C-0.19158364 71.13754409 -0.18873607 69.03289894 -0.18673706 66.92825317 C-0.17909064 61.38140086 -0.1594335 55.83465283 -0.1373291 50.2878418 C-0.11689237 44.63071097 -0.10774 38.97356333 -0.09765625 33.31640625 C-0.07618856 22.21089161 -0.04204048 11.10545447 0 0 Z " fill="#FAFAFA" transform="translate(914,588)"/>
<path d="M0 0 C9.06240225 11.26459634 9.84982253 22.82448986 9.5859375 36.6484375 C9.57471664 38.39961273 9.56619016 40.15080708 9.56021118 41.90200806 C9.53753955 46.462789 9.47881031 51.02238351 9.4119873 55.58270264 C9.35009063 60.25549275 9.32309606 64.92847869 9.29296875 69.6015625 C9.22904024 78.73489009 9.1269317 87.86734556 9 97 C7.33333333 95.33333333 5.66666667 93.66666667 4 92 C3.24624084 91.41285217 2.49248169 90.82570435 1.71588135 90.22076416 C-0.86669738 86.87828463 -0.52609717 83.51525739 -0.45410156 79.46777344 C-0.45497772 78.17942596 -0.45497772 78.17942596 -0.45587158 76.86505127 C-0.45308745 74.02941305 -0.42198017 71.19482931 -0.390625 68.359375 C-0.38316378 66.39211603 -0.37747028 64.42484963 -0.37347412 62.45758057 C-0.35820849 57.28213955 -0.31891849 52.10714822 -0.2746582 46.93188477 C-0.23372565 41.64996423 -0.2154674 36.36797096 -0.1953125 31.0859375 C-0.15242529 20.72376086 -0.08416255 10.36191784 0 0 Z " fill="#F9F9F9" transform="translate(227,594)"/>
<path d="M0 0 C0.33 0 0.66 0 1 0 C2.59401783 12.32707126 -0.38423754 18.91290312 -7.43798828 28.78125 C-10.29134891 32.83428866 -12.93789208 37.0232915 -15.625 41.1875 C-16.13828857 41.97020264 -16.65157715 42.75290527 -17.18041992 43.55932617 C-21.59703839 50.29688357 -25.7716223 57.12888625 -30 64 C-8.88 64 12.24 64 34 64 C34 64.33 34 64.66 34 65 C33.18282501 65.00142502 32.36565002 65.00285004 31.52371216 65.00431824 C23.78581644 65.02221993 16.04858024 65.06404379 8.31097603 65.13209057 C4.33386972 65.16624012 0.35714261 65.19145161 -3.62011719 65.19555664 C-7.46546281 65.19986573 -11.30995478 65.22854112 -15.15503311 65.27343178 C-16.61482884 65.28632418 -18.07472716 65.29074402 -19.5345726 65.28615379 C-27.57161227 65.26678612 -34.11073786 65.70333358 -41.16677856 69.93110657 C-43 71 -43 71 -45 71 C-43.66438642 67.3710106 -42.04017 64.30148943 -39.91015625 61.078125 C-39.29640137 60.14395752 -38.68264648 59.20979004 -38.05029297 58.24731445 C-37.39432129 57.25820068 -36.73834961 56.26908691 -36.0625 55.25 C-34.69114618 53.16553566 -33.32005411 51.08089909 -31.94921875 48.99609375 C-31.2742334 47.97241699 -30.59924805 46.94874023 -29.90380859 45.89404297 C-27.37310786 42.04704034 -24.87070944 38.18225699 -22.375 34.3125 C-18.27933302 27.97363683 -14.17403435 21.64108335 -10.0625 15.3125 C-9.51835449 14.47436768 -8.97420898 13.63623535 -8.41357422 12.77270508 C-7.39981328 11.21286619 -6.38460715 9.6539652 -5.36767578 8.09619141 C-4.49750234 6.76250537 -3.63088463 5.42648755 -2.76904297 4.08740234 C-1.87198045 2.70770969 -0.94036645 1.35054949 0 0 Z " fill="#A8A6A6" transform="translate(639,561)"/>
<path d="M0 0 C1.4844005 -0.01033668 2.96879609 -0.02140241 4.45318604 -0.03315735 C7.55648955 -0.05252084 10.65934309 -0.05603579 13.76269531 -0.04956055 C17.70816288 -0.04357826 21.65126617 -0.08773929 25.59624863 -0.14544964 C28.66102792 -0.18272244 31.72525234 -0.18733172 34.7902298 -0.18317604 C36.24290731 -0.18601856 37.69561245 -0.19985508 39.14806366 -0.22565269 C49.22453739 -0.38579806 56.61667061 1.34053639 64.765625 7.63671875 C64.765625 7.96671875 64.765625 8.29671875 64.765625 8.63671875 C34.075625 8.63671875 3.385625 8.63671875 -28.234375 8.63671875 C-18.80111571 1.09011132 -11.90509429 -0.00087174 0 0 Z " fill="#FEFEFE" transform="translate(621.234375,625.36328125)"/>
</svg>
